<?xml version="1.0" encoding="utf-8"?>
<!-- Generator: Adobe Illustrator 25.2.1, SVG Export Plug-In . SVG Version: 6.00 Build 0)  -->
<svg version="1.1" id="Layer_1" xmlns="http://www.w3.org/2000/svg" xmlns:xlink="http://www.w3.org/1999/xlink" x="0px" y="0px"
	 viewBox="0 0 56 56" style="enable-background:new 0 0 56 56;" xml:space="preserve">
<style type="text/css">
	.st0{fill:#EB582C;}
	.st1{clip-path:url(#SVGID_1_);fill:#D44F28;}
	.st2{clip-path:url(#SVGID_2_);fill:#D44F28;}
	.st3{clip-path:url(#SVGID_3_);fill:#D44F28;}
	.st4{clip-path:url(#SVGID_4_);fill:#D44F28;}
	.st5{clip-path:url(#SVGID_5_);fill:#D44F28;}
	.st6{clip-path:url(#SVGID_6_);fill:#D44F28;}
	.st7{clip-path:url(#SVGID_7_);fill:#D44F28;}
	.st8{clip-path:url(#SVGID_8_);fill:#D44F28;}
	.st9{clip-path:url(#SVGID_9_);fill:#D44F28;}
	.st10{clip-path:url(#SVGID_10_);fill:#D44F28;}
	.st11{clip-path:url(#SVGID_11_);fill:#D44F28;}
	.st12{clip-path:url(#SVGID_12_);fill:#D44F28;}
	.st13{clip-path:url(#SVGID_13_);fill:#D44F28;}
	.st14{clip-path:url(#SVGID_14_);fill:#D44F28;}
	.st15{clip-path:url(#SVGID_15_);fill:#D44F28;}
	.st16{clip-path:url(#SVGID_16_);fill:#D44F28;}
	.st17{clip-path:url(#SVGID_17_);fill:#D44F28;}
	.st18{clip-path:url(#SVGID_18_);fill:#D44F28;}
	.st19{clip-path:url(#SVGID_19_);fill:#D44F28;}
	.st20{clip-path:url(#SVGID_20_);fill:#D44F28;}
	.st21{clip-path:url(#SVGID_21_);fill:#D44F28;}
	.st22{clip-path:url(#SVGID_22_);fill:#D44F28;}
	.st23{clip-path:url(#SVGID_23_);fill:#D44F28;}
	.st24{clip-path:url(#SVGID_24_);fill:#D44F28;}
	.st25{clip-path:url(#SVGID_25_);fill:#D44F28;}
	.st26{clip-path:url(#SVGID_26_);fill:#D44F28;}
	.st27{clip-path:url(#SVGID_27_);fill:#D44F28;}
	.st28{clip-path:url(#SVGID_28_);fill:#D44F28;}
	.st29{clip-path:url(#SVGID_29_);fill:#D44F28;}
	.st30{clip-path:url(#SVGID_30_);fill:#D44F28;}
	.st31{clip-path:url(#SVGID_31_);fill:#D44F28;}
	.st32{clip-path:url(#SVGID_32_);fill:#D44F28;}
	.st33{clip-path:url(#SVGID_33_);fill:#D44F28;}
	.st34{clip-path:url(#SVGID_34_);fill:#D44F28;}
	.st35{clip-path:url(#SVGID_35_);fill:#D44F28;}
	.st36{clip-path:url(#SVGID_36_);fill:#D44F28;}
	.st37{clip-path:url(#SVGID_37_);fill:#D44F28;}
	.st38{clip-path:url(#SVGID_38_);fill:#D44F28;}
	.st39{clip-path:url(#SVGID_39_);fill:#D44F28;}
	.st40{clip-path:url(#SVGID_40_);fill:#D44F28;}
	.st41{clip-path:url(#SVGID_41_);fill:#D44F28;}
</style>
<rect class="st0" width="56" height="56"/>
<g>
	<g>
		<g>
			<g>
				<defs>
					<polygon id="SVGID_83_" points="28,28 28,28 26.7,-13.2 29.3,-13.2 					"/>
				</defs>
				<clipPath id="SVGID_1_">
					<use xlink:href="#SVGID_83_"  style="overflow:visible;"/>
				</clipPath>
				<path class="st1" d="M29.3-13.2h-2.6H29.3z"/>
				<rect x="26.7" y="-13.2" class="st1" width="2.6" height="41.2"/>
				<path class="st1" d="M26.7,28h2.6H26.7z"/>
			</g>
		</g>
	</g>
	<g>
		<g>
			<g>
				<defs>
					<polygon id="SVGID_85_" points="28,28 28,28 33.2,-12.9 35.7,-12.5 					"/>
				</defs>
				<clipPath id="SVGID_2_">
					<use xlink:href="#SVGID_85_"  style="overflow:visible;"/>
				</clipPath>
				<polygon class="st2" points="35.7,-12.5 33.2,-12.9 35.7,-12.9 				"/>
				<polygon class="st2" points="35.7,-12.2 29.4,28 28,28 28,28 28,19.5 33.1,-12.9 33.2,-12.9 35.7,-12.5 				"/>
				<polygon class="st2" points="28,28 28,28 28,28 				"/>
			</g>
		</g>
	</g>
	<g>
		<g>
			<g>
				<defs>
					<polygon id="SVGID_87_" points="28,28 28,28 39.5,-11.6 42,-10.8 					"/>
				</defs>
				<clipPath id="SVGID_3_">
					<use xlink:href="#SVGID_87_"  style="overflow:visible;"/>
				</clipPath>
				<polygon class="st3" points="42,-10.8 39.5,-11.6 42,-11.6 				"/>
				<polygon class="st3" points="42,-10.7 29.4,28 28,28 28,28 28,23.7 39.5,-11.6 39.5,-11.6 42,-10.8 				"/>
				<polygon class="st3" points="28,28 28,28 28,28 				"/>
			</g>
		</g>
	</g>
	<g>
		<g>
			<g>
				<defs>
					<polygon id="SVGID_89_" points="28,28 28,28 45.6,-9.3 47.9,-8.1 					"/>
				</defs>
				<clipPath id="SVGID_4_">
					<use xlink:href="#SVGID_89_"  style="overflow:visible;"/>
				</clipPath>
				<polygon class="st4" points="47.9,-8.1 45.6,-9.3 47.9,-9.3 				"/>
				<polygon class="st4" points="47.9,-8 29.5,28 28,28 28,28 28,25.1 45.5,-9.3 45.6,-9.3 47.9,-8.1 				"/>
				<polygon class="st4" points="28,28 28,28 28,28 				"/>
			</g>
		</g>
	</g>
	<g>
		<g>
			<g>
				<defs>
					<polygon id="SVGID_91_" points="28,28 28,28 51.2,-6.1 53.3,-4.6 					"/>
				</defs>
				<clipPath id="SVGID_5_">
					<use xlink:href="#SVGID_91_"  style="overflow:visible;"/>
				</clipPath>
				<polygon class="st5" points="53.3,-4.6 51.2,-6.1 53.3,-6.1 				"/>
				<polygon class="st5" points="53.3,-4.5 29.6,28 28,28 28,28 28,25.7 51.1,-6.1 51.2,-6.1 53.3,-4.6 				"/>
				<polygon class="st5" points="28,28 28,28 28,28 				"/>
			</g>
		</g>
	</g>
	<g>
		<g>
			<g>
				<defs>
					<polygon id="SVGID_93_" points="28,28 28,28 56.2,-2.1 58.1,-0.2 					"/>
				</defs>
				<clipPath id="SVGID_6_">
					<use xlink:href="#SVGID_93_"  style="overflow:visible;"/>
				</clipPath>
				<polygon class="st6" points="58.1,-0.2 56.2,-2.1 58.1,-2.1 				"/>
				<polygon class="st6" points="58.1,-0.2 29.9,28 28,28 28,28 28,26.1 56.2,-2.1 56.2,-2.1 58.1,-0.2 				"/>
				<polygon class="st6" points="28,28 28,28 28,28 				"/>
			</g>
		</g>
	</g>
	<g>
		<g>
			<g>
				<defs>
					<polygon id="SVGID_95_" points="28,28 28,28 60.6,2.7 62.1,4.8 					"/>
				</defs>
				<clipPath id="SVGID_7_">
					<use xlink:href="#SVGID_95_"  style="overflow:visible;"/>
				</clipPath>
				<polygon class="st7" points="62.1,4.8 60.6,2.7 62.1,2.7 				"/>
				<polygon class="st7" points="62.1,4.9 30.3,28 28,28 28,28 28,26.4 60.5,2.7 60.6,2.7 62.1,4.8 				"/>
				<polygon class="st7" points="28,28 28,28 28,28 				"/>
			</g>
		</g>
	</g>
	<g>
		<g>
			<g>
				<defs>
					<polygon id="SVGID_97_" points="28,28 28,28 64.1,8.1 65.3,10.4 					"/>
				</defs>
				<clipPath id="SVGID_8_">
					<use xlink:href="#SVGID_97_"  style="overflow:visible;"/>
				</clipPath>
				<polygon class="st8" points="65.3,10.4 64.1,8.1 65.3,8.1 				"/>
				<polygon class="st8" points="65.3,10.5 30.9,28 28,28 28,28 28,26.5 64,8.1 64.1,8.1 65.3,10.4 				"/>
				<polygon class="st8" points="28,28 28,28 28,28 				"/>
			</g>
		</g>
	</g>
	<g>
		<g>
			<g>
				<defs>
					<polygon id="SVGID_99_" points="28,28 28,28 66.8,14 67.6,16.5 					"/>
				</defs>
				<clipPath id="SVGID_9_">
					<use xlink:href="#SVGID_99_"  style="overflow:visible;"/>
				</clipPath>
				<polygon class="st9" points="67.6,16.5 66.8,14 67.6,14 				"/>
				<polygon class="st9" points="67.6,16.5 32.3,28 28,28 28,28 28,26.6 66.7,14 66.8,14 67.6,16.5 				"/>
				<polygon class="st9" points="28,28 28,28 28,28 				"/>
			</g>
		</g>
	</g>
	<g>
		<g>
			<g>
				<defs>
					<polygon id="SVGID_101_" points="28,28 28,28 68.5,20.3 68.9,22.8 					"/>
				</defs>
				<clipPath id="SVGID_10_">
					<use xlink:href="#SVGID_101_"  style="overflow:visible;"/>
				</clipPath>
				<polygon class="st10" points="68.9,22.8 68.5,20.3 68.9,20.3 				"/>
				<polygon class="st10" points="68.9,22.9 36.5,28 28,28 28,28 28,26.6 68.2,20.3 68.5,20.3 68.9,22.8 				"/>
				<polygon class="st10" points="28,28 28,28 28,28 				"/>
			</g>
		</g>
	</g>
	<g>
		<g>
			<g>
				<defs>
					<polygon id="SVGID_103_" points="28,28 28,28 69.2,26.7 69.2,29.3 					"/>
				</defs>
				<clipPath id="SVGID_11_">
					<use xlink:href="#SVGID_103_"  style="overflow:visible;"/>
				</clipPath>
				<path class="st11" d="M69.2,29.3v-2.6V29.3z"/>
				<rect x="28" y="26.7" class="st11" width="41.2" height="2.6"/>
			</g>
		</g>
	</g>
	<g>
		<g>
			<g>
				<defs>
					<polygon id="SVGID_105_" points="28,28 28,28 68.9,33.2 68.5,35.7 					"/>
				</defs>
				<clipPath id="SVGID_12_">
					<use xlink:href="#SVGID_105_"  style="overflow:visible;"/>
				</clipPath>
				<polygon class="st12" points="68.5,35.7 68.9,33.2 68.9,35.7 				"/>
				<polygon class="st12" points="68.2,35.7 28,29.4 28,28 28,28 36.5,28 68.9,33.1 68.9,33.2 68.5,35.7 				"/>
				<polygon class="st12" points="28,28 28,28 28,28 				"/>
			</g>
		</g>
	</g>
	<g>
		<g>
			<g>
				<defs>
					<polygon id="SVGID_107_" points="28,28 28,28 67.6,39.5 66.8,42 					"/>
				</defs>
				<clipPath id="SVGID_13_">
					<use xlink:href="#SVGID_107_"  style="overflow:visible;"/>
				</clipPath>
				<polygon class="st13" points="66.8,42 67.6,39.5 67.6,42 				"/>
				<polygon class="st13" points="66.7,42 28,29.4 28,28 28,28 32.3,28 67.6,39.5 67.6,39.5 66.8,42 				"/>
				<polygon class="st13" points="28,28 28,28 28,28 				"/>
			</g>
		</g>
	</g>
	<g>
		<g>
			<g>
				<defs>
					<polygon id="SVGID_109_" points="28,28 28,28 65.3,45.6 64.1,47.9 					"/>
				</defs>
				<clipPath id="SVGID_14_">
					<use xlink:href="#SVGID_109_"  style="overflow:visible;"/>
				</clipPath>
				<polygon class="st14" points="64.1,47.9 65.3,45.6 65.3,47.9 				"/>
				<polygon class="st14" points="64,47.9 28,29.5 28,28 28,28 30.9,28 65.3,45.5 65.3,45.6 64.1,47.9 				"/>
				<polygon class="st14" points="28,28 28,28 28,28 				"/>
			</g>
		</g>
	</g>
	<g>
		<g>
			<g>
				<defs>
					<polygon id="SVGID_111_" points="28,28 28,28 62.1,51.2 60.6,53.3 					"/>
				</defs>
				<clipPath id="SVGID_15_">
					<use xlink:href="#SVGID_111_"  style="overflow:visible;"/>
				</clipPath>
				<polygon class="st15" points="60.6,53.3 62.1,51.2 62.1,53.3 				"/>
				<polygon class="st15" points="60.5,53.3 28,29.6 28,28 28,28 30.3,28 62.1,51.1 62.1,51.2 60.6,53.3 				"/>
				<polygon class="st15" points="28,28 28,28 28,28 				"/>
			</g>
		</g>
	</g>
	<g>
		<g>
			<g>
				<defs>
					<polygon id="SVGID_113_" points="28,28 28,28 58.1,56.2 56.2,58.1 					"/>
				</defs>
				<clipPath id="SVGID_16_">
					<use xlink:href="#SVGID_113_"  style="overflow:visible;"/>
				</clipPath>
				<polygon class="st16" points="56.2,58.1 58.1,56.2 58.1,58.1 				"/>
				<polygon class="st16" points="56.2,58.1 28,29.9 28,28 28,28 29.9,28 58.1,56.2 58.1,56.2 56.2,58.1 				"/>
				<polygon class="st16" points="28,28 28,28 28,28 				"/>
			</g>
		</g>
	</g>
	<g>
		<g>
			<g>
				<defs>
					<polygon id="SVGID_115_" points="28,28 28,28 53.3,60.6 51.2,62.1 					"/>
				</defs>
				<clipPath id="SVGID_17_">
					<use xlink:href="#SVGID_115_"  style="overflow:visible;"/>
				</clipPath>
				<polygon class="st17" points="51.2,62.1 53.3,60.6 53.3,62.1 				"/>
				<polygon class="st17" points="51.1,62.1 28,30.3 28,28 28,28 29.6,28 53.3,60.5 53.3,60.6 51.2,62.1 				"/>
				<polygon class="st17" points="28,28 28,28 28,28 				"/>
			</g>
		</g>
	</g>
	<g>
		<g>
			<g>
				<defs>
					<polygon id="SVGID_117_" points="28,28 28,28 47.9,64.1 45.6,65.3 					"/>
				</defs>
				<clipPath id="SVGID_18_">
					<use xlink:href="#SVGID_117_"  style="overflow:visible;"/>
				</clipPath>
				<polygon class="st18" points="45.6,65.3 47.9,64.1 47.9,65.3 				"/>
				<polygon class="st18" points="45.5,65.3 28,30.9 28,28 28,28 29.5,28 47.9,64 47.9,64.1 45.6,65.3 				"/>
				<polygon class="st18" points="28,28 28,28 28,28 				"/>
			</g>
		</g>
	</g>
	<g>
		<g>
			<g>
				<defs>
					<polygon id="SVGID_119_" points="28,28 28,28 42,66.8 39.5,67.6 					"/>
				</defs>
				<clipPath id="SVGID_19_">
					<use xlink:href="#SVGID_119_"  style="overflow:visible;"/>
				</clipPath>
				<polygon class="st19" points="39.5,67.6 42,66.8 42,67.6 				"/>
				<polygon class="st19" points="39.5,67.6 28,32.3 28,28 28,28 29.4,28 42,66.7 42,66.8 39.5,67.6 				"/>
				<polygon class="st19" points="28,28 28,28 28,28 				"/>
			</g>
		</g>
	</g>
	<g>
		<g>
			<g>
				<defs>
					<polygon id="SVGID_121_" points="28,28 28,28 35.7,68.5 33.2,68.9 					"/>
				</defs>
				<clipPath id="SVGID_20_">
					<use xlink:href="#SVGID_121_"  style="overflow:visible;"/>
				</clipPath>
				<polygon class="st20" points="33.2,68.9 35.7,68.5 35.7,68.9 				"/>
				<polygon class="st20" points="33.1,68.9 28,36.5 28,28 28,28 29.4,28 35.7,68.2 35.7,68.5 33.2,68.9 				"/>
				<polygon class="st20" points="28,28 28,28 28,28 				"/>
			</g>
		</g>
	</g>
	<g>
		<g>
			<g>
				<defs>
					<polygon id="SVGID_123_" points="28,28 28,28 29.3,69.2 26.7,69.2 					"/>
				</defs>
				<clipPath id="SVGID_21_">
					<use xlink:href="#SVGID_123_"  style="overflow:visible;"/>
				</clipPath>
				<path class="st21" d="M26.7,69.2h2.6H26.7z"/>
				<rect x="26.7" y="28" class="st21" width="2.6" height="41.2"/>
				<path class="st21" d="M29.3,28h-2.6H29.3z"/>
			</g>
		</g>
	</g>
	<g>
		<g>
			<g>
				<defs>
					<polygon id="SVGID_125_" points="28,28 28,28 22.8,68.9 20.3,68.5 					"/>
				</defs>
				<clipPath id="SVGID_22_">
					<use xlink:href="#SVGID_125_"  style="overflow:visible;"/>
				</clipPath>
				<polygon class="st22" points="20.3,68.5 22.8,68.9 20.3,68.9 				"/>
				<polygon class="st22" points="20.3,68.2 26.6,28 28,28 28,28 28,36.5 22.9,68.9 22.8,68.9 20.3,68.5 				"/>
				<polygon class="st22" points="28,28 28,28 28,28 				"/>
			</g>
		</g>
	</g>
	<g>
		<g>
			<g>
				<defs>
					<polygon id="SVGID_127_" points="28,28 28,28 16.5,67.6 14,66.8 					"/>
				</defs>
				<clipPath id="SVGID_23_">
					<use xlink:href="#SVGID_127_"  style="overflow:visible;"/>
				</clipPath>
				<polygon class="st23" points="14,66.8 16.5,67.6 14,67.6 				"/>
				<polygon class="st23" points="14,66.7 26.6,28 28,28 28,28 28,32.3 16.5,67.6 16.5,67.6 14,66.8 				"/>
				<polygon class="st23" points="28,28 28,28 28,28 				"/>
			</g>
		</g>
	</g>
	<g>
		<g>
			<g>
				<defs>
					<polygon id="SVGID_129_" points="28,28 28,28 10.4,65.3 8.1,64.1 					"/>
				</defs>
				<clipPath id="SVGID_24_">
					<use xlink:href="#SVGID_129_"  style="overflow:visible;"/>
				</clipPath>
				<polygon class="st24" points="8.1,64.1 10.4,65.3 8.1,65.3 				"/>
				<polygon class="st24" points="8.1,64 26.5,28 28,28 28,28 28,30.9 10.5,65.3 10.4,65.3 8.1,64.1 				"/>
				<polygon class="st24" points="28,28 28,28 28,28 				"/>
			</g>
		</g>
	</g>
	<g>
		<g>
			<g>
				<defs>
					<polygon id="SVGID_131_" points="28,28 28,28 4.8,62.1 2.7,60.6 					"/>
				</defs>
				<clipPath id="SVGID_25_">
					<use xlink:href="#SVGID_131_"  style="overflow:visible;"/>
				</clipPath>
				<polygon class="st25" points="2.7,60.6 4.8,62.1 2.7,62.1 				"/>
				<polygon class="st25" points="2.7,60.5 26.4,28 28,28 28,28 28,30.3 4.9,62.1 4.8,62.1 2.7,60.6 				"/>
				<polygon class="st25" points="28,28 28,28 28,28 				"/>
			</g>
		</g>
	</g>
	<g>
		<g>
			<g>
				<defs>
					<polygon id="SVGID_133_" points="28,28 28,28 -0.2,58.1 -2.1,56.2 					"/>
				</defs>
				<clipPath id="SVGID_26_">
					<use xlink:href="#SVGID_133_"  style="overflow:visible;"/>
				</clipPath>
				<polygon class="st26" points="-2.1,56.2 -0.2,58.1 -2.1,58.1 				"/>
				<polygon class="st26" points="-2.1,56.2 26.1,28 28,28 28,28 28,29.9 -0.2,58.1 -0.2,58.1 -2.1,56.2 				"/>
				<polygon class="st26" points="28,28 28,28 28,28 				"/>
			</g>
		</g>
	</g>
	<g>
		<g>
			<g>
				<defs>
					<polygon id="SVGID_135_" points="28,28 28,28 -4.6,53.3 -6.1,51.2 					"/>
				</defs>
				<clipPath id="SVGID_27_">
					<use xlink:href="#SVGID_135_"  style="overflow:visible;"/>
				</clipPath>
				<polygon class="st27" points="-6.1,51.2 -4.6,53.3 -6.1,53.3 				"/>
				<polygon class="st27" points="-6.1,51.1 25.7,28 28,28 28,28 28,29.6 -4.5,53.3 -4.6,53.3 -6.1,51.2 				"/>
				<polygon class="st27" points="28,28 28,28 28,28 				"/>
			</g>
		</g>
	</g>
	<g>
		<g>
			<g>
				<defs>
					<polygon id="SVGID_137_" points="28,28 28,28 -8.1,47.9 -9.3,45.6 					"/>
				</defs>
				<clipPath id="SVGID_28_">
					<use xlink:href="#SVGID_137_"  style="overflow:visible;"/>
				</clipPath>
				<polygon class="st28" points="-9.3,45.6 -8.1,47.9 -9.3,47.9 				"/>
				<polygon class="st28" points="-9.3,45.5 25.1,28 28,28 28,28 28,29.5 -8,47.9 -8.1,47.9 -9.3,45.6 				"/>
				<polygon class="st28" points="28,28 28,28 28,28 				"/>
			</g>
		</g>
	</g>
	<g>
		<g>
			<g>
				<defs>
					<polygon id="SVGID_139_" points="28,28 28,28 -10.8,42 -11.6,39.5 					"/>
				</defs>
				<clipPath id="SVGID_29_">
					<use xlink:href="#SVGID_139_"  style="overflow:visible;"/>
				</clipPath>
				<polygon class="st29" points="-11.6,39.5 -10.8,42 -11.6,42 				"/>
				<polygon class="st29" points="-11.6,39.5 23.7,28 28,28 28,28 28,29.4 -10.7,42 -10.8,42 -11.6,39.5 				"/>
				<polygon class="st29" points="28,28 28,28 28,28 				"/>
			</g>
		</g>
	</g>
	<g>
		<g>
			<g>
				<defs>
					<polygon id="SVGID_141_" points="28,28 28,28 -12.5,35.7 -12.9,33.2 					"/>
				</defs>
				<clipPath id="SVGID_30_">
					<use xlink:href="#SVGID_141_"  style="overflow:visible;"/>
				</clipPath>
				<polygon class="st30" points="-12.9,33.2 -12.5,35.7 -12.9,35.7 				"/>
				<polygon class="st30" points="-12.9,33.1 19.5,28 28,28 28,28 28,29.4 -12.2,35.7 -12.5,35.7 -12.9,33.2 				"/>
				<polygon class="st30" points="28,28 28,28 28,28 				"/>
			</g>
		</g>
	</g>
	<g>
		<g>
			<g>
				<defs>
					<polygon id="SVGID_143_" points="28,28 28,28 -13.2,29.3 -13.2,26.7 					"/>
				</defs>
				<clipPath id="SVGID_31_">
					<use xlink:href="#SVGID_143_"  style="overflow:visible;"/>
				</clipPath>
				<path class="st31" d="M-13.2,26.7v2.6V26.7z"/>
				<rect x="-13.2" y="26.7" class="st31" width="41.2" height="2.6"/>
			</g>
		</g>
	</g>
	<g>
		<g>
			<g>
				<defs>
					<polygon id="SVGID_145_" points="28,28 28,28 -12.9,22.8 -12.5,20.3 					"/>
				</defs>
				<clipPath id="SVGID_32_">
					<use xlink:href="#SVGID_145_"  style="overflow:visible;"/>
				</clipPath>
				<polygon class="st32" points="-12.5,20.3 -12.9,22.8 -12.9,20.3 				"/>
				<polygon class="st32" points="-12.2,20.3 28,26.6 28,28 28,28 19.5,28 -12.9,22.9 -12.9,22.8 -12.5,20.3 				"/>
				<polygon class="st32" points="28,28 28,28 28,28 				"/>
			</g>
		</g>
	</g>
	<g>
		<g>
			<g>
				<defs>
					<polygon id="SVGID_147_" points="28,28 28,28 -11.6,16.5 -10.8,14 					"/>
				</defs>
				<clipPath id="SVGID_33_">
					<use xlink:href="#SVGID_147_"  style="overflow:visible;"/>
				</clipPath>
				<polygon class="st33" points="-10.8,14 -11.6,16.5 -11.6,14 				"/>
				<polygon class="st33" points="-10.7,14 28,26.6 28,28 28,28 23.7,28 -11.6,16.5 -11.6,16.5 -10.8,14 				"/>
				<polygon class="st33" points="28,28 28,28 28,28 				"/>
			</g>
		</g>
	</g>
	<g>
		<g>
			<g>
				<defs>
					<polygon id="SVGID_149_" points="28,28 28,28 -9.3,10.4 -8.1,8.1 					"/>
				</defs>
				<clipPath id="SVGID_34_">
					<use xlink:href="#SVGID_149_"  style="overflow:visible;"/>
				</clipPath>
				<polygon class="st34" points="-8.1,8.1 -9.3,10.4 -9.3,8.1 				"/>
				<polygon class="st34" points="-8,8.1 28,26.5 28,28 28,28 25.1,28 -9.3,10.5 -9.3,10.4 -8.1,8.1 				"/>
				<polygon class="st34" points="28,28 28,28 28,28 				"/>
			</g>
		</g>
	</g>
	<g>
		<g>
			<g>
				<defs>
					<polygon id="SVGID_151_" points="28,28 28,28 -6.1,4.8 -4.6,2.7 					"/>
				</defs>
				<clipPath id="SVGID_35_">
					<use xlink:href="#SVGID_151_"  style="overflow:visible;"/>
				</clipPath>
				<polygon class="st35" points="-4.6,2.7 -6.1,4.8 -6.1,2.7 				"/>
				<polygon class="st35" points="-4.5,2.7 28,26.4 28,28 28,28 25.7,28 -6.1,4.9 -6.1,4.8 -4.6,2.7 				"/>
				<polygon class="st35" points="28,28 28,28 28,28 				"/>
			</g>
		</g>
	</g>
	<g>
		<g>
			<g>
				<defs>
					<polygon id="SVGID_153_" points="28,28 28,28 -2.1,-0.2 -0.2,-2.1 					"/>
				</defs>
				<clipPath id="SVGID_36_">
					<use xlink:href="#SVGID_153_"  style="overflow:visible;"/>
				</clipPath>
				<polygon class="st36" points="-0.2,-2.1 -2.1,-0.2 -2.1,-2.1 				"/>
				<polygon class="st36" points="-0.2,-2.1 28,26.1 28,28 28,28 26.1,28 -2.1,-0.2 -2.1,-0.2 -0.2,-2.1 				"/>
				<polygon class="st36" points="28,28 28,28 28,28 				"/>
			</g>
		</g>
	</g>
	<g>
		<g>
			<g>
				<defs>
					<polygon id="SVGID_155_" points="28,28 28,28 2.7,-4.6 4.8,-6.1 					"/>
				</defs>
				<clipPath id="SVGID_37_">
					<use xlink:href="#SVGID_155_"  style="overflow:visible;"/>
				</clipPath>
				<polygon class="st37" points="4.8,-6.1 2.7,-4.6 2.7,-6.1 				"/>
				<polygon class="st37" points="4.9,-6.1 28,25.7 28,28 28,28 26.4,28 2.7,-4.5 2.7,-4.6 4.8,-6.1 				"/>
				<polygon class="st37" points="28,28 28,28 28,28 				"/>
			</g>
		</g>
	</g>
	<g>
		<g>
			<g>
				<defs>
					<polygon id="SVGID_157_" points="28,28 28,28 8.1,-8.1 10.4,-9.3 					"/>
				</defs>
				<clipPath id="SVGID_38_">
					<use xlink:href="#SVGID_157_"  style="overflow:visible;"/>
				</clipPath>
				<polygon class="st38" points="10.4,-9.3 8.1,-8.1 8.1,-9.3 				"/>
				<polygon class="st38" points="10.5,-9.3 28,25.1 28,28 28,28 26.5,28 8.1,-8 8.1,-8.1 10.4,-9.3 				"/>
				<polygon class="st38" points="28,28 28,28 28,28 				"/>
			</g>
		</g>
	</g>
	<g>
		<g>
			<g>
				<defs>
					<polygon id="SVGID_159_" points="28,28 28,28 14,-10.8 16.5,-11.6 					"/>
				</defs>
				<clipPath id="SVGID_39_">
					<use xlink:href="#SVGID_159_"  style="overflow:visible;"/>
				</clipPath>
				<polygon class="st39" points="16.5,-11.6 14,-10.8 14,-11.6 				"/>
				<polygon class="st39" points="16.5,-11.6 28,23.7 28,28 28,28 26.6,28 14,-10.7 14,-10.8 16.5,-11.6 				"/>
				<polygon class="st39" points="28,28 28,28 28,28 				"/>
			</g>
		</g>
	</g>
	<g>
		<g>
			<g>
				<defs>
					<polygon id="SVGID_161_" points="28,28 28,28 20.3,-12.5 22.8,-12.9 					"/>
				</defs>
				<clipPath id="SVGID_40_">
					<use xlink:href="#SVGID_161_"  style="overflow:visible;"/>
				</clipPath>
				<polygon class="st40" points="22.8,-12.9 20.3,-12.5 20.3,-12.9 				"/>
				<polygon class="st40" points="22.9,-12.9 28,19.5 28,28 28,28 26.6,28 20.3,-12.2 20.3,-12.5 22.8,-12.9 				"/>
				<polygon class="st40" points="28,28 28,28 28,28 				"/>
			</g>
		</g>
	</g>
	<g>
		<g>
			<g>
				<defs>
					<polygon id="SVGID_163_" points="28,28 28,28 26.7,-13.2 29.3,-13.2 					"/>
				</defs>
				<clipPath id="SVGID_41_">
					<use xlink:href="#SVGID_163_"  style="overflow:visible;"/>
				</clipPath>
				<path class="st41" d="M29.3-13.2h-2.6H29.3z"/>
				<rect x="26.7" y="-13.2" class="st41" width="2.6" height="41.2"/>
				<path class="st41" d="M26.7,28h2.6H26.7z"/>
			</g>
		</g>
	</g>
</g>
</svg>
