<?xml version="1.0" encoding="UTF-8"?>
<svg id="Layer_1" data-name="Layer 1" xmlns="http://www.w3.org/2000/svg" version="1.1" viewBox="0 0 1080 590.52">
  <defs>
    <style>
      .cls-1 {
        fill: #e21e26;
      }

      .cls-1, .cls-2 {
        stroke-width: 0px;
      }

      .cls-2 {
        fill: #fff;
      }
    </style>
  </defs>
  <path class="cls-2" d="M497.62,579.4c-34.22-1.86-72.15-3.09-109.94-6.14-80.13-6.47-158.89-20.23-234.49-48.6-36.88-13.84-71.57-31.77-101.03-58.49-17.52-15.89-32.25-34-41.3-56.08-8.86-21.61-13.12-44.39-9.64-67.42,4.98-33,18.64-62.65,38.79-89.5,23.93-31.89,53.39-57.83,85.89-80.28,76.22-52.67,159.2-91.73,247.19-120.41,49.98-16.29,100.99-28.25,153.08-35.36,17.59-2.4,35.3-4.63,53.01-5.18,27.36-.86,54.83-1.31,82.15.02,49.52,2.41,97.33,14.16,144.01,30.38,54.66,18.99,107.56,41.95,155.98,73.98,39.16,25.9,72.38,57.99,96.87,98.4,11.57,19.09,18.24,40.2,20.57,62.13,1.7,16.04,1.75,32.64-.35,48.62-6.08,46.37-31.67,82.11-65.5,112.57-38.49,34.67-83.85,57.87-131.65,76.6-55.78,21.86-113.62,36.19-172.52,46.79-42.83,7.7-86.02,11.53-129.36,14.11-25.97,1.54-51.98,2.49-81.75,3.88ZM586,307.86c17.35-11.95,25.47-29.29,24.43-51.37-.75-15.88-10.44-28.46-26.08-30.49-9.04-1.17-18.58-1.51-27.49.08-14.44,2.58-28.66,6.68-42.74,10.89-6.25,1.87-7.95,6.92-6.92,13.56.38,2.46.31,5.17-.31,7.56-3.6,13.85-7.88,27.55-11.08,41.49-4.71,20.54-11.14,40.68-9.51,62.47.91,12.06,8.59,19.89,17.41,22.37,13.42,3.77,27,3.1,40.58,1.22,20.06-2.77,37.3-10.89,49.17-27.85,6.53-9.33,11.83-19.98,6.83-31.35-2.98-6.79-9.18-12.16-14.27-18.58ZM348.98,338.54c16.26,3.41,31.9,17.28,36.97,33.38,2.01,6.37,5.54,10.87,11.87,12.1,4.65.9,9.79.99,14.41.01,12.29-2.6,16.51-10.51,12.37-22.27-3.63-10.3-8.7-19.83-16.61-27.58-3.64-3.58-7.43-7.01-9.89-9.33,11.37-9.76,23.04-18.09,32.62-28.38,16.25-17.45,12.41-42.7-7.38-56.28-16.87-11.57-35.42-16.25-55.82-13.23-1.92.28-4.13-.2-6-.88-8.48-3.09-18.02,0-23.12,7.75-9.24,14.08-14.58,29.77-17.62,46.1-3.1,16.67-5.29,33.53-7.41,50.37-1.6,12.7-2.91,25.47-3.4,38.25-.17,4.41,1.68,9.46,4.11,13.27,4.06,6.36,11.32,6.05,17.54,4.69,7.77-1.7,13.21-7.26,14.35-15.27,1.52-10.68,2.03-21.5,3.01-32.71ZM833.27,324.63c10.94-9.3,22.36-17.56,31.99-27.55,13.57-14.06,14.65-32.99,2.71-47.52-15-18.27-35.74-23.97-58.68-23.23-4.09.13-8.51,1.15-12.21-.03-9.37-2.98-18.69-.31-24.03,8.11-10.02,15.79-15.17,33.4-18.43,51.54-2.89,16.11-5.22,32.35-7.17,48.61-1.41,11.73-2.15,23.57-2.48,35.38-.18,6.36,1.91,12.64,8.42,15.42,6.76,2.88,13.58,2.58,19.9-1.98,6.67-4.82,8.53-11.83,9.09-19.35.63-8.41.88-16.85,1.33-26.15,18.11,6.16,31.05,16.52,37.64,34.26,1.38,3.7,3.85,8.09,7.07,9.74,4.16,2.14,9.57,2.47,14.45,2.49,14.9.06,21.16-9.35,16.43-23.46-5.1-15.21-15.02-26.83-26.03-36.25ZM749.7,253.15c0-4.44.5-8.95-.14-13.3-.62-4.22-1.27-9.29-3.9-12.19-6.43-7.08-15.17-6.55-23.52-3.77-7.19,2.4-11.66,7.65-12.43,15.41-1.7,16.95-2.74,33.99-5.04,50.85-2.25,16.45-6.29,32.56-15.55,46.77-5.54,8.5-11.68,16.41-22.16,19.2-5.05,1.35-9.58.19-11.39-5-2.21-6.33-4.58-12.91-5.05-19.51-2-28.02,2.74-55.57,6.71-83.17.82-5.69,2.77-12.52-4.02-16.38-8.54-4.85-23.21-1.39-24.8,10.26-.65,4.72-1.97,9.35-2.95,14.03-6.04,28.88-14.45,57.38-11.61,87.52,3.28,34.84,27.79,47.29,56.98,42.1,25.04-4.45,42.98-20.16,55.69-41.51,16.71-28.05,22.54-59.1,23.2-91.34ZM135.45,282c-.57-.44-1.14-.87-1.71-1.31,1.53-12.09,2.75-24.24,4.69-36.27,1.46-9.09.51-13.67-4.91-16.39-9.51-4.79-21.26.59-23.74,10.92-2.6,10.82-5.63,21.57-7.62,32.51-3.85,21.19-7.28,42.46-10.53,63.76-1.6,10.49-2.5,21.08-3.56,31.65-.55,5.43-.96,11.21,3.48,15.26,6.99,6.36,15.48,6.07,23.78,3.38,7.38-2.39,10.01-7.44,10.24-16.56.19-7.5.68-14.99,1.12-24.13,3.05,3.46,4.85,5.56,6.72,7.6,12.34,13.47,25.59,25.7,44.44,29.07,9.11,1.63,18.17,1.7,24.69-6.8,3.26-4.25,4.69-8.75.4-12.97-3.53-3.47-7.25-7.1-11.56-9.35-13.91-7.28-24.17-18.57-34.46-29.9-3.46-3.81-6.82-7.71-10.38-11.76,1.73-1.39,2.81-2.26,3.89-3.13,15.7-12.55,31.75-24.7,46.96-37.83,7.39-6.38,13.64-14.27,19.61-22.08,4.97-6.5,2.38-14.14-4.93-16.58-7.43-2.48-14.26-1.17-20.04,4.32-4.68,4.45-8.94,9.4-13.95,13.41-14.05,11.26-28.4,22.15-42.63,33.18ZM929.43,310.86c1.56-1.29,2.6-2.16,3.65-3.01,15.98-12.84,32.29-25.29,47.79-38.69,7.23-6.25,13.41-13.95,19.09-21.71,5.36-7.32,1.82-14.79-7-16.85-7.26-1.7-13.27.43-18.7,5.46-8.85,8.22-17.67,16.52-27.06,24.11-9.43,7.62-19.54,14.41-30.85,22.66,1.84-14.45,3.19-26.95,5.11-39.36,1.3-8.36.05-13.05-5.38-15.56-9.56-4.42-20.65.7-23.36,10.84-1.64,6.15-3.5,12.27-4.67,18.51-4.27,22.7-8.6,45.4-12.28,68.2-2.2,13.62-3.28,27.43-4.76,41.17-.59,5.43-.78,10.9,3.27,15.36,4.46,4.91,15.99,6.62,23.74,3.63,7.39-2.85,10.34-7.44,10.42-16.46.07-7.54.01-15.07.01-22.61.73-.15,1.45-.29,2.18-.44,1.84,2.02,3.69,4.03,5.52,6.06,12.39,13.73,25.84,26.01,44.91,29.34,8.61,1.5,17.29,1.72,23.78-6.16,4.5-5.46,4.99-9.03.41-14.36-2.42-2.82-5.44-5.46-8.72-7.17-14.78-7.71-26.1-19.32-36.9-31.61-3.28-3.73-6.64-7.39-10.22-11.36ZM258.29,285.43c1.95-7.38,3.24-13.83,5.37-20,4.36-12.65,19.88-17.69,30.22-9.51,4.74,3.75,14.98,3.47,19.48-1.04,2.12-2.12,3.48-6.54,2.92-9.5-1.88-10-8.7-16.2-18.44-18.27-28.07-5.96-59.88,5.88-69.17,38.86-3.5,12.43-5.7,25.25-8.02,37.98-3.2,17.64-4.87,35.47-1.63,53.24,2.14,11.76,7,22.85,19.33,26.96,7.18,2.39,15.35,2.8,23.02,2.51,10.84-.4,21.26-3.3,30.04-10.29,5.58-4.44,8.08-10.98,6.29-16.19-1.93-5.63-7.99-9.82-15.19-9.56-5.54.2-11.07,1.21-16.55,2.18-4.05.72-7.01.82-7.32-4.6-.51-8.98-1.28-17.94-2.26-26.88-.44-4.04,1.67-5.27,4.93-5.84,9.25-1.63,18.62-2.79,27.7-5.1,4.41-1.12,9.16-3.55,12.19-6.84,6.32-6.84,4.13-13.85-4.82-16.43-5.9-1.7-12.13-2.77-18.27-3.04-6.14-.28-12.35.78-19.82,1.35ZM451.94,387.49c2.64-.74,6.15-.67,7.77-2.38,4.17-4.41,8.38-9.18,11-14.57,6.68-13.74,6.92-28.98,8.74-43.82,2.25-18.25,4.53-36.5,6.76-54.75,1.41-11.51,3.01-23.01,3.96-34.57.21-2.59-1.21-6.03-3.06-7.95-7.61-7.95-23.27-5-26.48,5.42-4.5,14.6-8.35,29.46-11.38,44.42-3.45,17-5.65,34.25-8.47,51.38-1.94,11.8-4.52,23.53-5.86,35.39-1.27,11.32,3.33,21.22,17.02,21.42Z"/>
  <path class="cls-1" d="M586,307.86c5.08,6.42,11.28,11.8,14.27,18.58,5,11.38-.3,22.02-6.83,31.35-11.87,16.96-29.11,25.07-49.17,27.85-13.58,1.88-27.16,2.55-40.58-1.22-8.81-2.48-16.5-10.31-17.41-22.37-1.64-21.79,4.79-41.93,9.51-62.47,3.2-13.94,7.48-27.64,11.08-41.49.62-2.4.69-5.11.31-7.56-1.02-6.64.68-11.69,6.92-13.56,14.09-4.21,28.3-8.31,42.74-10.89,8.91-1.59,18.45-1.26,27.49-.08,15.64,2.03,25.33,14.61,26.08,30.49,1.05,22.08-7.08,39.42-24.43,51.37ZM530.97,301.02c13.4-4.04,26.91-7.24,38.53-15.48,6.24-4.43,10.3-10.35,11.26-17.7,1.4-10.74-1.7-19.55-11.62-19.91-9.48-.34-19.07,1.4-28.53,2.82-1.63.25-3.76,3.36-4.04,5.37-2.06,14.6-3.7,29.26-5.6,44.9ZM523.92,353.54c12.35,3.98,23.67,4.79,34.28-2.08,4.79-3.1,7.78-7.8,7.12-13.66-.69-6.08-6.22-8.28-10.89-8.71-9.4-.87-18.93-.26-28.71-.26-.62,8.51-1.2,16.46-1.8,24.71Z"/>
  <path class="cls-1" d="M348.98,338.54c-.98,11.21-1.49,22.03-3.01,32.71-1.14,8.01-6.58,13.56-14.35,15.27-6.21,1.36-13.47,1.67-17.54-4.69-2.43-3.8-4.28-8.86-4.11-13.27.49-12.78,1.8-25.55,3.4-38.25,2.12-16.84,4.31-33.69,7.41-50.37,3.04-16.34,8.38-32.03,17.62-46.1,5.09-7.76,14.64-10.84,23.12-7.75,1.87.68,4.07,1.16,6,.88,20.4-3.02,38.94,1.66,55.82,13.23,19.79,13.57,23.63,38.82,7.38,56.28-9.58,10.29-21.25,18.62-32.62,28.38,2.47,2.32,6.25,5.75,9.89,9.33,7.9,7.76,12.97,17.28,16.61,27.58,4.14,11.76-.08,19.67-12.37,22.27-4.62.98-9.76.89-14.41-.01-6.33-1.23-9.86-5.73-11.87-12.1-5.07-16.09-20.7-29.97-36.97-33.38ZM350.98,308.48c3.72-.77,5.68-1.05,7.58-1.58,14.68-4.12,29.21-8.62,41.21-18.61,10.19-8.48,10.63-17.3,1.17-26.46-7.65-7.41-17.3-10.7-27.67-11.4-8.85-.6-10.49,1.02-12.57,9.47-.71,2.9-1.49,5.79-2.06,8.71-2.51,12.86-4.95,25.73-7.66,39.87Z"/>
  <path class="cls-1" d="M833.27,324.63c11.01,9.43,20.93,21.04,26.03,36.25,4.73,14.11-1.53,23.52-16.43,23.46-4.88-.02-10.29-.35-14.45-2.49-3.22-1.65-5.69-6.04-7.07-9.74-6.59-17.74-19.53-28.1-37.64-34.26-.46,9.3-.7,17.74-1.33,26.15-.56,7.53-2.42,14.53-9.09,19.35-6.32,4.56-13.14,4.87-19.9,1.98-6.51-2.77-8.6-9.06-8.42-15.42.33-11.81,1.07-23.65,2.48-35.38,1.95-16.26,4.28-32.49,7.17-48.61,3.26-18.14,8.41-35.75,18.43-51.54,5.34-8.41,14.66-11.09,24.03-8.11,3.7,1.18,8.12.16,12.21.03,22.94-.74,43.68,4.96,58.68,23.23,11.93,14.54,10.85,33.46-2.71,47.52-9.63,9.99-21.06,18.25-31.99,27.55ZM785.93,308.65c3.94-.87,5.89-1.23,7.79-1.74,14.97-3.98,29.51-8.93,41.68-19.01,9.25-7.65,9.73-16.75,1.44-25.31-6.38-6.59-14.34-9.93-23.24-11.38-13.64-2.22-15.66-1.22-18.56,11.8-3.28,14.72-5.93,29.58-9.11,45.63Z"/>
  <path class="cls-1" d="M749.7,253.15c-.66,32.24-6.5,63.29-23.2,91.34-12.71,21.34-30.65,37.05-55.69,41.51-29.19,5.19-53.7-7.26-56.98-42.1-2.84-30.15,5.57-58.64,11.61-87.52.98-4.68,2.3-9.31,2.95-14.03,1.6-11.65,16.26-15.11,24.8-10.26,6.79,3.85,4.84,10.68,4.02,16.38-3.97,27.6-8.71,55.15-6.71,83.17.47,6.6,2.84,13.17,5.05,19.51,1.81,5.18,6.34,6.34,11.39,5,10.48-2.79,16.62-10.71,22.16-19.2,9.27-14.22,13.31-30.33,15.55-46.77,2.3-16.86,3.34-33.9,5.04-50.85.78-7.76,5.24-13.01,12.43-15.41,8.35-2.78,17.09-3.32,23.52,3.77,2.63,2.9,3.28,7.97,3.9,12.19.64,4.35.14,8.86.14,13.3Z"/>
  <path class="cls-1" d="M135.45,282c14.23-11.04,28.58-21.93,42.63-33.18,5.01-4.02,9.27-8.97,13.95-13.41,5.78-5.49,12.62-6.79,20.04-4.32,7.31,2.44,9.9,10.08,4.93,16.58-5.97,7.81-12.21,15.7-19.61,22.08-15.21,13.13-31.26,25.28-46.96,37.83-1.08.86-2.16,1.73-3.89,3.13,3.57,4.05,6.92,7.95,10.38,11.76,10.29,11.33,20.55,22.62,34.46,29.9,4.32,2.26,8.03,5.89,11.56,9.35,4.29,4.21,2.86,8.71-.4,12.97-6.52,8.49-15.58,8.43-24.69,6.8-18.85-3.37-32.1-15.61-44.44-29.07-1.87-2.04-3.67-4.15-6.72-7.6-.44,9.14-.92,16.63-1.12,24.13-.24,9.12-2.86,14.17-10.24,16.56-8.3,2.69-16.79,2.98-23.78-3.38-4.45-4.05-4.03-9.83-3.48-15.26,1.06-10.56,1.96-21.16,3.56-31.65,3.25-21.29,6.68-42.57,10.53-63.76,1.99-10.94,5.02-21.69,7.62-32.51,2.48-10.33,14.23-15.71,23.74-10.92,5.41,2.73,6.37,7.3,4.91,16.39-1.94,12.03-3.16,24.17-4.69,36.27.57.44,1.14.87,1.71,1.31Z"/>
  <path class="cls-1" d="M929.43,310.86c3.58,3.98,6.94,7.63,10.22,11.36,10.79,12.29,22.12,23.89,36.9,31.61,3.28,1.71,6.3,4.35,8.72,7.17,4.57,5.33,4.08,8.89-.41,14.36-6.49,7.88-15.17,7.66-23.78,6.16-19.07-3.33-32.52-15.61-44.91-29.34-1.83-2.03-3.68-4.04-5.52-6.06-.73.15-1.45.29-2.18.44,0,7.54.05,15.07-.01,22.61-.08,9.01-3.04,13.6-10.42,16.46-7.75,2.99-19.28,1.28-23.74-3.63-4.05-4.46-3.85-9.93-3.27-15.36,1.48-13.74,2.56-27.54,4.76-41.17,3.68-22.8,8.01-45.5,12.28-68.2,1.17-6.24,3.03-12.36,4.67-18.51,2.71-10.14,13.79-15.26,23.36-10.84,5.43,2.51,6.67,7.2,5.38,15.56-1.93,12.41-3.27,24.92-5.11,39.36,11.31-8.25,21.41-15.04,30.85-22.66,9.38-7.59,18.2-15.89,27.06-24.11,5.42-5.03,11.43-7.16,18.7-5.46,8.82,2.07,12.36,9.53,7,16.85-5.68,7.76-11.85,15.45-19.09,21.71-15.5,13.4-31.81,25.85-47.79,38.69-1.06.85-2.09,1.72-3.65,3.01Z"/>
  <path class="cls-1" d="M258.29,285.43c7.48-.57,13.68-1.63,19.82-1.35,6.13.28,12.36,1.34,18.27,3.04,8.95,2.58,11.14,9.59,4.82,16.43-3.03,3.28-7.79,5.72-12.19,6.84-9.08,2.3-18.45,3.46-27.7,5.1-3.26.58-5.37,1.8-4.93,5.84.98,8.94,1.75,17.9,2.26,26.88.31,5.42,3.26,5.32,7.32,4.6,5.48-.97,11.01-1.99,16.55-2.18,7.2-.26,13.26,3.93,15.19,9.56,1.79,5.21-.7,11.75-6.29,16.19-8.78,6.99-19.2,9.89-30.04,10.29-7.67.28-15.84-.12-23.02-2.51-12.33-4.11-17.19-15.2-19.33-26.96-3.24-17.77-1.57-35.6,1.63-53.24,2.31-12.73,4.51-25.55,8.02-37.98,9.29-32.99,41.11-44.83,69.17-38.86,9.73,2.07,16.56,8.27,18.44,18.27.56,2.95-.8,7.37-2.92,9.5-4.5,4.51-14.74,4.79-19.48,1.04-10.33-8.18-25.85-3.14-30.22,9.51-2.13,6.17-3.42,12.63-5.37,20Z"/>
  <path class="cls-1" d="M451.94,387.49c-13.69-.2-18.29-10.1-17.02-21.42,1.34-11.87,3.92-23.59,5.86-35.39,2.82-17.13,5.02-34.38,8.47-51.38,3.03-14.97,6.89-29.83,11.38-44.42,3.21-10.42,18.86-13.36,26.48-5.42,1.84,1.93,3.27,5.36,3.06,7.95-.96,11.55-2.55,23.05-3.96,34.57-2.24,18.25-4.52,36.5-6.76,54.75-1.83,14.84-2.06,30.08-8.74,43.82-2.62,5.39-6.83,10.16-11,14.57-1.62,1.71-5.12,1.64-7.77,2.38Z"/>
  <path class="cls-2" d="M530.97,301.02c1.9-15.64,3.54-30.3,5.6-44.9.28-2.02,2.41-5.13,4.04-5.37,9.45-1.42,19.05-3.16,28.53-2.82,9.92.36,13.02,9.17,11.62,19.91-.96,7.35-5.02,13.28-11.26,17.7-11.62,8.24-25.13,11.44-38.53,15.48Z"/>
  <path class="cls-2" d="M523.92,353.54c.6-8.26,1.18-16.2,1.8-24.71,9.77,0,19.31-.61,28.71.26,4.67.43,10.2,2.64,10.89,8.71.67,5.86-2.33,10.56-7.12,13.66-10.61,6.87-21.93,6.06-34.28,2.08Z"/>
  <path class="cls-2" d="M350.98,308.48c2.71-14.14,5.15-27.01,7.66-39.87.57-2.93,1.35-5.81,2.06-8.71,2.08-8.45,3.72-10.07,12.57-9.47,10.37.7,20.02,3.99,27.67,11.4,9.46,9.16,9.02,17.98-1.17,26.46-12,9.98-26.54,14.49-41.21,18.61-1.89.53-3.86.81-7.58,1.58Z"/>
  <path class="cls-2" d="M785.93,308.65c3.17-16.05,5.83-30.91,9.11-45.63,2.9-13.02,4.92-14.02,18.56-11.8,8.91,1.45,16.86,4.79,23.24,11.38,8.29,8.56,7.81,17.66-1.44,25.31-12.18,10.07-26.72,15.02-41.68,19.01-1.9.51-3.85.86-7.79,1.74Z"/>
</svg>