<?xml version="1.0" encoding="utf-8"?>
<!-- Generator: Adobe Illustrator 25.2.1, SVG Export Plug-In . SVG Version: 6.00 Build 0)  -->
<svg version="1.1" id="Layer_1" xmlns="http://www.w3.org/2000/svg" xmlns:xlink="http://www.w3.org/1999/xlink" x="0px" y="0px"
	 viewBox="0 0 56 56" style="enable-background:new 0 0 56 56;" xml:space="preserve">
<style type="text/css">
	.st0{fill:#034225;}
</style>
<g>
	<g>
		<g>
			<g>
				<g>
					<g>
						<path class="st0" d="M16.01,19.41v1.41h17.47v-1.41H16.01z M19.61,12.87c-0.12,0-0.16,0.02-0.23,0.13
							c-0.43,0.66-0.87,1.32-1.31,1.98s-0.88,1.32-1.31,1.98c-0.11,0.18-0.21,0.36-0.32,0.56h0.05c2.31,0,4.61,0.01,6.92,0.01
							l10.24,0.03c0.05,0,0.08-0.01,0.08-0.01c0-0.01,0.01-0.03,0.03-0.08c0.15-0.42,0.35-0.96,0.62-1.48
							c0.38-0.71,0.77-1.43,1.16-2.13c0.18-0.33,0.37-0.66,0.55-0.99C30.6,12.87,25.1,12.87,19.61,12.87z M19.9,10.35v0.64h16.79
							v-0.64H19.9z M40.01,34.37L40.01,34.37c-0.47-0.61-1.17-0.95-1.93-0.95c-1.36,0-2.46,1.1-2.46,2.46v1.78h4.91v-1.78
							C40.53,35.32,40.34,34.79,40.01,34.37z M40.01,34.37L40.01,34.37c-0.47-0.61-1.17-0.95-1.93-0.95c-1.36,0-2.46,1.1-2.46,2.46
							v1.78h4.91v-1.78C40.53,35.32,40.34,34.79,40.01,34.37z M19.9,10.35v0.64h16.79v-0.64H19.9z M19.61,12.87
							c-0.12,0-0.16,0.02-0.23,0.13c-0.43,0.66-0.87,1.32-1.31,1.98s-0.88,1.32-1.31,1.98c-0.11,0.18-0.21,0.36-0.32,0.56h0.05
							c2.31,0,4.61,0.01,6.92,0.01l10.24,0.03c0.05,0,0.08-0.01,0.08-0.01c0-0.01,0.01-0.03,0.03-0.08
							c0.15-0.42,0.35-0.96,0.62-1.48c0.38-0.71,0.77-1.43,1.16-2.13c0.18-0.33,0.37-0.66,0.55-0.99
							C30.6,12.87,25.1,12.87,19.61,12.87z M16.01,19.41v1.41h17.47v-1.41H16.01z M16.01,19.41v1.41h17.47v-1.41H16.01z
							 M19.61,12.87c-0.12,0-0.16,0.02-0.23,0.13c-0.43,0.66-0.87,1.32-1.31,1.98s-0.88,1.32-1.31,1.98
							c-0.11,0.18-0.21,0.36-0.32,0.56h0.05c2.31,0,4.61,0.01,6.92,0.01l10.24,0.03c0.05,0,0.08-0.01,0.08-0.01
							c0-0.01,0.01-0.03,0.03-0.08c0.15-0.42,0.35-0.96,0.62-1.48c0.38-0.71,0.77-1.43,1.16-2.13c0.18-0.33,0.37-0.66,0.55-0.99
							C30.6,12.87,25.1,12.87,19.61,12.87z M19.9,10.35v0.64h16.79v-0.64H19.9z M40.01,34.37L40.01,34.37
							c-0.47-0.61-1.17-0.95-1.93-0.95c-1.36,0-2.46,1.1-2.46,2.46v1.78h4.91v-1.78C40.53,35.32,40.34,34.79,40.01,34.37z
							 M40.01,34.37L40.01,34.37c-0.47-0.61-1.17-0.95-1.93-0.95c-1.36,0-2.46,1.1-2.46,2.46v1.78h4.91v-1.78
							C40.53,35.32,40.34,34.79,40.01,34.37z M19.9,10.35v0.64h16.79v-0.64H19.9z M19.61,12.87c-0.12,0-0.16,0.02-0.23,0.13
							c-0.43,0.66-0.87,1.32-1.31,1.98s-0.88,1.32-1.31,1.98c-0.11,0.18-0.21,0.36-0.32,0.56h0.05c2.31,0,4.61,0.01,6.92,0.01
							l10.24,0.03c0.05,0,0.08-0.01,0.08-0.01c0-0.01,0.01-0.03,0.03-0.08c0.15-0.42,0.35-0.96,0.62-1.48
							c0.38-0.71,0.77-1.43,1.16-2.13c0.18-0.33,0.37-0.66,0.55-0.99C30.6,12.87,25.1,12.87,19.61,12.87z M16.01,19.41v1.41h17.47
							v-1.41H16.01z M22.29,33.52c0.11,0.1,0.2,0.19,0.29,0.29v-0.29H22.29z M26.09,33.7v0.29h0.62V33.7H26.09z M26.09,33.7v0.29
							h0.62V33.7H26.09z M22.58,33.8v-0.29h-0.29C22.4,33.62,22.49,33.71,22.58,33.8z M28.65,29.06c-1.3-0.01-2.59-0.01-3.89-0.01
							s-2.59,0-3.89,0.01c-0.68,0-0.94,0.25-0.94,0.94v7.77c0.01,0.69,0.27,0.96,0.97,0.96h7.73c0.69,0,0.97-0.28,0.97-0.97v-7.73
							C29.61,29.32,29.34,29.06,28.65,29.06z M28.59,33.11h-0.82v0.22h0.65v1.02h-0.65v0.34h0.82v1.01h-1.88v-0.2
							c-0.17,0.16-0.41,0.25-0.69,0.25c-0.31,0-0.56-0.1-0.72-0.28v0.23h-1.06v-1.45c-0.16,0.13-0.36,0.21-0.61,0.22v1.23h-1.06
							v-0.2c-0.18,0.16-0.41,0.25-0.7,0.25c-0.62,0-0.99-0.4-0.99-1.05v-0.46h0.6c-0.43-0.37-0.59-0.7-0.59-1.13
							c0-0.65,0.38-1.05,0.99-1.05c0.28,0,0.51,0.08,0.68,0.23V32.1h0.99c0.27,0,0.5,0.08,0.67,0.22V32.1h1.06v0.23
							c0.17-0.18,0.42-0.28,0.72-0.28c0.28,0,0.52,0.09,0.69,0.25v-0.2h1.88V33.11z M26.09,33.99h0.62V33.7h-0.62V33.99z
							 M22.58,33.8v-0.29h-0.29C22.4,33.62,22.49,33.71,22.58,33.8z M22.29,33.52c0.11,0.1,0.2,0.19,0.29,0.29v-0.29H22.29z
							 M26.09,33.7v0.29h0.62V33.7H26.09z M26.09,33.7v0.29h0.62V33.7H26.09z M22.29,33.52c0.11,0.1,0.2,0.19,0.29,0.29v-0.29H22.29
							z M16.01,19.41v1.41h17.47v-1.41H16.01z M19.61,12.87c-0.12,0-0.16,0.02-0.23,0.13c-0.43,0.66-0.87,1.32-1.31,1.98
							s-0.88,1.32-1.31,1.98c-0.11,0.18-0.21,0.36-0.32,0.56h0.05c2.31,0,4.61,0.01,6.92,0.01l10.24,0.03
							c0.05,0,0.08-0.01,0.08-0.01c0-0.01,0.01-0.03,0.03-0.08c0.15-0.42,0.35-0.96,0.62-1.48c0.38-0.71,0.77-1.43,1.16-2.13
							c0.18-0.33,0.37-0.66,0.55-0.99C30.6,12.87,25.1,12.87,19.61,12.87z M19.9,10.35v0.64h16.79v-0.64H19.9z M40.01,34.37
							L40.01,34.37c-0.47-0.61-1.17-0.95-1.93-0.95c-1.36,0-2.46,1.1-2.46,2.46v1.78h4.91v-1.78
							C40.53,35.32,40.34,34.79,40.01,34.37z M40.01,34.37L40.01,34.37c-0.47-0.61-1.17-0.95-1.93-0.95c-1.36,0-2.46,1.1-2.46,2.46
							v1.78h4.91v-1.78C40.53,35.32,40.34,34.79,40.01,34.37z M22.29,33.52c0.11,0.1,0.2,0.19,0.29,0.29v-0.29H22.29z M26.09,33.7
							v0.29h0.62V33.7H26.09z M26.09,33.7v0.29h0.62V33.7H26.09z M22.58,33.8v-0.29h-0.29C22.4,33.62,22.49,33.71,22.58,33.8z
							 M28.65,29.06c-1.3-0.01-2.59-0.01-3.89-0.01s-2.59,0-3.89,0.01c-0.68,0-0.94,0.25-0.94,0.94v7.77
							c0.01,0.69,0.27,0.96,0.97,0.96h7.73c0.69,0,0.97-0.28,0.97-0.97v-7.73C29.61,29.32,29.34,29.06,28.65,29.06z M28.59,33.11
							h-0.82v0.22h0.65v1.02h-0.65v0.34h0.82v1.01h-1.88v-0.2c-0.17,0.16-0.41,0.25-0.69,0.25c-0.31,0-0.56-0.1-0.72-0.28v0.23
							h-1.06v-1.45c-0.16,0.13-0.36,0.21-0.61,0.22v1.23h-1.06v-0.2c-0.18,0.16-0.41,0.25-0.7,0.25c-0.62,0-0.99-0.4-0.99-1.05
							v-0.46h0.6c-0.43-0.37-0.59-0.7-0.59-1.13c0-0.65,0.38-1.05,0.99-1.05c0.28,0,0.51,0.08,0.68,0.23V32.1h0.99
							c0.27,0,0.5,0.08,0.67,0.22V32.1h1.06v0.23c0.17-0.18,0.42-0.28,0.72-0.28c0.28,0,0.52,0.09,0.69,0.25v-0.2h1.88V33.11z
							 M26.09,33.99h0.62V33.7h-0.62V33.99z M22.58,33.8v-0.29h-0.29C22.4,33.62,22.49,33.71,22.58,33.8z M22.29,33.52
							c0.11,0.1,0.2,0.19,0.29,0.29v-0.29H22.29z M26.09,33.7v0.29h0.62V33.7H26.09z M26.09,33.7v0.29h0.62V33.7H26.09z
							 M22.29,33.52c0.11,0.1,0.2,0.19,0.29,0.29v-0.29H22.29z M19.9,10.35v0.64h16.79v-0.64H19.9z M19.61,12.87
							c-0.12,0-0.16,0.02-0.23,0.13c-0.43,0.66-0.87,1.32-1.31,1.98s-0.88,1.32-1.31,1.98c-0.11,0.18-0.21,0.36-0.32,0.56h0.05
							c2.31,0,4.61,0.01,6.92,0.01l10.24,0.03c0.05,0,0.08-0.01,0.08-0.01c0-0.01,0.01-0.03,0.03-0.08
							c0.15-0.42,0.35-0.96,0.62-1.48c0.38-0.71,0.77-1.43,1.16-2.13c0.18-0.33,0.37-0.66,0.55-0.99
							C30.6,12.87,25.1,12.87,19.61,12.87z M16.01,19.41v1.41h17.47v-1.41H16.01z M22.29,33.52c0.11,0.1,0.2,0.19,0.29,0.29v-0.29
							H22.29z M26.09,33.7v0.29h0.62V33.7H26.09z M26.09,33.7v0.29h0.62V33.7H26.09z M22.58,33.8v-0.29h-0.29
							C22.4,33.62,22.49,33.71,22.58,33.8z M28.65,29.06c-1.3-0.01-2.59-0.01-3.89-0.01s-2.59,0-3.89,0.01
							c-0.68,0-0.94,0.25-0.94,0.94v7.77c0.01,0.69,0.27,0.96,0.97,0.96h7.73c0.69,0,0.97-0.28,0.97-0.97v-7.73
							C29.61,29.32,29.34,29.06,28.65,29.06z M28.59,33.11h-0.82v0.22h0.65v1.02h-0.65v0.34h0.82v1.01h-1.88v-0.2
							c-0.17,0.16-0.41,0.25-0.69,0.25c-0.31,0-0.56-0.1-0.72-0.28v0.23h-1.06v-1.45c-0.16,0.13-0.36,0.21-0.61,0.22v1.23h-1.06
							v-0.2c-0.18,0.16-0.41,0.25-0.7,0.25c-0.62,0-0.99-0.4-0.99-1.05v-0.46h0.6c-0.43-0.37-0.59-0.7-0.59-1.13
							c0-0.65,0.38-1.05,0.99-1.05c0.28,0,0.51,0.08,0.68,0.23V32.1h0.99c0.27,0,0.5,0.08,0.67,0.22V32.1h1.06v0.23
							c0.17-0.18,0.42-0.28,0.72-0.28c0.28,0,0.52,0.09,0.69,0.25v-0.2h1.88V33.11z M26.09,33.99h0.62V33.7h-0.62V33.99z
							 M22.58,33.8v-0.29h-0.29C22.4,33.62,22.49,33.71,22.58,33.8z M22.29,33.52c0.11,0.1,0.2,0.19,0.29,0.29v-0.29H22.29z
							 M26.09,33.7v0.29h0.62V33.7H26.09z M26.09,33.7v0.29h0.62V33.7H26.09z M22.29,33.52c0.11,0.1,0.2,0.19,0.29,0.29v-0.29H22.29
							z M16.01,19.41v1.41h17.47v-1.41H16.01z M19.61,12.87c-0.12,0-0.16,0.02-0.23,0.13c-0.43,0.66-0.87,1.32-1.31,1.98
							s-0.88,1.32-1.31,1.98c-0.11,0.18-0.21,0.36-0.32,0.56h0.05c2.31,0,4.61,0.01,6.92,0.01l10.24,0.03
							c0.05,0,0.08-0.01,0.08-0.01c0-0.01,0.01-0.03,0.03-0.08c0.15-0.42,0.35-0.96,0.62-1.48c0.38-0.71,0.77-1.43,1.16-2.13
							c0.18-0.33,0.37-0.66,0.55-0.99C30.6,12.87,25.1,12.87,19.61,12.87z M19.9,10.35v0.64h16.79v-0.64H19.9z M40.01,34.37
							L40.01,34.37c-0.47-0.61-1.17-0.95-1.93-0.95c-1.36,0-2.46,1.1-2.46,2.46v1.78h4.91v-1.78
							C40.53,35.32,40.34,34.79,40.01,34.37z M40.01,34.37L40.01,34.37c-0.47-0.61-1.17-0.95-1.93-0.95c-1.36,0-2.46,1.1-2.46,2.46
							v1.78h4.91v-1.78C40.53,35.32,40.34,34.79,40.01,34.37z M22.29,33.52c0.11,0.1,0.2,0.19,0.29,0.29v-0.29H22.29z M26.09,33.7
							v0.29h0.62V33.7H26.09z M26.09,33.7v0.29h0.62V33.7H26.09z M22.58,33.8v-0.29h-0.29C22.4,33.62,22.49,33.71,22.58,33.8z
							 M28.65,29.06c-1.3-0.01-2.59-0.01-3.89-0.01s-2.59,0-3.89,0.01c-0.68,0-0.94,0.25-0.94,0.94v7.77
							c0.01,0.69,0.27,0.96,0.97,0.96h7.73c0.69,0,0.97-0.28,0.97-0.97v-7.73C29.61,29.32,29.34,29.06,28.65,29.06z M28.59,33.11
							h-0.82v0.22h0.65v1.02h-0.65v0.34h0.82v1.01h-1.88v-0.2c-0.17,0.16-0.41,0.25-0.69,0.25c-0.31,0-0.56-0.1-0.72-0.28v0.23
							h-1.06v-1.45c-0.16,0.13-0.36,0.21-0.61,0.22v1.23h-1.06v-0.2c-0.18,0.16-0.41,0.25-0.7,0.25c-0.62,0-0.99-0.4-0.99-1.05
							v-0.46h0.6c-0.43-0.37-0.59-0.7-0.59-1.13c0-0.65,0.38-1.05,0.99-1.05c0.28,0,0.51,0.08,0.68,0.23V32.1h0.99
							c0.27,0,0.5,0.08,0.67,0.22V32.1h1.06v0.23c0.17-0.18,0.42-0.28,0.72-0.28c0.28,0,0.52,0.09,0.69,0.25v-0.2h1.88V33.11z
							 M26.09,33.99h0.62V33.7h-0.62V33.99z M22.58,33.8v-0.29h-0.29C22.4,33.62,22.49,33.71,22.58,33.8z M22.29,33.52
							c0.11,0.1,0.2,0.19,0.29,0.29v-0.29H22.29z M26.09,33.7v0.29h0.62V33.7H26.09z M26.09,33.7v0.29h0.62V33.7H26.09z
							 M22.29,33.52c0.11,0.1,0.2,0.19,0.29,0.29v-0.29H22.29z M19.9,10.35v0.64h16.79v-0.64H19.9z M19.61,12.87
							c-0.12,0-0.16,0.02-0.23,0.13c-0.43,0.66-0.87,1.32-1.31,1.98s-0.88,1.32-1.31,1.98c-0.11,0.18-0.21,0.36-0.32,0.56h0.05
							c2.31,0,4.61,0.01,6.92,0.01l10.24,0.03c0.05,0,0.08-0.01,0.08-0.01c0-0.01,0.01-0.03,0.03-0.08
							c0.15-0.42,0.35-0.96,0.62-1.48c0.38-0.71,0.77-1.43,1.16-2.13c0.18-0.33,0.37-0.66,0.55-0.99
							C30.6,12.87,25.1,12.87,19.61,12.87z M16.01,19.41v1.41h17.47v-1.41H16.01z M22.29,33.52c0.11,0.1,0.2,0.19,0.29,0.29v-0.29
							H22.29z M26.09,33.7v0.29h0.62V33.7H26.09z M26.09,33.7v0.29h0.62V33.7H26.09z M22.58,33.8v-0.29h-0.29
							C22.4,33.62,22.49,33.71,22.58,33.8z M28.65,29.06c-1.3-0.01-2.59-0.01-3.89-0.01s-2.59,0-3.89,0.01
							c-0.68,0-0.94,0.25-0.94,0.94v7.77c0.01,0.69,0.27,0.96,0.97,0.96h7.73c0.69,0,0.97-0.28,0.97-0.97v-7.73
							C29.61,29.32,29.34,29.06,28.65,29.06z M28.59,33.11h-0.82v0.22h0.65v1.02h-0.65v0.34h0.82v1.01h-1.88v-0.2
							c-0.17,0.16-0.41,0.25-0.69,0.25c-0.31,0-0.56-0.1-0.72-0.28v0.23h-1.06v-1.45c-0.16,0.13-0.36,0.21-0.61,0.22v1.23h-1.06
							v-0.2c-0.18,0.16-0.41,0.25-0.7,0.25c-0.62,0-0.99-0.4-0.99-1.05v-0.46h0.6c-0.43-0.37-0.59-0.7-0.59-1.13
							c0-0.65,0.38-1.05,0.99-1.05c0.28,0,0.51,0.08,0.68,0.23V32.1h0.99c0.27,0,0.5,0.08,0.67,0.22V32.1h1.06v0.23
							c0.17-0.18,0.42-0.28,0.72-0.28c0.28,0,0.52,0.09,0.69,0.25v-0.2h1.88V33.11z M26.09,33.99h0.62V33.7h-0.62V33.99z
							 M22.58,33.8v-0.29h-0.29C22.4,33.62,22.49,33.71,22.58,33.8z M22.29,33.52c0.11,0.1,0.2,0.19,0.29,0.29v-0.29H22.29z
							 M26.09,33.7v0.29h0.62V33.7H26.09z M26.09,33.7v0.29h0.62V33.7H26.09z M22.29,33.52c0.11,0.1,0.2,0.19,0.29,0.29v-0.29H22.29
							z M16.01,19.41v1.41h17.47v-1.41H16.01z M19.61,12.87c-0.12,0-0.16,0.02-0.23,0.13c-0.43,0.66-0.87,1.32-1.31,1.98
							s-0.88,1.32-1.31,1.98c-0.11,0.18-0.21,0.36-0.32,0.56h0.05c2.31,0,4.61,0.01,6.92,0.01l10.24,0.03
							c0.05,0,0.08-0.01,0.08-0.01c0-0.01,0.01-0.03,0.03-0.08c0.15-0.42,0.35-0.96,0.62-1.48c0.38-0.71,0.77-1.43,1.16-2.13
							c0.18-0.33,0.37-0.66,0.55-0.99C30.6,12.87,25.1,12.87,19.61,12.87z M19.9,10.35v0.64h16.79v-0.64H19.9z M40.01,34.37
							L40.01,34.37c-0.47-0.61-1.17-0.95-1.93-0.95c-1.36,0-2.46,1.1-2.46,2.46v1.78h4.91v-1.78
							C40.53,35.32,40.34,34.79,40.01,34.37z M40.01,34.37L40.01,34.37c-0.47-0.61-1.17-0.95-1.93-0.95c-1.36,0-2.46,1.1-2.46,2.46
							v1.78h4.91v-1.78C40.53,35.32,40.34,34.79,40.01,34.37z M22.29,33.52c0.11,0.1,0.2,0.19,0.29,0.29v-0.29H22.29z M26.09,33.7
							v0.29h0.62V33.7H26.09z M26.09,33.7v0.29h0.62V33.7H26.09z M22.58,33.8v-0.29h-0.29C22.4,33.62,22.49,33.71,22.58,33.8z
							 M28.65,29.06c-1.3-0.01-2.59-0.01-3.89-0.01s-2.59,0-3.89,0.01c-0.68,0-0.94,0.25-0.94,0.94v7.77
							c0.01,0.69,0.27,0.96,0.97,0.96h7.73c0.69,0,0.97-0.28,0.97-0.97v-7.73C29.61,29.32,29.34,29.06,28.65,29.06z M28.59,33.11
							h-0.82v0.22h0.65v1.02h-0.65v0.34h0.82v1.01h-1.88v-0.2c-0.17,0.16-0.41,0.25-0.69,0.25c-0.31,0-0.56-0.1-0.72-0.28v0.23
							h-1.06v-1.45c-0.16,0.13-0.36,0.21-0.61,0.22v1.23h-1.06v-0.2c-0.18,0.16-0.41,0.25-0.7,0.25c-0.62,0-0.99-0.4-0.99-1.05
							v-0.46h0.6c-0.43-0.37-0.59-0.7-0.59-1.13c0-0.65,0.38-1.05,0.99-1.05c0.28,0,0.51,0.08,0.68,0.23V32.1h0.99
							c0.27,0,0.5,0.08,0.67,0.22V32.1h1.06v0.23c0.17-0.18,0.42-0.28,0.72-0.28c0.28,0,0.52,0.09,0.69,0.25v-0.2h1.88V33.11z
							 M26.09,33.99h0.62V33.7h-0.62V33.99z M22.58,33.8v-0.29h-0.29C22.4,33.62,22.49,33.71,22.58,33.8z M22.29,33.52
							c0.11,0.1,0.2,0.19,0.29,0.29v-0.29H22.29z M26.09,33.7v0.29h0.62V33.7H26.09z M26.09,33.7v0.29h0.62V33.7H26.09z
							 M22.29,33.52c0.11,0.1,0.2,0.19,0.29,0.29v-0.29H22.29z M19.9,10.35v0.64h16.79v-0.64H19.9z M19.61,12.87
							c-0.12,0-0.16,0.02-0.23,0.13c-0.43,0.66-0.87,1.32-1.31,1.98s-0.88,1.32-1.31,1.98c-0.11,0.18-0.21,0.36-0.32,0.56h0.05
							c2.31,0,4.61,0.01,6.92,0.01l10.24,0.03c0.05,0,0.08-0.01,0.08-0.01c0-0.01,0.01-0.03,0.03-0.08
							c0.15-0.42,0.35-0.96,0.62-1.48c0.38-0.71,0.77-1.43,1.16-2.13c0.18-0.33,0.37-0.66,0.55-0.99
							C30.6,12.87,25.1,12.87,19.61,12.87z M16.01,19.41v1.41h17.47v-1.41H16.01z M22.29,33.52c0.11,0.1,0.2,0.19,0.29,0.29v-0.29
							H22.29z M26.09,33.7v0.29h0.62V33.7H26.09z M26.09,33.7v0.29h0.62V33.7H26.09z M22.58,33.8v-0.29h-0.29
							C22.4,33.62,22.49,33.71,22.58,33.8z M28.65,29.06c-1.3-0.01-2.59-0.01-3.89-0.01s-2.59,0-3.89,0.01
							c-0.68,0-0.94,0.25-0.94,0.94v7.77c0.01,0.69,0.27,0.96,0.97,0.96h7.73c0.69,0,0.97-0.28,0.97-0.97v-7.73
							C29.61,29.32,29.34,29.06,28.65,29.06z M28.59,33.11h-0.82v0.22h0.65v1.02h-0.65v0.34h0.82v1.01h-1.88v-0.2
							c-0.17,0.16-0.41,0.25-0.69,0.25c-0.31,0-0.56-0.1-0.72-0.28v0.23h-1.06v-1.45c-0.16,0.13-0.36,0.21-0.61,0.22v1.23h-1.06
							v-0.2c-0.18,0.16-0.41,0.25-0.7,0.25c-0.62,0-0.99-0.4-0.99-1.05v-0.46h0.6c-0.43-0.37-0.59-0.7-0.59-1.13
							c0-0.65,0.38-1.05,0.99-1.05c0.28,0,0.51,0.08,0.68,0.23V32.1h0.99c0.27,0,0.5,0.08,0.67,0.22V32.1h1.06v0.23
							c0.17-0.18,0.42-0.28,0.72-0.28c0.28,0,0.52,0.09,0.69,0.25v-0.2h1.88V33.11z M26.09,33.99h0.62V33.7h-0.62V33.99z
							 M22.58,33.8v-0.29h-0.29C22.4,33.62,22.49,33.71,22.58,33.8z M22.29,33.52c0.11,0.1,0.2,0.19,0.29,0.29v-0.29H22.29z
							 M26.09,33.7v0.29h0.62V33.7H26.09z M26.09,33.7v0.29h0.62V33.7H26.09z M22.29,33.52c0.11,0.1,0.2,0.19,0.29,0.29v-0.29H22.29
							z M16.01,19.41v1.41h17.47v-1.41H16.01z M19.61,12.87c-0.12,0-0.16,0.02-0.23,0.13c-0.43,0.66-0.87,1.32-1.31,1.98
							s-0.88,1.32-1.31,1.98c-0.11,0.18-0.21,0.36-0.32,0.56h0.05c2.31,0,4.61,0.01,6.92,0.01l10.24,0.03
							c0.05,0,0.08-0.01,0.08-0.01c0-0.01,0.01-0.03,0.03-0.08c0.15-0.42,0.35-0.96,0.62-1.48c0.38-0.71,0.77-1.43,1.16-2.13
							c0.18-0.33,0.37-0.66,0.55-0.99C30.6,12.87,25.1,12.87,19.61,12.87z M19.9,10.35v0.64h16.79v-0.64H19.9z M40.01,34.37
							L40.01,34.37c-0.47-0.61-1.17-0.95-1.93-0.95c-1.36,0-2.46,1.1-2.46,2.46v1.78h4.91v-1.78
							C40.53,35.32,40.34,34.79,40.01,34.37z M40.01,34.37L40.01,34.37c-0.47-0.61-1.17-0.95-1.93-0.95c-1.36,0-2.46,1.1-2.46,2.46
							v1.78h4.91v-1.78C40.53,35.32,40.34,34.79,40.01,34.37z M22.29,33.52c0.11,0.1,0.2,0.19,0.29,0.29v-0.29H22.29z M26.09,33.7
							v0.29h0.62V33.7H26.09z M26.09,33.7v0.29h0.62V33.7H26.09z M22.58,33.8v-0.29h-0.29C22.4,33.62,22.49,33.71,22.58,33.8z
							 M28.65,29.06c-1.3-0.01-2.59-0.01-3.89-0.01s-2.59,0-3.89,0.01c-0.68,0-0.94,0.25-0.94,0.94v7.77
							c0.01,0.69,0.27,0.96,0.97,0.96h7.73c0.69,0,0.97-0.28,0.97-0.97v-7.73C29.61,29.32,29.34,29.06,28.65,29.06z M28.59,33.11
							h-0.82v0.22h0.65v1.02h-0.65v0.34h0.82v1.01h-1.88v-0.2c-0.17,0.16-0.41,0.25-0.69,0.25c-0.31,0-0.56-0.1-0.72-0.28v0.23
							h-1.06v-1.45c-0.16,0.13-0.36,0.21-0.61,0.22v1.23h-1.06v-0.2c-0.18,0.16-0.41,0.25-0.7,0.25c-0.62,0-0.99-0.4-0.99-1.05
							v-0.46h0.6c-0.43-0.37-0.59-0.7-0.59-1.13c0-0.65,0.38-1.05,0.99-1.05c0.28,0,0.51,0.08,0.68,0.23V32.1h0.99
							c0.27,0,0.5,0.08,0.67,0.22V32.1h1.06v0.23c0.17-0.18,0.42-0.28,0.72-0.28c0.28,0,0.52,0.09,0.69,0.25v-0.2h1.88V33.11z
							 M26.09,33.99h0.62V33.7h-0.62V33.99z M22.58,33.8v-0.29h-0.29C22.4,33.62,22.49,33.71,22.58,33.8z M22.29,33.52
							c0.11,0.1,0.2,0.19,0.29,0.29v-0.29H22.29z M26.09,33.7v0.29h0.62V33.7H26.09z M26.09,33.7v0.29h0.62V33.7H26.09z
							 M22.29,33.52c0.11,0.1,0.2,0.19,0.29,0.29v-0.29H22.29z M19.9,10.35v0.64h16.79v-0.64H19.9z M19.61,12.87
							c-0.12,0-0.16,0.02-0.23,0.13c-0.43,0.66-0.87,1.32-1.31,1.98s-0.88,1.32-1.31,1.98c-0.11,0.18-0.21,0.36-0.32,0.56h0.05
							c2.31,0,4.61,0.01,6.92,0.01l10.24,0.03c0.05,0,0.08-0.01,0.08-0.01c0-0.01,0.01-0.03,0.03-0.08
							c0.15-0.42,0.35-0.96,0.62-1.48c0.38-0.71,0.77-1.43,1.16-2.13c0.18-0.33,0.37-0.66,0.55-0.99
							C30.6,12.87,25.1,12.87,19.61,12.87z M16.01,19.41v1.41h17.47v-1.41H16.01z M22.29,33.52c0.11,0.1,0.2,0.19,0.29,0.29v-0.29
							H22.29z M26.09,33.7v0.29h0.62V33.7H26.09z M26.09,33.7v0.29h0.62V33.7H26.09z M22.58,33.8v-0.29h-0.29
							C22.4,33.62,22.49,33.71,22.58,33.8z M28.65,29.06c-1.3-0.01-2.59-0.01-3.89-0.01s-2.59,0-3.89,0.01
							c-0.68,0-0.94,0.25-0.94,0.94v7.77c0.01,0.69,0.27,0.96,0.97,0.96h7.73c0.69,0,0.97-0.28,0.97-0.97v-7.73
							C29.61,29.32,29.34,29.06,28.65,29.06z M28.59,33.11h-0.82v0.22h0.65v1.02h-0.65v0.34h0.82v1.01h-1.88v-0.2
							c-0.17,0.16-0.41,0.25-0.69,0.25c-0.31,0-0.56-0.1-0.72-0.28v0.23h-1.06v-1.45c-0.16,0.13-0.36,0.21-0.61,0.22v1.23h-1.06
							v-0.2c-0.18,0.16-0.41,0.25-0.7,0.25c-0.62,0-0.99-0.4-0.99-1.05v-0.46h0.6c-0.43-0.37-0.59-0.7-0.59-1.13
							c0-0.65,0.38-1.05,0.99-1.05c0.28,0,0.51,0.08,0.68,0.23V32.1h0.99c0.27,0,0.5,0.08,0.67,0.22V32.1h1.06v0.23
							c0.17-0.18,0.42-0.28,0.72-0.28c0.28,0,0.52,0.09,0.69,0.25v-0.2h1.88V33.11z M26.09,33.99h0.62V33.7h-0.62V33.99z
							 M22.58,33.8v-0.29h-0.29C22.4,33.62,22.49,33.71,22.58,33.8z M22.29,33.52c0.11,0.1,0.2,0.19,0.29,0.29v-0.29H22.29z
							 M26.09,33.7v0.29h0.62V33.7H26.09z M26.09,33.7v0.29h0.62V33.7H26.09z M22.29,33.52c0.11,0.1,0.2,0.19,0.29,0.29v-0.29H22.29
							z M16.01,19.41v1.41h17.47v-1.41H16.01z M19.61,12.87c-0.12,0-0.16,0.02-0.23,0.13c-0.43,0.66-0.87,1.32-1.31,1.98
							s-0.88,1.32-1.31,1.98c-0.11,0.18-0.21,0.36-0.32,0.56h0.05c2.31,0,4.61,0.01,6.92,0.01l10.24,0.03
							c0.05,0,0.08-0.01,0.08-0.01c0-0.01,0.01-0.03,0.03-0.08c0.15-0.42,0.35-0.96,0.62-1.48c0.38-0.71,0.77-1.43,1.16-2.13
							c0.18-0.33,0.37-0.66,0.55-0.99C30.6,12.87,25.1,12.87,19.61,12.87z M19.9,10.35v0.64h16.79v-0.64H19.9z M40.01,34.37
							L40.01,34.37c-0.47-0.61-1.17-0.95-1.93-0.95c-1.36,0-2.46,1.1-2.46,2.46v1.78h4.91v-1.78
							C40.53,35.32,40.34,34.79,40.01,34.37z M40.01,34.37L40.01,34.37c-0.47-0.61-1.17-0.95-1.93-0.95c-1.36,0-2.46,1.1-2.46,2.46
							v1.78h4.91v-1.78C40.53,35.32,40.34,34.79,40.01,34.37z M22.29,33.52c0.11,0.1,0.2,0.19,0.29,0.29v-0.29H22.29z M26.09,33.7
							v0.29h0.62V33.7H26.09z M26.09,33.7v0.29h0.62V33.7H26.09z M22.58,33.8v-0.29h-0.29C22.4,33.62,22.49,33.71,22.58,33.8z
							 M28.65,29.06c-1.3-0.01-2.59-0.01-3.89-0.01s-2.59,0-3.89,0.01c-0.68,0-0.94,0.25-0.94,0.94v7.77
							c0.01,0.69,0.27,0.96,0.97,0.96h7.73c0.69,0,0.97-0.28,0.97-0.97v-7.73C29.61,29.32,29.34,29.06,28.65,29.06z M28.59,33.11
							h-0.82v0.22h0.65v1.02h-0.65v0.34h0.82v1.01h-1.88v-0.2c-0.17,0.16-0.41,0.25-0.69,0.25c-0.31,0-0.56-0.1-0.72-0.28v0.23
							h-1.06v-1.45c-0.16,0.13-0.36,0.21-0.61,0.22v1.23h-1.06v-0.2c-0.18,0.16-0.41,0.25-0.7,0.25c-0.62,0-0.99-0.4-0.99-1.05
							v-0.46h0.6c-0.43-0.37-0.59-0.7-0.59-1.13c0-0.65,0.38-1.05,0.99-1.05c0.28,0,0.51,0.08,0.68,0.23V32.1h0.99
							c0.27,0,0.5,0.08,0.67,0.22V32.1h1.06v0.23c0.17-0.18,0.42-0.28,0.72-0.28c0.28,0,0.52,0.09,0.69,0.25v-0.2h1.88V33.11z
							 M26.09,33.99h0.62V33.7h-0.62V33.99z M22.58,33.8v-0.29h-0.29C22.4,33.62,22.49,33.71,22.58,33.8z M22.29,33.52
							c0.11,0.1,0.2,0.19,0.29,0.29v-0.29H22.29z M26.09,33.7v0.29h0.62V33.7H26.09z M26.09,33.7v0.29h0.62V33.7H26.09z
							 M22.29,33.52c0.11,0.1,0.2,0.19,0.29,0.29v-0.29H22.29z M19.9,10.35v0.64h16.79v-0.64H19.9z M19.61,12.87
							c-0.12,0-0.16,0.02-0.23,0.13c-0.43,0.66-0.87,1.32-1.31,1.98s-0.88,1.32-1.31,1.98c-0.11,0.18-0.21,0.36-0.32,0.56h0.05
							c2.31,0,4.61,0.01,6.92,0.01l10.24,0.03c0.05,0,0.08-0.01,0.08-0.01c0-0.01,0.01-0.03,0.03-0.08
							c0.15-0.42,0.35-0.96,0.62-1.48c0.38-0.71,0.77-1.43,1.16-2.13c0.18-0.33,0.37-0.66,0.55-0.99
							C30.6,12.87,25.1,12.87,19.61,12.87z M16.01,19.41v1.41h17.47v-1.41H16.01z M22.29,33.52c0.11,0.1,0.2,0.19,0.29,0.29v-0.29
							H22.29z M26.09,33.7v0.29h0.62V33.7H26.09z M26.09,33.7v0.29h0.62V33.7H26.09z M22.58,33.8v-0.29h-0.29
							C22.4,33.62,22.49,33.71,22.58,33.8z M28.65,29.06c-1.3-0.01-2.59-0.01-3.89-0.01s-2.59,0-3.89,0.01
							c-0.68,0-0.94,0.25-0.94,0.94v7.77c0.01,0.69,0.27,0.96,0.97,0.96h7.73c0.69,0,0.97-0.28,0.97-0.97v-7.73
							C29.61,29.32,29.34,29.06,28.65,29.06z M28.59,33.11h-0.82v0.22h0.65v1.02h-0.65v0.34h0.82v1.01h-1.88v-0.2
							c-0.17,0.16-0.41,0.25-0.69,0.25c-0.31,0-0.56-0.1-0.72-0.28v0.23h-1.06v-1.45c-0.16,0.13-0.36,0.21-0.61,0.22v1.23h-1.06
							v-0.2c-0.18,0.16-0.41,0.25-0.7,0.25c-0.62,0-0.99-0.4-0.99-1.05v-0.46h0.6c-0.43-0.37-0.59-0.7-0.59-1.13
							c0-0.65,0.38-1.05,0.99-1.05c0.28,0,0.51,0.08,0.68,0.23V32.1h0.99c0.27,0,0.5,0.08,0.67,0.22V32.1h1.06v0.23
							c0.17-0.18,0.42-0.28,0.72-0.28c0.28,0,0.52,0.09,0.69,0.25v-0.2h1.88V33.11z M26.09,33.99h0.62V33.7h-0.62V33.99z
							 M22.58,33.8v-0.29h-0.29C22.4,33.62,22.49,33.71,22.58,33.8z M22.29,33.52c0.11,0.1,0.2,0.19,0.29,0.29v-0.29H22.29z
							 M26.09,33.7v0.29h0.62V33.7H26.09z M26.09,33.7v0.29h0.62V33.7H26.09z M22.29,33.52c0.11,0.1,0.2,0.19,0.29,0.29v-0.29H22.29
							z M16.01,19.41v1.41h17.47v-1.41H16.01z M19.61,12.87c-0.12,0-0.16,0.02-0.23,0.13c-0.43,0.66-0.87,1.32-1.31,1.98
							s-0.88,1.32-1.31,1.98c-0.11,0.18-0.21,0.36-0.32,0.56h0.05c2.31,0,4.61,0.01,6.92,0.01l10.24,0.03
							c0.05,0,0.08-0.01,0.08-0.01c0-0.01,0.01-0.03,0.03-0.08c0.15-0.42,0.35-0.96,0.62-1.48c0.38-0.71,0.77-1.43,1.16-2.13
							c0.18-0.33,0.37-0.66,0.55-0.99C30.6,12.87,25.1,12.87,19.61,12.87z M19.9,10.35v0.64h16.79v-0.64H19.9z M40.01,34.37
							L40.01,34.37c-0.47-0.61-1.17-0.95-1.93-0.95c-1.36,0-2.46,1.1-2.46,2.46v1.78h4.91v-1.78
							C40.53,35.32,40.34,34.79,40.01,34.37z M40.01,34.37L40.01,34.37c-0.47-0.61-1.17-0.95-1.93-0.95c-1.36,0-2.46,1.1-2.46,2.46
							v1.78h4.91v-1.78C40.53,35.32,40.34,34.79,40.01,34.37z M22.29,33.52c0.11,0.1,0.2,0.19,0.29,0.29v-0.29H22.29z M26.09,33.7
							v0.29h0.62V33.7H26.09z M26.09,33.7v0.29h0.62V33.7H26.09z M22.58,33.8v-0.29h-0.29C22.4,33.62,22.49,33.71,22.58,33.8z
							 M28.65,29.06c-1.3-0.01-2.59-0.01-3.89-0.01s-2.59,0-3.89,0.01c-0.68,0-0.94,0.25-0.94,0.94v7.77
							c0.01,0.69,0.27,0.96,0.97,0.96h7.73c0.69,0,0.97-0.28,0.97-0.97v-7.73C29.61,29.32,29.34,29.06,28.65,29.06z M28.59,33.11
							h-0.82v0.22h0.65v1.02h-0.65v0.34h0.82v1.01h-1.88v-0.2c-0.17,0.16-0.41,0.25-0.69,0.25c-0.31,0-0.56-0.1-0.72-0.28v0.23
							h-1.06v-1.45c-0.16,0.13-0.36,0.21-0.61,0.22v1.23h-1.06v-0.2c-0.18,0.16-0.41,0.25-0.7,0.25c-0.62,0-0.99-0.4-0.99-1.05
							v-0.46h0.6c-0.43-0.37-0.59-0.7-0.59-1.13c0-0.65,0.38-1.05,0.99-1.05c0.28,0,0.51,0.08,0.68,0.23V32.1h0.99
							c0.27,0,0.5,0.08,0.67,0.22V32.1h1.06v0.23c0.17-0.18,0.42-0.28,0.72-0.28c0.28,0,0.52,0.09,0.69,0.25v-0.2h1.88V33.11z
							 M26.09,33.99h0.62V33.7h-0.62V33.99z M22.58,33.8v-0.29h-0.29C22.4,33.62,22.49,33.71,22.58,33.8z M22.29,33.52
							c0.11,0.1,0.2,0.19,0.29,0.29v-0.29H22.29z M26.09,33.7v0.29h0.62V33.7H26.09z M26.09,33.7v0.29h0.62V33.7H26.09z
							 M22.29,33.52c0.11,0.1,0.2,0.19,0.29,0.29v-0.29H22.29z M19.9,10.35v0.64h16.79v-0.64H19.9z M19.61,12.87
							c-0.12,0-0.16,0.02-0.23,0.13c-0.43,0.66-0.87,1.32-1.31,1.98s-0.88,1.32-1.31,1.98c-0.11,0.18-0.21,0.36-0.32,0.56h0.05
							c2.31,0,4.61,0.01,6.92,0.01l10.24,0.03c0.05,0,0.08-0.01,0.08-0.01c0-0.01,0.01-0.03,0.03-0.08
							c0.15-0.42,0.35-0.96,0.62-1.48c0.38-0.71,0.77-1.43,1.16-2.13c0.18-0.33,0.37-0.66,0.55-0.99
							C30.6,12.87,25.1,12.87,19.61,12.87z M16.01,19.41v1.41h17.47v-1.41H16.01z M22.29,33.52c0.11,0.1,0.2,0.19,0.29,0.29v-0.29
							H22.29z M26.09,33.7v0.29h0.62V33.7H26.09z M26.09,33.7v0.29h0.62V33.7H26.09z M22.58,33.8v-0.29h-0.29
							C22.4,33.62,22.49,33.71,22.58,33.8z M28.65,29.06c-1.3-0.01-2.59-0.01-3.89-0.01s-2.59,0-3.89,0.01
							c-0.68,0-0.94,0.25-0.94,0.94v7.77c0.01,0.69,0.27,0.96,0.97,0.96h7.73c0.69,0,0.97-0.28,0.97-0.97v-7.73
							C29.61,29.32,29.34,29.06,28.65,29.06z M28.59,33.11h-0.82v0.22h0.65v1.02h-0.65v0.34h0.82v1.01h-1.88v-0.2
							c-0.17,0.16-0.41,0.25-0.69,0.25c-0.31,0-0.56-0.1-0.72-0.28v0.23h-1.06v-1.45c-0.16,0.13-0.36,0.21-0.61,0.22v1.23h-1.06
							v-0.2c-0.18,0.16-0.41,0.25-0.7,0.25c-0.62,0-0.99-0.4-0.99-1.05v-0.46h0.6c-0.43-0.37-0.59-0.7-0.59-1.13
							c0-0.65,0.38-1.05,0.99-1.05c0.28,0,0.51,0.08,0.68,0.23V32.1h0.99c0.27,0,0.5,0.08,0.67,0.22V32.1h1.06v0.23
							c0.17-0.18,0.42-0.28,0.72-0.28c0.28,0,0.52,0.09,0.69,0.25v-0.2h1.88V33.11z M26.09,33.99h0.62V33.7h-0.62V33.99z
							 M22.58,33.8v-0.29h-0.29C22.4,33.62,22.49,33.71,22.58,33.8z M22.29,33.52c0.11,0.1,0.2,0.19,0.29,0.29v-0.29H22.29z
							 M26.09,33.7v0.29h0.62V33.7H26.09z M26.09,33.7v0.29h0.62V33.7H26.09z M22.29,33.52c0.11,0.1,0.2,0.19,0.29,0.29v-0.29H22.29
							z M16.01,19.41v1.41h17.47v-1.41H16.01z M19.61,12.87c-0.12,0-0.16,0.02-0.23,0.13c-0.43,0.66-0.87,1.32-1.31,1.98
							s-0.88,1.32-1.31,1.98c-0.11,0.18-0.21,0.36-0.32,0.56h0.05c2.31,0,4.61,0.01,6.92,0.01l10.24,0.03
							c0.05,0,0.08-0.01,0.08-0.01c0-0.01,0.01-0.03,0.03-0.08c0.15-0.42,0.35-0.96,0.62-1.48c0.38-0.71,0.77-1.43,1.16-2.13
							c0.18-0.33,0.37-0.66,0.55-0.99C30.6,12.87,25.1,12.87,19.61,12.87z M19.9,10.35v0.64h16.79v-0.64H19.9z M40.01,34.37
							L40.01,34.37c-0.47-0.61-1.17-0.95-1.93-0.95c-1.36,0-2.46,1.1-2.46,2.46v1.78h4.91v-1.78
							C40.53,35.32,40.34,34.79,40.01,34.37z M40.01,34.37L40.01,34.37c-0.47-0.61-1.17-0.95-1.93-0.95c-1.36,0-2.46,1.1-2.46,2.46
							v1.78h4.91v-1.78C40.53,35.32,40.34,34.79,40.01,34.37z M22.29,33.52c0.11,0.1,0.2,0.19,0.29,0.29v-0.29H22.29z M26.09,33.7
							v0.29h0.62V33.7H26.09z M26.09,33.7v0.29h0.62V33.7H26.09z M22.58,33.8v-0.29h-0.29C22.4,33.62,22.49,33.71,22.58,33.8z
							 M28.65,29.06c-1.3-0.01-2.59-0.01-3.89-0.01s-2.59,0-3.89,0.01c-0.68,0-0.94,0.25-0.94,0.94v7.77
							c0.01,0.69,0.27,0.96,0.97,0.96h7.73c0.69,0,0.97-0.28,0.97-0.97v-7.73C29.61,29.32,29.34,29.06,28.65,29.06z M28.59,33.11
							h-0.82v0.22h0.65v1.02h-0.65v0.34h0.82v1.01h-1.88v-0.2c-0.17,0.16-0.41,0.25-0.69,0.25c-0.31,0-0.56-0.1-0.72-0.28v0.23
							h-1.06v-1.45c-0.16,0.13-0.36,0.21-0.61,0.22v1.23h-1.06v-0.2c-0.18,0.16-0.41,0.25-0.7,0.25c-0.62,0-0.99-0.4-0.99-1.05
							v-0.46h0.6c-0.43-0.37-0.59-0.7-0.59-1.13c0-0.65,0.38-1.05,0.99-1.05c0.28,0,0.51,0.08,0.68,0.23V32.1h0.99
							c0.27,0,0.5,0.08,0.67,0.22V32.1h1.06v0.23c0.17-0.18,0.42-0.28,0.72-0.28c0.28,0,0.52,0.09,0.69,0.25v-0.2h1.88V33.11z
							 M26.09,33.99h0.62V33.7h-0.62V33.99z M22.58,33.8v-0.29h-0.29C22.4,33.62,22.49,33.71,22.58,33.8z M22.29,33.52
							c0.11,0.1,0.2,0.19,0.29,0.29v-0.29H22.29z M26.09,33.7v0.29h0.62V33.7H26.09z M26.09,33.7v0.29h0.62V33.7H26.09z
							 M22.29,33.52c0.11,0.1,0.2,0.19,0.29,0.29v-0.29H22.29z M19.9,10.35v0.64h16.79v-0.64H19.9z M19.61,12.87
							c-0.12,0-0.16,0.02-0.23,0.13c-0.43,0.66-0.87,1.32-1.31,1.98s-0.88,1.32-1.31,1.98c-0.11,0.18-0.21,0.36-0.32,0.56h0.05
							c2.31,0,4.61,0.01,6.92,0.01l10.24,0.03c0.05,0,0.08-0.01,0.08-0.01c0-0.01,0.01-0.03,0.03-0.08
							c0.15-0.42,0.35-0.96,0.62-1.48c0.38-0.71,0.77-1.43,1.16-2.13c0.18-0.33,0.37-0.66,0.55-0.99
							C30.6,12.87,25.1,12.87,19.61,12.87z M16.01,19.41v1.41h17.47v-1.41H16.01z M22.29,33.52c0.11,0.1,0.2,0.19,0.29,0.29v-0.29
							H22.29z M26.09,33.7v0.29h0.62V33.7H26.09z M26.09,33.7v0.29h0.62V33.7H26.09z M22.58,33.8v-0.29h-0.29
							C22.4,33.62,22.49,33.71,22.58,33.8z M28.65,29.06c-1.3-0.01-2.59-0.01-3.89-0.01s-2.59,0-3.89,0.01
							c-0.68,0-0.94,0.25-0.94,0.94v7.77c0.01,0.69,0.27,0.96,0.97,0.96h7.73c0.69,0,0.97-0.28,0.97-0.97v-7.73
							C29.61,29.32,29.34,29.06,28.65,29.06z M28.59,33.11h-0.82v0.22h0.65v1.02h-0.65v0.34h0.82v1.01h-1.88v-0.2
							c-0.17,0.16-0.41,0.25-0.69,0.25c-0.31,0-0.56-0.1-0.72-0.28v0.23h-1.06v-1.45c-0.16,0.13-0.36,0.21-0.61,0.22v1.23h-1.06
							v-0.2c-0.18,0.16-0.41,0.25-0.7,0.25c-0.62,0-0.99-0.4-0.99-1.05v-0.46h0.6c-0.43-0.37-0.59-0.7-0.59-1.13
							c0-0.65,0.38-1.05,0.99-1.05c0.28,0,0.51,0.08,0.68,0.23V32.1h0.99c0.27,0,0.5,0.08,0.67,0.22V32.1h1.06v0.23
							c0.17-0.18,0.42-0.28,0.72-0.28c0.28,0,0.52,0.09,0.69,0.25v-0.2h1.88V33.11z M26.09,33.99h0.62V33.7h-0.62V33.99z
							 M22.58,33.8v-0.29h-0.29C22.4,33.62,22.49,33.71,22.58,33.8z M22.29,33.52c0.11,0.1,0.2,0.19,0.29,0.29v-0.29H22.29z
							 M26.09,33.7v0.29h0.62V33.7H26.09z M26.09,33.7v0.29h0.62V33.7H26.09z M22.29,33.52c0.11,0.1,0.2,0.19,0.29,0.29v-0.29H22.29
							z M16.01,19.41v1.41h17.47v-1.41H16.01z M19.61,12.87c-0.12,0-0.16,0.02-0.23,0.13c-0.43,0.66-0.87,1.32-1.31,1.98
							s-0.88,1.32-1.31,1.98c-0.11,0.18-0.21,0.36-0.32,0.56h0.05c2.31,0,4.61,0.01,6.92,0.01l10.24,0.03
							c0.05,0,0.08-0.01,0.08-0.01c0-0.01,0.01-0.03,0.03-0.08c0.15-0.42,0.35-0.96,0.62-1.48c0.38-0.71,0.77-1.43,1.16-2.13
							c0.18-0.33,0.37-0.66,0.55-0.99C30.6,12.87,25.1,12.87,19.61,12.87z M19.9,10.35v0.64h16.79v-0.64H19.9z M40.01,34.37
							L40.01,34.37c-0.47-0.61-1.17-0.95-1.93-0.95c-1.36,0-2.46,1.1-2.46,2.46v1.78h4.91v-1.78
							C40.53,35.32,40.34,34.79,40.01,34.37z M16.01,19.41v1.41h17.47v-1.41H16.01z M19.61,12.87c-0.12,0-0.16,0.02-0.23,0.13
							c-0.43,0.66-0.87,1.32-1.31,1.98s-0.88,1.32-1.31,1.98c-0.11,0.18-0.21,0.36-0.32,0.56h0.05c2.31,0,4.61,0.01,6.92,0.01
							l10.24,0.03c0.05,0,0.08-0.01,0.08-0.01c0-0.01,0.01-0.03,0.03-0.08c0.15-0.42,0.35-0.96,0.62-1.48
							c0.38-0.71,0.77-1.43,1.16-2.13c0.18-0.33,0.37-0.66,0.55-0.99C30.6,12.87,25.1,12.87,19.61,12.87z M19.9,10.35v0.64h16.79
							v-0.64H19.9z M22.29,33.52c0.11,0.1,0.2,0.19,0.29,0.29v-0.29H22.29z M26.09,33.7v0.29h0.62V33.7H26.09z M26.09,33.7v0.29
							h0.62V33.7H26.09z M22.58,33.8v-0.29h-0.29C22.4,33.62,22.49,33.71,22.58,33.8z M28.65,29.06c-1.3-0.01-2.59-0.01-3.89-0.01
							s-2.59,0-3.89,0.01c-0.68,0-0.94,0.25-0.94,0.94v7.77c0.01,0.69,0.27,0.96,0.97,0.96h7.73c0.69,0,0.97-0.28,0.97-0.97v-7.73
							C29.61,29.32,29.34,29.06,28.65,29.06z M28.59,33.11h-0.82v0.22h0.65v1.02h-0.65v0.34h0.82v1.01h-1.88v-0.2
							c-0.17,0.16-0.41,0.25-0.69,0.25c-0.31,0-0.56-0.1-0.72-0.28v0.23h-1.06v-1.45c-0.16,0.13-0.36,0.21-0.61,0.22v1.23h-1.06
							v-0.2c-0.18,0.16-0.41,0.25-0.7,0.25c-0.62,0-0.99-0.4-0.99-1.05v-0.46h0.6c-0.43-0.37-0.59-0.7-0.59-1.13
							c0-0.65,0.38-1.05,0.99-1.05c0.28,0,0.51,0.08,0.68,0.23V32.1h0.99c0.27,0,0.5,0.08,0.67,0.22V32.1h1.06v0.23
							c0.17-0.18,0.42-0.28,0.72-0.28c0.28,0,0.52,0.09,0.69,0.25v-0.2h1.88V33.11z M26.09,33.99h0.62V33.7h-0.62V33.99z
							 M22.58,33.8v-0.29h-0.29C22.4,33.62,22.49,33.71,22.58,33.8z M22.29,33.52c0.11,0.1,0.2,0.19,0.29,0.29v-0.29H22.29z
							 M26.09,33.7v0.29h0.62V33.7H26.09z M26.09,33.7v0.29h0.62V33.7H26.09z M22.29,33.52c0.11,0.1,0.2,0.19,0.29,0.29v-0.29H22.29
							z M40.01,34.37L40.01,34.37c-0.47-0.61-1.17-0.95-1.93-0.95c-1.36,0-2.46,1.1-2.46,2.46v1.78h4.91v-1.78
							C40.53,35.32,40.34,34.79,40.01,34.37z M40.01,34.37L40.01,34.37c-0.47-0.61-1.17-0.95-1.93-0.95c-1.36,0-2.46,1.1-2.46,2.46
							v1.78h4.91v-1.78C40.53,35.32,40.34,34.79,40.01,34.37z M19.9,10.35v0.64h16.79v-0.64H19.9z M19.61,12.87
							c-0.12,0-0.16,0.02-0.23,0.13c-0.43,0.66-0.87,1.32-1.31,1.98s-0.88,1.32-1.31,1.98c-0.11,0.18-0.21,0.36-0.32,0.56h0.05
							c2.31,0,4.61,0.01,6.92,0.01l10.24,0.03c0.05,0,0.08-0.01,0.08-0.01c0-0.01,0.01-0.03,0.03-0.08
							c0.15-0.42,0.35-0.96,0.62-1.48c0.38-0.71,0.77-1.43,1.16-2.13c0.18-0.33,0.37-0.66,0.55-0.99
							C30.6,12.87,25.1,12.87,19.61,12.87z M16.01,19.41v1.41h17.47v-1.41H16.01z M22.29,33.52c0.11,0.1,0.2,0.19,0.29,0.29v-0.29
							H22.29z M26.09,33.7v0.29h0.62V33.7H26.09z M26.09,33.7v0.29h0.62V33.7H26.09z M22.58,33.8v-0.29h-0.29
							C22.4,33.62,22.49,33.71,22.58,33.8z M28.65,29.06c-1.3-0.01-2.59-0.01-3.89-0.01s-2.59,0-3.89,0.01
							c-0.68,0-0.94,0.25-0.94,0.94v7.77c0.01,0.69,0.27,0.96,0.97,0.96h7.73c0.69,0,0.97-0.28,0.97-0.97v-7.73
							C29.61,29.32,29.34,29.06,28.65,29.06z M28.59,33.11h-0.82v0.22h0.65v1.02h-0.65v0.34h0.82v1.01h-1.88v-0.2
							c-0.17,0.16-0.41,0.25-0.69,0.25c-0.31,0-0.56-0.1-0.72-0.28v0.23h-1.06v-1.45c-0.16,0.13-0.36,0.21-0.61,0.22v1.23h-1.06
							v-0.2c-0.18,0.16-0.41,0.25-0.7,0.25c-0.62,0-0.99-0.4-0.99-1.05v-0.46h0.6c-0.43-0.37-0.59-0.7-0.59-1.13
							c0-0.65,0.38-1.05,0.99-1.05c0.28,0,0.51,0.08,0.68,0.23V32.1h0.99c0.27,0,0.5,0.08,0.67,0.22V32.1h1.06v0.23
							c0.17-0.18,0.42-0.28,0.72-0.28c0.28,0,0.52,0.09,0.69,0.25v-0.2h1.88V33.11z M26.09,33.99h0.62V33.7h-0.62V33.99z
							 M22.58,33.8v-0.29h-0.29C22.4,33.62,22.49,33.71,22.58,33.8z M22.29,33.52c0.11,0.1,0.2,0.19,0.29,0.29v-0.29H22.29z
							 M26.09,33.7v0.29h0.62V33.7H26.09z M26.09,33.7v0.29h0.62V33.7H26.09z M22.29,33.52c0.11,0.1,0.2,0.19,0.29,0.29v-0.29H22.29
							z M16.01,19.41v1.41h17.47v-1.41H16.01z M19.61,12.87c-0.12,0-0.16,0.02-0.23,0.13c-0.43,0.66-0.87,1.32-1.31,1.98
							s-0.88,1.32-1.31,1.98c-0.11,0.18-0.21,0.36-0.32,0.56h0.05c2.31,0,4.61,0.01,6.92,0.01l10.24,0.03
							c0.05,0,0.08-0.01,0.08-0.01c0-0.01,0.01-0.03,0.03-0.08c0.15-0.42,0.35-0.96,0.62-1.48c0.38-0.71,0.77-1.43,1.16-2.13
							c0.18-0.33,0.37-0.66,0.55-0.99C30.6,12.87,25.1,12.87,19.61,12.87z M19.9,10.35v0.64h16.79v-0.64H19.9z M22.29,33.52
							c0.11,0.1,0.2,0.19,0.29,0.29v-0.29H22.29z M26.09,33.7v0.29h0.62V33.7H26.09z M26.09,33.7v0.29h0.62V33.7H26.09z M22.58,33.8
							v-0.29h-0.29C22.4,33.62,22.49,33.71,22.58,33.8z M28.65,29.06c-1.3-0.01-2.59-0.01-3.89-0.01s-2.59,0-3.89,0.01
							c-0.68,0-0.94,0.25-0.94,0.94v7.77c0.01,0.69,0.27,0.96,0.97,0.96h7.73c0.69,0,0.97-0.28,0.97-0.97v-7.73
							C29.61,29.32,29.34,29.06,28.65,29.06z M28.59,33.11h-0.82v0.22h0.65v1.02h-0.65v0.34h0.82v1.01h-1.88v-0.2
							c-0.17,0.16-0.41,0.25-0.69,0.25c-0.31,0-0.56-0.1-0.72-0.28v0.23h-1.06v-1.45c-0.16,0.13-0.36,0.21-0.61,0.22v1.23h-1.06
							v-0.2c-0.18,0.16-0.41,0.25-0.7,0.25c-0.62,0-0.99-0.4-0.99-1.05v-0.46h0.6c-0.43-0.37-0.59-0.7-0.59-1.13
							c0-0.65,0.38-1.05,0.99-1.05c0.28,0,0.51,0.08,0.68,0.23V32.1h0.99c0.27,0,0.5,0.08,0.67,0.22V32.1h1.06v0.23
							c0.17-0.18,0.42-0.28,0.72-0.28c0.28,0,0.52,0.09,0.69,0.25v-0.2h1.88V33.11z M26.09,33.99h0.62V33.7h-0.62V33.99z
							 M22.58,33.8v-0.29h-0.29C22.4,33.62,22.49,33.71,22.58,33.8z M22.29,33.52c0.11,0.1,0.2,0.19,0.29,0.29v-0.29H22.29z
							 M26.09,33.7v0.29h0.62V33.7H26.09z M26.09,33.7v0.29h0.62V33.7H26.09z M22.29,33.52c0.11,0.1,0.2,0.19,0.29,0.29v-0.29H22.29
							z M40.01,34.37L40.01,34.37c-0.47-0.61-1.17-0.95-1.93-0.95c-1.36,0-2.46,1.1-2.46,2.46v1.78h4.91v-1.78
							C40.53,35.32,40.34,34.79,40.01,34.37z M40.01,34.37L40.01,34.37c-0.47-0.61-1.17-0.95-1.93-0.95c-1.36,0-2.46,1.1-2.46,2.46
							v1.78h4.91v-1.78C40.53,35.32,40.34,34.79,40.01,34.37z M19.9,10.35v0.64h16.79v-0.64H19.9z M19.61,12.87
							c-0.12,0-0.16,0.02-0.23,0.13c-0.43,0.66-0.87,1.32-1.31,1.98s-0.88,1.32-1.31,1.98c-0.11,0.18-0.21,0.36-0.32,0.56h0.05
							c2.31,0,4.61,0.01,6.92,0.01l10.24,0.03c0.05,0,0.08-0.01,0.08-0.01c0-0.01,0.01-0.03,0.03-0.08
							c0.15-0.42,0.35-0.96,0.62-1.48c0.38-0.71,0.77-1.43,1.16-2.13c0.18-0.33,0.37-0.66,0.55-0.99
							C30.6,12.87,25.1,12.87,19.61,12.87z M16.01,19.41v1.41h17.47v-1.41H16.01z M22.29,33.52c0.11,0.1,0.2,0.19,0.29,0.29v-0.29
							H22.29z M26.09,33.7v0.29h0.62V33.7H26.09z M26.09,33.7v0.29h0.62V33.7H26.09z M22.58,33.8v-0.29h-0.29
							C22.4,33.62,22.49,33.71,22.58,33.8z M28.65,29.06c-1.3-0.01-2.59-0.01-3.89-0.01s-2.59,0-3.89,0.01
							c-0.68,0-0.94,0.25-0.94,0.94v7.77c0.01,0.69,0.27,0.96,0.97,0.96h7.73c0.69,0,0.97-0.28,0.97-0.97v-7.73
							C29.61,29.32,29.34,29.06,28.65,29.06z M28.59,33.11h-0.82v0.22h0.65v1.02h-0.65v0.34h0.82v1.01h-1.88v-0.2
							c-0.17,0.16-0.41,0.25-0.69,0.25c-0.31,0-0.56-0.1-0.72-0.28v0.23h-1.06v-1.45c-0.16,0.13-0.36,0.21-0.61,0.22v1.23h-1.06
							v-0.2c-0.18,0.16-0.41,0.25-0.7,0.25c-0.62,0-0.99-0.4-0.99-1.05v-0.46h0.6c-0.43-0.37-0.59-0.7-0.59-1.13
							c0-0.65,0.38-1.05,0.99-1.05c0.28,0,0.51,0.08,0.68,0.23V32.1h0.99c0.27,0,0.5,0.08,0.67,0.22V32.1h1.06v0.23
							c0.17-0.18,0.42-0.28,0.72-0.28c0.28,0,0.52,0.09,0.69,0.25v-0.2h1.88V33.11z M26.09,33.99h0.62V33.7h-0.62V33.99z
							 M22.58,33.8v-0.29h-0.29C22.4,33.62,22.49,33.71,22.58,33.8z M22.29,33.52c0.11,0.1,0.2,0.19,0.29,0.29v-0.29H22.29z
							 M26.09,33.7v0.29h0.62V33.7H26.09z M26.09,33.7v0.29h0.62V33.7H26.09z M22.29,33.52c0.11,0.1,0.2,0.19,0.29,0.29v-0.29H22.29
							z M16.01,19.41v1.41h17.47v-1.41H16.01z M19.61,12.87c-0.12,0-0.16,0.02-0.23,0.13c-0.43,0.66-0.87,1.32-1.31,1.98
							s-0.88,1.32-1.31,1.98c-0.11,0.18-0.21,0.36-0.32,0.56h0.05c2.31,0,4.61,0.01,6.92,0.01l10.24,0.03
							c0.05,0,0.08-0.01,0.08-0.01c0-0.01,0.01-0.03,0.03-0.08c0.15-0.42,0.35-0.96,0.62-1.48c0.38-0.71,0.77-1.43,1.16-2.13
							c0.18-0.33,0.37-0.66,0.55-0.99C30.6,12.87,25.1,12.87,19.61,12.87z M19.9,10.35v0.64h16.79v-0.64H19.9z M22.29,33.52
							c0.11,0.1,0.2,0.19,0.29,0.29v-0.29H22.29z M26.09,33.7v0.29h0.62V33.7H26.09z M26.09,33.7v0.29h0.62V33.7H26.09z M22.58,33.8
							v-0.29h-0.29C22.4,33.62,22.49,33.71,22.58,33.8z M28.65,29.06c-1.3-0.01-2.59-0.01-3.89-0.01s-2.59,0-3.89,0.01
							c-0.68,0-0.94,0.25-0.94,0.94v7.77c0.01,0.69,0.27,0.96,0.97,0.96h7.73c0.69,0,0.97-0.28,0.97-0.97v-7.73
							C29.61,29.32,29.34,29.06,28.65,29.06z M28.59,33.11h-0.82v0.22h0.65v1.02h-0.65v0.34h0.82v1.01h-1.88v-0.2
							c-0.17,0.16-0.41,0.25-0.69,0.25c-0.31,0-0.56-0.1-0.72-0.28v0.23h-1.06v-1.45c-0.16,0.13-0.36,0.21-0.61,0.22v1.23h-1.06
							v-0.2c-0.18,0.16-0.41,0.25-0.7,0.25c-0.62,0-0.99-0.4-0.99-1.05v-0.46h0.6c-0.43-0.37-0.59-0.7-0.59-1.13
							c0-0.65,0.38-1.05,0.99-1.05c0.28,0,0.51,0.08,0.68,0.23V32.1h0.99c0.27,0,0.5,0.08,0.67,0.22V32.1h1.06v0.23
							c0.17-0.18,0.42-0.28,0.72-0.28c0.28,0,0.52,0.09,0.69,0.25v-0.2h1.88V33.11z M26.09,33.99h0.62V33.7h-0.62V33.99z
							 M22.58,33.8v-0.29h-0.29C22.4,33.62,22.49,33.71,22.58,33.8z M22.29,33.52c0.11,0.1,0.2,0.19,0.29,0.29v-0.29H22.29z
							 M26.09,33.7v0.29h0.62V33.7H26.09z M26.09,33.7v0.29h0.62V33.7H26.09z M22.29,33.52c0.11,0.1,0.2,0.19,0.29,0.29v-0.29H22.29
							z M40.01,34.37L40.01,34.37c-0.47-0.61-1.17-0.95-1.93-0.95c-1.36,0-2.46,1.1-2.46,2.46v1.78h4.91v-1.78
							C40.53,35.32,40.34,34.79,40.01,34.37z M40.01,34.37L40.01,34.37c-0.47-0.61-1.17-0.95-1.93-0.95c-1.36,0-2.46,1.1-2.46,2.46
							v1.78h4.91v-1.78C40.53,35.32,40.34,34.79,40.01,34.37z M19.9,10.35v0.64h16.79v-0.64H19.9z M19.61,12.87
							c-0.12,0-0.16,0.02-0.23,0.13c-0.43,0.66-0.87,1.32-1.31,1.98s-0.88,1.32-1.31,1.98c-0.11,0.18-0.21,0.36-0.32,0.56h0.05
							c2.31,0,4.61,0.01,6.92,0.01l10.24,0.03c0.05,0,0.08-0.01,0.08-0.01c0-0.01,0.01-0.03,0.03-0.08
							c0.15-0.42,0.35-0.96,0.62-1.48c0.38-0.71,0.77-1.43,1.16-2.13c0.18-0.33,0.37-0.66,0.55-0.99
							C30.6,12.87,25.1,12.87,19.61,12.87z M16.01,19.41v1.41h17.47v-1.41H16.01z M22.29,33.52c0.11,0.1,0.2,0.19,0.29,0.29v-0.29
							H22.29z M26.09,33.7v0.29h0.62V33.7H26.09z M26.09,33.7v0.29h0.62V33.7H26.09z M22.58,33.8v-0.29h-0.29
							C22.4,33.62,22.49,33.71,22.58,33.8z M28.65,29.06c-1.3-0.01-2.59-0.01-3.89-0.01s-2.59,0-3.89,0.01
							c-0.68,0-0.94,0.25-0.94,0.94v7.77c0.01,0.69,0.27,0.96,0.97,0.96h7.73c0.69,0,0.97-0.28,0.97-0.97v-7.73
							C29.61,29.32,29.34,29.06,28.65,29.06z M28.59,33.11h-0.82v0.22h0.65v1.02h-0.65v0.34h0.82v1.01h-1.88v-0.2
							c-0.17,0.16-0.41,0.25-0.69,0.25c-0.31,0-0.56-0.1-0.72-0.28v0.23h-1.06v-1.45c-0.16,0.13-0.36,0.21-0.61,0.22v1.23h-1.06
							v-0.2c-0.18,0.16-0.41,0.25-0.7,0.25c-0.62,0-0.99-0.4-0.99-1.05v-0.46h0.6c-0.43-0.37-0.59-0.7-0.59-1.13
							c0-0.65,0.38-1.05,0.99-1.05c0.28,0,0.51,0.08,0.68,0.23V32.1h0.99c0.27,0,0.5,0.08,0.67,0.22V32.1h1.06v0.23
							c0.17-0.18,0.42-0.28,0.72-0.28c0.28,0,0.52,0.09,0.69,0.25v-0.2h1.88V33.11z M26.09,33.99h0.62V33.7h-0.62V33.99z
							 M22.58,33.8v-0.29h-0.29C22.4,33.62,22.49,33.71,22.58,33.8z M22.29,33.52c0.11,0.1,0.2,0.19,0.29,0.29v-0.29H22.29z
							 M26.09,33.7v0.29h0.62V33.7H26.09z M26.09,33.7v0.29h0.62V33.7H26.09z M22.29,33.52c0.11,0.1,0.2,0.19,0.29,0.29v-0.29H22.29
							z M16.01,19.41v1.41h17.47v-1.41H16.01z M19.61,12.87c-0.12,0-0.16,0.02-0.23,0.13c-0.43,0.66-0.87,1.32-1.31,1.98
							s-0.88,1.32-1.31,1.98c-0.11,0.18-0.21,0.36-0.32,0.56h0.05c2.31,0,4.61,0.01,6.92,0.01l10.24,0.03
							c0.05,0,0.08-0.01,0.08-0.01c0-0.01,0.01-0.03,0.03-0.08c0.15-0.42,0.35-0.96,0.62-1.48c0.38-0.71,0.77-1.43,1.16-2.13
							c0.18-0.33,0.37-0.66,0.55-0.99C30.6,12.87,25.1,12.87,19.61,12.87z M19.9,10.35v0.64h16.79v-0.64H19.9z M22.29,33.52
							c0.11,0.1,0.2,0.19,0.29,0.29v-0.29H22.29z M26.09,33.7v0.29h0.62V33.7H26.09z M26.09,33.7v0.29h0.62V33.7H26.09z M22.58,33.8
							v-0.29h-0.29C22.4,33.62,22.49,33.71,22.58,33.8z M28.65,29.06c-1.3-0.01-2.59-0.01-3.89-0.01s-2.59,0-3.89,0.01
							c-0.68,0-0.94,0.25-0.94,0.94v7.77c0.01,0.69,0.27,0.96,0.97,0.96h7.73c0.69,0,0.97-0.28,0.97-0.97v-7.73
							C29.61,29.32,29.34,29.06,28.65,29.06z M28.59,33.11h-0.82v0.22h0.65v1.02h-0.65v0.34h0.82v1.01h-1.88v-0.2
							c-0.17,0.16-0.41,0.25-0.69,0.25c-0.31,0-0.56-0.1-0.72-0.28v0.23h-1.06v-1.45c-0.16,0.13-0.36,0.21-0.61,0.22v1.23h-1.06
							v-0.2c-0.18,0.16-0.41,0.25-0.7,0.25c-0.62,0-0.99-0.4-0.99-1.05v-0.46h0.6c-0.43-0.37-0.59-0.7-0.59-1.13
							c0-0.65,0.38-1.05,0.99-1.05c0.28,0,0.51,0.08,0.68,0.23V32.1h0.99c0.27,0,0.5,0.08,0.67,0.22V32.1h1.06v0.23
							c0.17-0.18,0.42-0.28,0.72-0.28c0.28,0,0.52,0.09,0.69,0.25v-0.2h1.88V33.11z M26.09,33.99h0.62V33.7h-0.62V33.99z
							 M22.58,33.8v-0.29h-0.29C22.4,33.62,22.49,33.71,22.58,33.8z M22.29,33.52c0.11,0.1,0.2,0.19,0.29,0.29v-0.29H22.29z
							 M26.09,33.7v0.29h0.62V33.7H26.09z M26.09,33.7v0.29h0.62V33.7H26.09z M22.29,33.52c0.11,0.1,0.2,0.19,0.29,0.29v-0.29H22.29
							z M40.01,34.37L40.01,34.37c-0.47-0.61-1.17-0.95-1.93-0.95c-1.36,0-2.46,1.1-2.46,2.46v1.78h4.91v-1.78
							C40.53,35.32,40.34,34.79,40.01,34.37z M40.01,34.37L40.01,34.37c-0.47-0.61-1.17-0.95-1.93-0.95c-1.36,0-2.46,1.1-2.46,2.46
							v1.78h4.91v-1.78C40.53,35.32,40.34,34.79,40.01,34.37z M19.9,10.35v0.64h16.79v-0.64H19.9z M19.61,12.87
							c-0.12,0-0.16,0.02-0.23,0.13c-0.43,0.66-0.87,1.32-1.31,1.98s-0.88,1.32-1.31,1.98c-0.11,0.18-0.21,0.36-0.32,0.56h0.05
							c2.31,0,4.61,0.01,6.92,0.01l10.24,0.03c0.05,0,0.08-0.01,0.08-0.01c0-0.01,0.01-0.03,0.03-0.08
							c0.15-0.42,0.35-0.96,0.62-1.48c0.38-0.71,0.77-1.43,1.16-2.13c0.18-0.33,0.37-0.66,0.55-0.99
							C30.6,12.87,25.1,12.87,19.61,12.87z M16.01,19.41v1.41h17.47v-1.41H16.01z M22.29,33.52c0.11,0.1,0.2,0.19,0.29,0.29v-0.29
							H22.29z M26.09,33.7v0.29h0.62V33.7H26.09z M26.09,33.7v0.29h0.62V33.7H26.09z M22.58,33.8v-0.29h-0.29
							C22.4,33.62,22.49,33.71,22.58,33.8z M28.65,29.06c-1.3-0.01-2.59-0.01-3.89-0.01s-2.59,0-3.89,0.01
							c-0.68,0-0.94,0.25-0.94,0.94v7.77c0.01,0.69,0.27,0.96,0.97,0.96h7.73c0.69,0,0.97-0.28,0.97-0.97v-7.73
							C29.61,29.32,29.34,29.06,28.65,29.06z M28.59,33.11h-0.82v0.22h0.65v1.02h-0.65v0.34h0.82v1.01h-1.88v-0.2
							c-0.17,0.16-0.41,0.25-0.69,0.25c-0.31,0-0.56-0.1-0.72-0.28v0.23h-1.06v-1.45c-0.16,0.13-0.36,0.21-0.61,0.22v1.23h-1.06
							v-0.2c-0.18,0.16-0.41,0.25-0.7,0.25c-0.62,0-0.99-0.4-0.99-1.05v-0.46h0.6c-0.43-0.37-0.59-0.7-0.59-1.13
							c0-0.65,0.38-1.05,0.99-1.05c0.28,0,0.51,0.08,0.68,0.23V32.1h0.99c0.27,0,0.5,0.08,0.67,0.22V32.1h1.06v0.23
							c0.17-0.18,0.42-0.28,0.72-0.28c0.28,0,0.52,0.09,0.69,0.25v-0.2h1.88V33.11z M26.09,33.99h0.62V33.7h-0.62V33.99z
							 M22.58,33.8v-0.29h-0.29C22.4,33.62,22.49,33.71,22.58,33.8z M22.29,33.52c0.11,0.1,0.2,0.19,0.29,0.29v-0.29H22.29z
							 M26.09,33.7v0.29h0.62V33.7H26.09z M26.09,33.7v0.29h0.62V33.7H26.09z M22.29,33.52c0.11,0.1,0.2,0.19,0.29,0.29v-0.29H22.29
							z M16.01,19.41v1.41h17.47v-1.41H16.01z M19.61,12.87c-0.12,0-0.16,0.02-0.23,0.13c-0.43,0.66-0.87,1.32-1.31,1.98
							s-0.88,1.32-1.31,1.98c-0.11,0.18-0.21,0.36-0.32,0.56h0.05c2.31,0,4.61,0.01,6.92,0.01l10.24,0.03
							c0.05,0,0.08-0.01,0.08-0.01c0-0.01,0.01-0.03,0.03-0.08c0.15-0.42,0.35-0.96,0.62-1.48c0.38-0.71,0.77-1.43,1.16-2.13
							c0.18-0.33,0.37-0.66,0.55-0.99C30.6,12.87,25.1,12.87,19.61,12.87z M19.9,10.35v0.64h16.79v-0.64H19.9z M22.29,33.52
							c0.11,0.1,0.2,0.19,0.29,0.29v-0.29H22.29z M26.09,33.7v0.29h0.62V33.7H26.09z M26.09,33.7v0.29h0.62V33.7H26.09z M22.58,33.8
							v-0.29h-0.29C22.4,33.62,22.49,33.71,22.58,33.8z M28.65,29.06c-1.3-0.01-2.59-0.01-3.89-0.01s-2.59,0-3.89,0.01
							c-0.68,0-0.94,0.25-0.94,0.94v7.77c0.01,0.69,0.27,0.96,0.97,0.96h7.73c0.69,0,0.97-0.28,0.97-0.97v-7.73
							C29.61,29.32,29.34,29.06,28.65,29.06z M28.59,33.11h-0.82v0.22h0.65v1.02h-0.65v0.34h0.82v1.01h-1.88v-0.2
							c-0.17,0.16-0.41,0.25-0.69,0.25c-0.31,0-0.56-0.1-0.72-0.28v0.23h-1.06v-1.45c-0.16,0.13-0.36,0.21-0.61,0.22v1.23h-1.06
							v-0.2c-0.18,0.16-0.41,0.25-0.7,0.25c-0.62,0-0.99-0.4-0.99-1.05v-0.46h0.6c-0.43-0.37-0.59-0.7-0.59-1.13
							c0-0.65,0.38-1.05,0.99-1.05c0.28,0,0.51,0.08,0.68,0.23V32.1h0.99c0.27,0,0.5,0.08,0.67,0.22V32.1h1.06v0.23
							c0.17-0.18,0.42-0.28,0.72-0.28c0.28,0,0.52,0.09,0.69,0.25v-0.2h1.88V33.11z M26.09,33.99h0.62V33.7h-0.62V33.99z
							 M22.58,33.8v-0.29h-0.29C22.4,33.62,22.49,33.71,22.58,33.8z M22.29,33.52c0.11,0.1,0.2,0.19,0.29,0.29v-0.29H22.29z
							 M26.09,33.7v0.29h0.62V33.7H26.09z M26.09,33.7v0.29h0.62V33.7H26.09z M22.29,33.52c0.11,0.1,0.2,0.19,0.29,0.29v-0.29H22.29
							z M40.01,34.37L40.01,34.37c-0.47-0.61-1.17-0.95-1.93-0.95c-1.36,0-2.46,1.1-2.46,2.46v1.78h4.91v-1.78
							C40.53,35.32,40.34,34.79,40.01,34.37z M40.01,34.37L40.01,34.37c-0.47-0.61-1.17-0.95-1.93-0.95c-1.36,0-2.46,1.1-2.46,2.46
							v1.78h4.91v-1.78C40.53,35.32,40.34,34.79,40.01,34.37z M19.9,10.35v0.64h16.79v-0.64H19.9z M19.61,12.87
							c-0.12,0-0.16,0.02-0.23,0.13c-0.43,0.66-0.87,1.32-1.31,1.98s-0.88,1.32-1.31,1.98c-0.11,0.18-0.21,0.36-0.32,0.56h0.05
							c2.31,0,4.61,0.01,6.92,0.01l10.24,0.03c0.05,0,0.08-0.01,0.08-0.01c0-0.01,0.01-0.03,0.03-0.08
							c0.15-0.42,0.35-0.96,0.62-1.48c0.38-0.71,0.77-1.43,1.16-2.13c0.18-0.33,0.37-0.66,0.55-0.99
							C30.6,12.87,25.1,12.87,19.61,12.87z M16.01,19.41v1.41h17.47v-1.41H16.01z M22.29,33.52c0.11,0.1,0.2,0.19,0.29,0.29v-0.29
							H22.29z M26.09,33.7v0.29h0.62V33.7H26.09z M26.09,33.7v0.29h0.62V33.7H26.09z M22.58,33.8v-0.29h-0.29
							C22.4,33.62,22.49,33.71,22.58,33.8z M28.65,29.06c-1.3-0.01-2.59-0.01-3.89-0.01s-2.59,0-3.89,0.01
							c-0.68,0-0.94,0.25-0.94,0.94v7.77c0.01,0.69,0.27,0.96,0.97,0.96h7.73c0.69,0,0.97-0.28,0.97-0.97v-7.73
							C29.61,29.32,29.34,29.06,28.65,29.06z M28.59,33.11h-0.82v0.22h0.65v1.02h-0.65v0.34h0.82v1.01h-1.88v-0.2
							c-0.17,0.16-0.41,0.25-0.69,0.25c-0.31,0-0.56-0.1-0.72-0.28v0.23h-1.06v-1.45c-0.16,0.13-0.36,0.21-0.61,0.22v1.23h-1.06
							v-0.2c-0.18,0.16-0.41,0.25-0.7,0.25c-0.62,0-0.99-0.4-0.99-1.05v-0.46h0.6c-0.43-0.37-0.59-0.7-0.59-1.13
							c0-0.65,0.38-1.05,0.99-1.05c0.28,0,0.51,0.08,0.68,0.23V32.1h0.99c0.27,0,0.5,0.08,0.67,0.22V32.1h1.06v0.23
							c0.17-0.18,0.42-0.28,0.72-0.28c0.28,0,0.52,0.09,0.69,0.25v-0.2h1.88V33.11z M26.09,33.99h0.62V33.7h-0.62V33.99z
							 M22.58,33.8v-0.29h-0.29C22.4,33.62,22.49,33.71,22.58,33.8z M22.29,33.52c0.11,0.1,0.2,0.19,0.29,0.29v-0.29H22.29z
							 M26.09,33.7v0.29h0.62V33.7H26.09z M26.09,33.7v0.29h0.62V33.7H26.09z M22.29,33.52c0.11,0.1,0.2,0.19,0.29,0.29v-0.29H22.29
							z M16.01,19.41v1.41h17.47v-1.41H16.01z M19.61,12.87c-0.12,0-0.16,0.02-0.23,0.13c-0.43,0.66-0.87,1.32-1.31,1.98
							s-0.88,1.32-1.31,1.98c-0.11,0.18-0.21,0.36-0.32,0.56h0.05c2.31,0,4.61,0.01,6.92,0.01l10.24,0.03
							c0.05,0,0.08-0.01,0.08-0.01c0-0.01,0.01-0.03,0.03-0.08c0.15-0.42,0.35-0.96,0.62-1.48c0.38-0.71,0.77-1.43,1.16-2.13
							c0.18-0.33,0.37-0.66,0.55-0.99C30.6,12.87,25.1,12.87,19.61,12.87z M19.9,10.35v0.64h16.79v-0.64H19.9z M22.29,33.52
							c0.11,0.1,0.2,0.19,0.29,0.29v-0.29H22.29z M26.09,33.7v0.29h0.62V33.7H26.09z M26.09,33.7v0.29h0.62V33.7H26.09z M22.58,33.8
							v-0.29h-0.29C22.4,33.62,22.49,33.71,22.58,33.8z M28.65,29.06c-1.3-0.01-2.59-0.01-3.89-0.01s-2.59,0-3.89,0.01
							c-0.68,0-0.94,0.25-0.94,0.94v7.77c0.01,0.69,0.27,0.96,0.97,0.96h7.73c0.69,0,0.97-0.28,0.97-0.97v-7.73
							C29.61,29.32,29.34,29.06,28.65,29.06z M28.59,33.11h-0.82v0.22h0.65v1.02h-0.65v0.34h0.82v1.01h-1.88v-0.2
							c-0.17,0.16-0.41,0.25-0.69,0.25c-0.31,0-0.56-0.1-0.72-0.28v0.23h-1.06v-1.45c-0.16,0.13-0.36,0.21-0.61,0.22v1.23h-1.06
							v-0.2c-0.18,0.16-0.41,0.25-0.7,0.25c-0.62,0-0.99-0.4-0.99-1.05v-0.46h0.6c-0.43-0.37-0.59-0.7-0.59-1.13
							c0-0.65,0.38-1.05,0.99-1.05c0.28,0,0.51,0.08,0.68,0.23V32.1h0.99c0.27,0,0.5,0.08,0.67,0.22V32.1h1.06v0.23
							c0.17-0.18,0.42-0.28,0.72-0.28c0.28,0,0.52,0.09,0.69,0.25v-0.2h1.88V33.11z M26.09,33.99h0.62V33.7h-0.62V33.99z
							 M22.58,33.8v-0.29h-0.29C22.4,33.62,22.49,33.71,22.58,33.8z M22.29,33.52c0.11,0.1,0.2,0.19,0.29,0.29v-0.29H22.29z
							 M26.09,33.7v0.29h0.62V33.7H26.09z M26.09,33.7v0.29h0.62V33.7H26.09z M22.29,33.52c0.11,0.1,0.2,0.19,0.29,0.29v-0.29H22.29
							z M40.01,34.37L40.01,34.37c-0.47-0.61-1.17-0.95-1.93-0.95c-1.36,0-2.46,1.1-2.46,2.46v1.78h4.91v-1.78
							C40.53,35.32,40.34,34.79,40.01,34.37z M40.01,34.37L40.01,34.37c-0.47-0.61-1.17-0.95-1.93-0.95c-1.36,0-2.46,1.1-2.46,2.46
							v1.78h4.91v-1.78C40.53,35.32,40.34,34.79,40.01,34.37z M19.9,10.35v0.64h16.79v-0.64H19.9z M19.61,12.87
							c-0.12,0-0.16,0.02-0.23,0.13c-0.43,0.66-0.87,1.32-1.31,1.98s-0.88,1.32-1.31,1.98c-0.11,0.18-0.21,0.36-0.32,0.56h0.05
							c2.31,0,4.61,0.01,6.92,0.01l10.24,0.03c0.05,0,0.08-0.01,0.08-0.01c0-0.01,0.01-0.03,0.03-0.08
							c0.15-0.42,0.35-0.96,0.62-1.48c0.38-0.71,0.77-1.43,1.16-2.13c0.18-0.33,0.37-0.66,0.55-0.99
							C30.6,12.87,25.1,12.87,19.61,12.87z M16.01,19.41v1.41h17.47v-1.41H16.01z M22.29,33.52c0.11,0.1,0.2,0.19,0.29,0.29v-0.29
							H22.29z M26.09,33.7v0.29h0.62V33.7H26.09z M26.09,33.7v0.29h0.62V33.7H26.09z M22.58,33.8v-0.29h-0.29
							C22.4,33.62,22.49,33.71,22.58,33.8z M28.65,29.06c-1.3-0.01-2.59-0.01-3.89-0.01s-2.59,0-3.89,0.01
							c-0.68,0-0.94,0.25-0.94,0.94v7.77c0.01,0.69,0.27,0.96,0.97,0.96h7.73c0.69,0,0.97-0.28,0.97-0.97v-7.73
							C29.61,29.32,29.34,29.06,28.65,29.06z M28.59,33.11h-0.82v0.22h0.65v1.02h-0.65v0.34h0.82v1.01h-1.88v-0.2
							c-0.17,0.16-0.41,0.25-0.69,0.25c-0.31,0-0.56-0.1-0.72-0.28v0.23h-1.06v-1.45c-0.16,0.13-0.36,0.21-0.61,0.22v1.23h-1.06
							v-0.2c-0.18,0.16-0.41,0.25-0.7,0.25c-0.62,0-0.99-0.4-0.99-1.05v-0.46h0.6c-0.43-0.37-0.59-0.7-0.59-1.13
							c0-0.65,0.38-1.05,0.99-1.05c0.28,0,0.51,0.08,0.68,0.23V32.1h0.99c0.27,0,0.5,0.08,0.67,0.22V32.1h1.06v0.23
							c0.17-0.18,0.42-0.28,0.72-0.28c0.28,0,0.52,0.09,0.69,0.25v-0.2h1.88V33.11z M26.09,33.99h0.62V33.7h-0.62V33.99z
							 M22.58,33.8v-0.29h-0.29C22.4,33.62,22.49,33.71,22.58,33.8z M22.29,33.52c0.11,0.1,0.2,0.19,0.29,0.29v-0.29H22.29z
							 M26.09,33.7v0.29h0.62V33.7H26.09z M26.09,33.7v0.29h0.62V33.7H26.09z M22.29,33.52c0.11,0.1,0.2,0.19,0.29,0.29v-0.29H22.29
							z M16.01,19.41v1.41h17.47v-1.41H16.01z M19.61,12.87c-0.12,0-0.16,0.02-0.23,0.13c-0.43,0.66-0.87,1.32-1.31,1.98
							s-0.88,1.32-1.31,1.98c-0.11,0.18-0.21,0.36-0.32,0.56h0.05c2.31,0,4.61,0.01,6.92,0.01l10.24,0.03
							c0.05,0,0.08-0.01,0.08-0.01c0-0.01,0.01-0.03,0.03-0.08c0.15-0.42,0.35-0.96,0.62-1.48c0.38-0.71,0.77-1.43,1.16-2.13
							c0.18-0.33,0.37-0.66,0.55-0.99C30.6,12.87,25.1,12.87,19.61,12.87z M19.9,10.35v0.64h16.79v-0.64H19.9z M22.29,33.52
							c0.11,0.1,0.2,0.19,0.29,0.29v-0.29H22.29z M26.09,33.7v0.29h0.62V33.7H26.09z M26.09,33.7v0.29h0.62V33.7H26.09z M22.58,33.8
							v-0.29h-0.29C22.4,33.62,22.49,33.71,22.58,33.8z M28.65,29.06c-1.3-0.01-2.59-0.01-3.89-0.01s-2.59,0-3.89,0.01
							c-0.68,0-0.94,0.25-0.94,0.94v7.77c0.01,0.69,0.27,0.96,0.97,0.96h7.73c0.69,0,0.97-0.28,0.97-0.97v-7.73
							C29.61,29.32,29.34,29.06,28.65,29.06z M28.59,33.11h-0.82v0.22h0.65v1.02h-0.65v0.34h0.82v1.01h-1.88v-0.2
							c-0.17,0.16-0.41,0.25-0.69,0.25c-0.31,0-0.56-0.1-0.72-0.28v0.23h-1.06v-1.45c-0.16,0.13-0.36,0.21-0.61,0.22v1.23h-1.06
							v-0.2c-0.18,0.16-0.41,0.25-0.7,0.25c-0.62,0-0.99-0.4-0.99-1.05v-0.46h0.6c-0.43-0.37-0.59-0.7-0.59-1.13
							c0-0.65,0.38-1.05,0.99-1.05c0.28,0,0.51,0.08,0.68,0.23V32.1h0.99c0.27,0,0.5,0.08,0.67,0.22V32.1h1.06v0.23
							c0.17-0.18,0.42-0.28,0.72-0.28c0.28,0,0.52,0.09,0.69,0.25v-0.2h1.88V33.11z M26.09,33.99h0.62V33.7h-0.62V33.99z
							 M22.58,33.8v-0.29h-0.29C22.4,33.62,22.49,33.71,22.58,33.8z M22.29,33.52c0.11,0.1,0.2,0.19,0.29,0.29v-0.29H22.29z
							 M26.09,33.7v0.29h0.62V33.7H26.09z M26.09,33.7v0.29h0.62V33.7H26.09z M22.29,33.52c0.11,0.1,0.2,0.19,0.29,0.29v-0.29H22.29
							z M40.01,34.37L40.01,34.37c-0.47-0.61-1.17-0.95-1.93-0.95c-1.36,0-2.46,1.1-2.46,2.46v1.78h4.91v-1.78
							C40.53,35.32,40.34,34.79,40.01,34.37z M40.01,34.37L40.01,34.37c-0.47-0.61-1.17-0.95-1.93-0.95c-1.36,0-2.46,1.1-2.46,2.46
							v1.78h4.91v-1.78C40.53,35.32,40.34,34.79,40.01,34.37z M19.9,10.35v0.64h16.79v-0.64H19.9z M19.61,12.87
							c-0.12,0-0.16,0.02-0.23,0.13c-0.43,0.66-0.87,1.32-1.31,1.98s-0.88,1.32-1.31,1.98c-0.11,0.18-0.21,0.36-0.32,0.56h0.05
							c2.31,0,4.61,0.01,6.92,0.01l10.24,0.03c0.05,0,0.08-0.01,0.08-0.01c0-0.01,0.01-0.03,0.03-0.08
							c0.15-0.42,0.35-0.96,0.62-1.48c0.38-0.71,0.77-1.43,1.16-2.13c0.18-0.33,0.37-0.66,0.55-0.99
							C30.6,12.87,25.1,12.87,19.61,12.87z M16.01,19.41v1.41h17.47v-1.41H16.01z M22.29,33.52c0.11,0.1,0.2,0.19,0.29,0.29v-0.29
							H22.29z M26.09,33.7v0.29h0.62V33.7H26.09z M26.09,33.7v0.29h0.62V33.7H26.09z M22.58,33.8v-0.29h-0.29
							C22.4,33.62,22.49,33.71,22.58,33.8z M28.65,29.06c-1.3-0.01-2.59-0.01-3.89-0.01s-2.59,0-3.89,0.01
							c-0.68,0-0.94,0.25-0.94,0.94v7.77c0.01,0.69,0.27,0.96,0.97,0.96h7.73c0.69,0,0.97-0.28,0.97-0.97v-7.73
							C29.61,29.32,29.34,29.06,28.65,29.06z M28.59,33.11h-0.82v0.22h0.65v1.02h-0.65v0.34h0.82v1.01h-1.88v-0.2
							c-0.17,0.16-0.41,0.25-0.69,0.25c-0.31,0-0.56-0.1-0.72-0.28v0.23h-1.06v-1.45c-0.16,0.13-0.36,0.21-0.61,0.22v1.23h-1.06
							v-0.2c-0.18,0.16-0.41,0.25-0.7,0.25c-0.62,0-0.99-0.4-0.99-1.05v-0.46h0.6c-0.43-0.37-0.59-0.7-0.59-1.13
							c0-0.65,0.38-1.05,0.99-1.05c0.28,0,0.51,0.08,0.68,0.23V32.1h0.99c0.27,0,0.5,0.08,0.67,0.22V32.1h1.06v0.23
							c0.17-0.18,0.42-0.28,0.72-0.28c0.28,0,0.52,0.09,0.69,0.25v-0.2h1.88V33.11z M26.09,33.99h0.62V33.7h-0.62V33.99z
							 M22.58,33.8v-0.29h-0.29C22.4,33.62,22.49,33.71,22.58,33.8z M22.29,33.52c0.11,0.1,0.2,0.19,0.29,0.29v-0.29H22.29z
							 M26.09,33.7v0.29h0.62V33.7H26.09z M26.09,33.7v0.29h0.62V33.7H26.09z M22.29,33.52c0.11,0.1,0.2,0.19,0.29,0.29v-0.29H22.29
							z M16.01,19.41v1.41h17.47v-1.41H16.01z M19.61,12.87c-0.12,0-0.16,0.02-0.23,0.13c-0.43,0.66-0.87,1.32-1.31,1.98
							s-0.88,1.32-1.31,1.98c-0.11,0.18-0.21,0.36-0.32,0.56h0.05c2.31,0,4.61,0.01,6.92,0.01l10.24,0.03
							c0.05,0,0.08-0.01,0.08-0.01c0-0.01,0.01-0.03,0.03-0.08c0.15-0.42,0.35-0.96,0.62-1.48c0.38-0.71,0.77-1.43,1.16-2.13
							c0.18-0.33,0.37-0.66,0.55-0.99C30.6,12.87,25.1,12.87,19.61,12.87z M19.9,10.35v0.64h16.79v-0.64H19.9z M22.29,33.52
							c0.11,0.1,0.2,0.19,0.29,0.29v-0.29H22.29z M26.09,33.7v0.29h0.62V33.7H26.09z M26.09,33.7v0.29h0.62V33.7H26.09z M22.58,33.8
							v-0.29h-0.29C22.4,33.62,22.49,33.71,22.58,33.8z M28.65,29.06c-1.3-0.01-2.59-0.01-3.89-0.01s-2.59,0-3.89,0.01
							c-0.68,0-0.94,0.25-0.94,0.94v7.77c0.01,0.69,0.27,0.96,0.97,0.96h7.73c0.69,0,0.97-0.28,0.97-0.97v-7.73
							C29.61,29.32,29.34,29.06,28.65,29.06z M28.59,33.11h-0.82v0.22h0.65v1.02h-0.65v0.34h0.82v1.01h-1.88v-0.2
							c-0.17,0.16-0.41,0.25-0.69,0.25c-0.31,0-0.56-0.1-0.72-0.28v0.23h-1.06v-1.45c-0.16,0.13-0.36,0.21-0.61,0.22v1.23h-1.06
							v-0.2c-0.18,0.16-0.41,0.25-0.7,0.25c-0.62,0-0.99-0.4-0.99-1.05v-0.46h0.6c-0.43-0.37-0.59-0.7-0.59-1.13
							c0-0.65,0.38-1.05,0.99-1.05c0.28,0,0.51,0.08,0.68,0.23V32.1h0.99c0.27,0,0.5,0.08,0.67,0.22V32.1h1.06v0.23
							c0.17-0.18,0.42-0.28,0.72-0.28c0.28,0,0.52,0.09,0.69,0.25v-0.2h1.88V33.11z M26.09,33.99h0.62V33.7h-0.62V33.99z
							 M22.58,33.8v-0.29h-0.29C22.4,33.62,22.49,33.71,22.58,33.8z M22.29,33.52c0.11,0.1,0.2,0.19,0.29,0.29v-0.29H22.29z
							 M26.09,33.7v0.29h0.62V33.7H26.09z M26.09,33.7v0.29h0.62V33.7H26.09z M22.29,33.52c0.11,0.1,0.2,0.19,0.29,0.29v-0.29H22.29
							z M40.01,34.37L40.01,34.37c-0.47-0.61-1.17-0.95-1.93-0.95c-1.36,0-2.46,1.1-2.46,2.46v1.78h4.91v-1.78
							C40.53,35.32,40.34,34.79,40.01,34.37z M40.01,34.37L40.01,34.37c-0.47-0.61-1.17-0.95-1.93-0.95c-1.36,0-2.46,1.1-2.46,2.46
							v1.78h4.91v-1.78C40.53,35.32,40.34,34.79,40.01,34.37z M19.9,10.35v0.64h16.79v-0.64H19.9z M19.61,12.87
							c-0.12,0-0.16,0.02-0.23,0.13c-0.43,0.66-0.87,1.32-1.31,1.98s-0.88,1.32-1.31,1.98c-0.11,0.18-0.21,0.36-0.32,0.56h0.05
							c2.31,0,4.61,0.01,6.92,0.01l10.24,0.03c0.05,0,0.08-0.01,0.08-0.01c0-0.01,0.01-0.03,0.03-0.08
							c0.15-0.42,0.35-0.96,0.62-1.48c0.38-0.71,0.77-1.43,1.16-2.13c0.18-0.33,0.37-0.66,0.55-0.99
							C30.6,12.87,25.1,12.87,19.61,12.87z M16.01,19.41v1.41h17.47v-1.41H16.01z M22.29,33.52c0.11,0.1,0.2,0.19,0.29,0.29v-0.29
							H22.29z M26.09,33.7v0.29h0.62V33.7H26.09z M26.09,33.7v0.29h0.62V33.7H26.09z M22.58,33.8v-0.29h-0.29
							C22.4,33.62,22.49,33.71,22.58,33.8z M28.65,29.06c-1.3-0.01-2.59-0.01-3.89-0.01s-2.59,0-3.89,0.01
							c-0.68,0-0.94,0.25-0.94,0.94v7.77c0.01,0.69,0.27,0.96,0.97,0.96h7.73c0.69,0,0.97-0.28,0.97-0.97v-7.73
							C29.61,29.32,29.34,29.06,28.65,29.06z M28.59,33.11h-0.82v0.22h0.65v1.02h-0.65v0.34h0.82v1.01h-1.88v-0.2
							c-0.17,0.16-0.41,0.25-0.69,0.25c-0.31,0-0.56-0.1-0.72-0.28v0.23h-1.06v-1.45c-0.16,0.13-0.36,0.21-0.61,0.22v1.23h-1.06
							v-0.2c-0.18,0.16-0.41,0.25-0.7,0.25c-0.62,0-0.99-0.4-0.99-1.05v-0.46h0.6c-0.43-0.37-0.59-0.7-0.59-1.13
							c0-0.65,0.38-1.05,0.99-1.05c0.28,0,0.51,0.08,0.68,0.23V32.1h0.99c0.27,0,0.5,0.08,0.67,0.22V32.1h1.06v0.23
							c0.17-0.18,0.42-0.28,0.72-0.28c0.28,0,0.52,0.09,0.69,0.25v-0.2h1.88V33.11z M26.09,33.99h0.62V33.7h-0.62V33.99z
							 M22.58,33.8v-0.29h-0.29C22.4,33.62,22.49,33.71,22.58,33.8z M22.29,33.52c0.11,0.1,0.2,0.19,0.29,0.29v-0.29H22.29z
							 M26.09,33.7v0.29h0.62V33.7H26.09z M26.09,33.7v0.29h0.62V33.7H26.09z M22.29,33.52c0.11,0.1,0.2,0.19,0.29,0.29v-0.29H22.29
							z M16.01,19.41v1.41h17.47v-1.41H16.01z M19.61,12.87c-0.12,0-0.16,0.02-0.23,0.13c-0.43,0.66-0.87,1.32-1.31,1.98
							s-0.88,1.32-1.31,1.98c-0.11,0.18-0.21,0.36-0.32,0.56h0.05c2.31,0,4.61,0.01,6.92,0.01l10.24,0.03
							c0.05,0,0.08-0.01,0.08-0.01c0-0.01,0.01-0.03,0.03-0.08c0.15-0.42,0.35-0.96,0.62-1.48c0.38-0.71,0.77-1.43,1.16-2.13
							c0.18-0.33,0.37-0.66,0.55-0.99C30.6,12.87,25.1,12.87,19.61,12.87z M19.9,10.35v0.64h16.79v-0.64H19.9z M40.01,34.37
							L40.01,34.37c-0.47-0.61-1.17-0.95-1.93-0.95c-1.36,0-2.46,1.1-2.46,2.46v1.78h4.91v-1.78
							C40.53,35.32,40.34,34.79,40.01,34.37z M40.01,34.37L40.01,34.37c-0.47-0.61-1.17-0.95-1.93-0.95c-1.36,0-2.46,1.1-2.46,2.46
							v1.78h4.91v-1.78C40.53,35.32,40.34,34.79,40.01,34.37z M19.9,10.35v0.64h16.79v-0.64H19.9z M19.61,12.87
							c-0.12,0-0.16,0.02-0.23,0.13c-0.43,0.66-0.87,1.32-1.31,1.98s-0.88,1.32-1.31,1.98c-0.11,0.18-0.21,0.36-0.32,0.56h0.05
							c2.31,0,4.61,0.01,6.92,0.01l10.24,0.03c0.05,0,0.08-0.01,0.08-0.01c0-0.01,0.01-0.03,0.03-0.08
							c0.15-0.42,0.35-0.96,0.62-1.48c0.38-0.71,0.77-1.43,1.16-2.13c0.18-0.33,0.37-0.66,0.55-0.99
							C30.6,12.87,25.1,12.87,19.61,12.87z M16.01,19.41v1.41h17.47v-1.41H16.01z M16.01,19.41v1.41h17.47v-1.41H16.01z
							 M19.61,12.87c-0.12,0-0.16,0.02-0.23,0.13c-0.43,0.66-0.87,1.32-1.31,1.98s-0.88,1.32-1.31,1.98
							c-0.11,0.18-0.21,0.36-0.32,0.56h0.05c2.31,0,4.61,0.01,6.92,0.01l10.24,0.03c0.05,0,0.08-0.01,0.08-0.01
							c0-0.01,0.01-0.03,0.03-0.08c0.15-0.42,0.35-0.96,0.62-1.48c0.38-0.71,0.77-1.43,1.16-2.13c0.18-0.33,0.37-0.66,0.55-0.99
							C30.6,12.87,25.1,12.87,19.61,12.87z M19.9,10.35v0.64h16.79v-0.64H19.9z M19.9,10.35v0.64h16.79v-0.64H19.9z M19.61,12.87
							c-0.12,0-0.16,0.02-0.23,0.13c-0.43,0.66-0.87,1.32-1.31,1.98s-0.88,1.32-1.31,1.98c-0.11,0.18-0.21,0.36-0.32,0.56h0.05
							c2.31,0,4.61,0.01,6.92,0.01l10.24,0.03c0.05,0,0.08-0.01,0.08-0.01c0-0.01,0.01-0.03,0.03-0.08
							c0.15-0.42,0.35-0.96,0.62-1.48c0.38-0.71,0.77-1.43,1.16-2.13c0.18-0.33,0.37-0.66,0.55-0.99
							C30.6,12.87,25.1,12.87,19.61,12.87z M16.01,19.41v1.41h17.47v-1.41H16.01z"/>
					</g>
				</g>
			</g>
		</g>
		<g>
			<g>
				<g>
					<g>
						<path class="st0" d="M28.3,32.82v-0.43h-1.29v3.01h1.29v-0.43h-0.82v-0.92h0.65v-0.43h-0.65v-0.8H28.3z M26.73,33.41v-0.32
							c0-0.46-0.25-0.74-0.7-0.74s-0.7,0.28-0.7,0.74v1.62c0,0.47,0.24,0.74,0.7,0.74s0.7-0.27,0.7-0.74v-0.43h-0.45v0.46
							c0,0.2-0.09,0.27-0.23,0.27c-0.15,0-0.24-0.08-0.24-0.27v-1.68c0-0.2,0.09-0.28,0.24-0.28c0.14,0,0.23,0.08,0.23,0.28v0.35
							H26.73z M24.53,32.39v3.01h0.47v-3.01H24.53z M23.57,32.39h-0.7v3.01h0.47v-1.23h0.23c0.47,0,0.7-0.26,0.7-0.74v-0.3
							C24.27,32.65,24.04,32.39,23.57,32.39z M23.8,33.46c0,0.22-0.08,0.29-0.23,0.29h-0.23v-0.93h0.23c0.15,0,0.23,0.07,0.23,0.29
							V33.46z M22.07,33.72c-0.3-0.27-0.4-0.43-0.4-0.65c0-0.2,0.08-0.29,0.23-0.29c0.15,0,0.23,0.08,0.23,0.3v0.15h0.45V33.1
							c0-0.48-0.23-0.76-0.69-0.76c-0.46,0-0.7,0.28-0.7,0.75c0,0.34,0.12,0.59,0.52,0.94c0.32,0.27,0.41,0.43,0.41,0.68
							c0,0.22-0.09,0.3-0.25,0.3c-0.15,0-0.25-0.08-0.25-0.29v-0.2h-0.45v0.17c0,0.49,0.23,0.76,0.7,0.76
							c0.47,0,0.72-0.27,0.72-0.77C22.6,34.31,22.47,34.06,22.07,33.72z M28.3,32.82v-0.43h-1.29v3.01h1.29v-0.43h-0.82v-0.92h0.65
							v-0.43h-0.65v-0.8H28.3z M26.73,33.41v-0.32c0-0.46-0.25-0.74-0.7-0.74s-0.7,0.28-0.7,0.74v1.62c0,0.47,0.24,0.74,0.7,0.74
							s0.7-0.27,0.7-0.74v-0.43h-0.45v0.46c0,0.2-0.09,0.27-0.23,0.27c-0.15,0-0.24-0.08-0.24-0.27v-1.68c0-0.2,0.09-0.28,0.24-0.28
							c0.14,0,0.23,0.08,0.23,0.28v0.35H26.73z M24.53,32.39v3.01h0.47v-3.01H24.53z M23.57,32.39h-0.7v3.01h0.47v-1.23h0.23
							c0.47,0,0.7-0.26,0.7-0.74v-0.3C24.27,32.65,24.04,32.39,23.57,32.39z M23.8,33.46c0,0.22-0.08,0.29-0.23,0.29h-0.23v-0.93
							h0.23c0.15,0,0.23,0.07,0.23,0.29V33.46z M22.07,33.72c-0.3-0.27-0.4-0.43-0.4-0.65c0-0.2,0.08-0.29,0.23-0.29
							c0.15,0,0.23,0.08,0.23,0.3v0.15h0.45V33.1c0-0.48-0.23-0.76-0.69-0.76c-0.46,0-0.7,0.28-0.7,0.75c0,0.34,0.12,0.59,0.52,0.94
							c0.32,0.27,0.41,0.43,0.41,0.68c0,0.22-0.09,0.3-0.25,0.3c-0.15,0-0.25-0.08-0.25-0.29v-0.2h-0.45v0.17
							c0,0.49,0.23,0.76,0.7,0.76c0.47,0,0.72-0.27,0.72-0.77C22.6,34.31,22.47,34.06,22.07,33.72z M28.3,32.82v-0.43h-1.29v3.01
							h1.29v-0.43h-0.82v-0.92h0.65v-0.43h-0.65v-0.8H28.3z M26.73,33.41v-0.32c0-0.46-0.25-0.74-0.7-0.74s-0.7,0.28-0.7,0.74v1.62
							c0,0.47,0.24,0.74,0.7,0.74s0.7-0.27,0.7-0.74v-0.43h-0.45v0.46c0,0.2-0.09,0.27-0.23,0.27c-0.15,0-0.24-0.08-0.24-0.27v-1.68
							c0-0.2,0.09-0.28,0.24-0.28c0.14,0,0.23,0.08,0.23,0.28v0.35H26.73z M24.53,32.39v3.01h0.47v-3.01H24.53z M23.57,32.39h-0.7
							v3.01h0.47v-1.23h0.23c0.47,0,0.7-0.26,0.7-0.74v-0.3C24.27,32.65,24.04,32.39,23.57,32.39z M23.8,33.46
							c0,0.22-0.08,0.29-0.23,0.29h-0.23v-0.93h0.23c0.15,0,0.23,0.07,0.23,0.29V33.46z M22.07,33.72c-0.3-0.27-0.4-0.43-0.4-0.65
							c0-0.2,0.08-0.29,0.23-0.29c0.15,0,0.23,0.08,0.23,0.3v0.15h0.45V33.1c0-0.48-0.23-0.76-0.69-0.76c-0.46,0-0.7,0.28-0.7,0.75
							c0,0.34,0.12,0.59,0.52,0.94c0.32,0.27,0.41,0.43,0.41,0.68c0,0.22-0.09,0.3-0.25,0.3c-0.15,0-0.25-0.08-0.25-0.29v-0.2h-0.45
							v0.17c0,0.49,0.23,0.76,0.7,0.76c0.47,0,0.72-0.27,0.72-0.77C22.6,34.31,22.47,34.06,22.07,33.72z M28.3,32.82v-0.43h-1.29
							v3.01h1.29v-0.43h-0.82v-0.92h0.65v-0.43h-0.65v-0.8H28.3z M26.73,33.41v-0.32c0-0.46-0.25-0.74-0.7-0.74s-0.7,0.28-0.7,0.74
							v1.62c0,0.47,0.24,0.74,0.7,0.74s0.7-0.27,0.7-0.74v-0.43h-0.45v0.46c0,0.2-0.09,0.27-0.23,0.27c-0.15,0-0.24-0.08-0.24-0.27
							v-1.68c0-0.2,0.09-0.28,0.24-0.28c0.14,0,0.23,0.08,0.23,0.28v0.35H26.73z M24.53,32.39v3.01h0.47v-3.01H24.53z M23.57,32.39
							h-0.7v3.01h0.47v-1.23h0.23c0.47,0,0.7-0.26,0.7-0.74v-0.3C24.27,32.65,24.04,32.39,23.57,32.39z M23.8,33.46
							c0,0.22-0.08,0.29-0.23,0.29h-0.23v-0.93h0.23c0.15,0,0.23,0.07,0.23,0.29V33.46z M22.07,33.72c-0.3-0.27-0.4-0.43-0.4-0.65
							c0-0.2,0.08-0.29,0.23-0.29c0.15,0,0.23,0.08,0.23,0.3v0.15h0.45V33.1c0-0.48-0.23-0.76-0.69-0.76c-0.46,0-0.7,0.28-0.7,0.75
							c0,0.34,0.12,0.59,0.52,0.94c0.32,0.27,0.41,0.43,0.41,0.68c0,0.22-0.09,0.3-0.25,0.3c-0.15,0-0.25-0.08-0.25-0.29v-0.2h-0.45
							v0.17c0,0.49,0.23,0.76,0.7,0.76c0.47,0,0.72-0.27,0.72-0.77C22.6,34.31,22.47,34.06,22.07,33.72z M28.3,32.82v-0.43h-1.29
							v3.01h1.29v-0.43h-0.82v-0.92h0.65v-0.43h-0.65v-0.8H28.3z M26.73,33.41v-0.32c0-0.46-0.25-0.74-0.7-0.74s-0.7,0.28-0.7,0.74
							v1.62c0,0.47,0.24,0.74,0.7,0.74s0.7-0.27,0.7-0.74v-0.43h-0.45v0.46c0,0.2-0.09,0.27-0.23,0.27c-0.15,0-0.24-0.08-0.24-0.27
							v-1.68c0-0.2,0.09-0.28,0.24-0.28c0.14,0,0.23,0.08,0.23,0.28v0.35H26.73z M24.53,32.39v3.01h0.47v-3.01H24.53z M23.57,32.39
							h-0.7v3.01h0.47v-1.23h0.23c0.47,0,0.7-0.26,0.7-0.74v-0.3C24.27,32.65,24.04,32.39,23.57,32.39z M23.8,33.46
							c0,0.22-0.08,0.29-0.23,0.29h-0.23v-0.93h0.23c0.15,0,0.23,0.07,0.23,0.29V33.46z M22.07,33.72c-0.3-0.27-0.4-0.43-0.4-0.65
							c0-0.2,0.08-0.29,0.23-0.29c0.15,0,0.23,0.08,0.23,0.3v0.15h0.45V33.1c0-0.48-0.23-0.76-0.69-0.76c-0.46,0-0.7,0.28-0.7,0.75
							c0,0.34,0.12,0.59,0.52,0.94c0.32,0.27,0.41,0.43,0.41,0.68c0,0.22-0.09,0.3-0.25,0.3c-0.15,0-0.25-0.08-0.25-0.29v-0.2h-0.45
							v0.17c0,0.49,0.23,0.76,0.7,0.76c0.47,0,0.72-0.27,0.72-0.77C22.6,34.31,22.47,34.06,22.07,33.72z M28.3,32.82v-0.43h-1.29
							v3.01h1.29v-0.43h-0.82v-0.92h0.65v-0.43h-0.65v-0.8H28.3z M26.73,33.41v-0.32c0-0.46-0.25-0.74-0.7-0.74s-0.7,0.28-0.7,0.74
							v1.62c0,0.47,0.24,0.74,0.7,0.74s0.7-0.27,0.7-0.74v-0.43h-0.45v0.46c0,0.2-0.09,0.27-0.23,0.27c-0.15,0-0.24-0.08-0.24-0.27
							v-1.68c0-0.2,0.09-0.28,0.24-0.28c0.14,0,0.23,0.08,0.23,0.28v0.35H26.73z M24.53,32.39v3.01h0.47v-3.01H24.53z M23.57,32.39
							h-0.7v3.01h0.47v-1.23h0.23c0.47,0,0.7-0.26,0.7-0.74v-0.3C24.27,32.65,24.04,32.39,23.57,32.39z M23.8,33.46
							c0,0.22-0.08,0.29-0.23,0.29h-0.23v-0.93h0.23c0.15,0,0.23,0.07,0.23,0.29V33.46z M22.07,33.72c-0.3-0.27-0.4-0.43-0.4-0.65
							c0-0.2,0.08-0.29,0.23-0.29c0.15,0,0.23,0.08,0.23,0.3v0.15h0.45V33.1c0-0.48-0.23-0.76-0.69-0.76c-0.46,0-0.7,0.28-0.7,0.75
							c0,0.34,0.12,0.59,0.52,0.94c0.32,0.27,0.41,0.43,0.41,0.68c0,0.22-0.09,0.3-0.25,0.3c-0.15,0-0.25-0.08-0.25-0.29v-0.2h-0.45
							v0.17c0,0.49,0.23,0.76,0.7,0.76c0.47,0,0.72-0.27,0.72-0.77C22.6,34.31,22.47,34.06,22.07,33.72z M28.3,32.82v-0.43h-1.29
							v3.01h1.29v-0.43h-0.82v-0.92h0.65v-0.43h-0.65v-0.8H28.3z M26.73,33.41v-0.32c0-0.46-0.25-0.74-0.7-0.74s-0.7,0.28-0.7,0.74
							v1.62c0,0.47,0.24,0.74,0.7,0.74s0.7-0.27,0.7-0.74v-0.43h-0.45v0.46c0,0.2-0.09,0.27-0.23,0.27c-0.15,0-0.24-0.08-0.24-0.27
							v-1.68c0-0.2,0.09-0.28,0.24-0.28c0.14,0,0.23,0.08,0.23,0.28v0.35H26.73z M24.53,32.39v3.01h0.47v-3.01H24.53z M23.57,32.39
							h-0.7v3.01h0.47v-1.23h0.23c0.47,0,0.7-0.26,0.7-0.74v-0.3C24.27,32.65,24.04,32.39,23.57,32.39z M23.8,33.46
							c0,0.22-0.08,0.29-0.23,0.29h-0.23v-0.93h0.23c0.15,0,0.23,0.07,0.23,0.29V33.46z M22.07,33.72c-0.3-0.27-0.4-0.43-0.4-0.65
							c0-0.2,0.08-0.29,0.23-0.29c0.15,0,0.23,0.08,0.23,0.3v0.15h0.45V33.1c0-0.48-0.23-0.76-0.69-0.76c-0.46,0-0.7,0.28-0.7,0.75
							c0,0.34,0.12,0.59,0.52,0.94c0.32,0.27,0.41,0.43,0.41,0.68c0,0.22-0.09,0.3-0.25,0.3c-0.15,0-0.25-0.08-0.25-0.29v-0.2h-0.45
							v0.17c0,0.49,0.23,0.76,0.7,0.76c0.47,0,0.72-0.27,0.72-0.77C22.6,34.31,22.47,34.06,22.07,33.72z M28.3,32.82v-0.43h-1.29
							v3.01h1.29v-0.43h-0.82v-0.92h0.65v-0.43h-0.65v-0.8H28.3z M26.73,33.41v-0.32c0-0.46-0.25-0.74-0.7-0.74s-0.7,0.28-0.7,0.74
							v1.62c0,0.47,0.24,0.74,0.7,0.74s0.7-0.27,0.7-0.74v-0.43h-0.45v0.46c0,0.2-0.09,0.27-0.23,0.27c-0.15,0-0.24-0.08-0.24-0.27
							v-1.68c0-0.2,0.09-0.28,0.24-0.28c0.14,0,0.23,0.08,0.23,0.28v0.35H26.73z M24.53,32.39v3.01h0.47v-3.01H24.53z M23.57,32.39
							h-0.7v3.01h0.47v-1.23h0.23c0.47,0,0.7-0.26,0.7-0.74v-0.3C24.27,32.65,24.04,32.39,23.57,32.39z M23.8,33.46
							c0,0.22-0.08,0.29-0.23,0.29h-0.23v-0.93h0.23c0.15,0,0.23,0.07,0.23,0.29V33.46z M22.07,33.72c-0.3-0.27-0.4-0.43-0.4-0.65
							c0-0.2,0.08-0.29,0.23-0.29c0.15,0,0.23,0.08,0.23,0.3v0.15h0.45V33.1c0-0.48-0.23-0.76-0.69-0.76c-0.46,0-0.7,0.28-0.7,0.75
							c0,0.34,0.12,0.59,0.52,0.94c0.32,0.27,0.41,0.43,0.41,0.68c0,0.22-0.09,0.3-0.25,0.3c-0.15,0-0.25-0.08-0.25-0.29v-0.2h-0.45
							v0.17c0,0.49,0.23,0.76,0.7,0.76c0.47,0,0.72-0.27,0.72-0.77C22.6,34.31,22.47,34.06,22.07,33.72z M28.3,32.82v-0.43h-1.29
							v3.01h1.29v-0.43h-0.82v-0.92h0.65v-0.43h-0.65v-0.8H28.3z M26.73,33.41v-0.32c0-0.46-0.25-0.74-0.7-0.74s-0.7,0.28-0.7,0.74
							v1.62c0,0.47,0.24,0.74,0.7,0.74s0.7-0.27,0.7-0.74v-0.43h-0.45v0.46c0,0.2-0.09,0.27-0.23,0.27c-0.15,0-0.24-0.08-0.24-0.27
							v-1.68c0-0.2,0.09-0.28,0.24-0.28c0.14,0,0.23,0.08,0.23,0.28v0.35H26.73z M24.53,32.39v3.01h0.47v-3.01H24.53z M23.57,32.39
							h-0.7v3.01h0.47v-1.23h0.23c0.47,0,0.7-0.26,0.7-0.74v-0.3C24.27,32.65,24.04,32.39,23.57,32.39z M23.8,33.46
							c0,0.22-0.08,0.29-0.23,0.29h-0.23v-0.93h0.23c0.15,0,0.23,0.07,0.23,0.29V33.46z M22.07,33.72c-0.3-0.27-0.4-0.43-0.4-0.65
							c0-0.2,0.08-0.29,0.23-0.29c0.15,0,0.23,0.08,0.23,0.3v0.15h0.45V33.1c0-0.48-0.23-0.76-0.69-0.76c-0.46,0-0.7,0.28-0.7,0.75
							c0,0.34,0.12,0.59,0.52,0.94c0.32,0.27,0.41,0.43,0.41,0.68c0,0.22-0.09,0.3-0.25,0.3c-0.15,0-0.25-0.08-0.25-0.29v-0.2h-0.45
							v0.17c0,0.49,0.23,0.76,0.7,0.76c0.47,0,0.72-0.27,0.72-0.77C22.6,34.31,22.47,34.06,22.07,33.72z M28.3,32.82v-0.43h-1.29
							v3.01h1.29v-0.43h-0.82v-0.92h0.65v-0.43h-0.65v-0.8H28.3z M26.73,33.41v-0.32c0-0.46-0.25-0.74-0.7-0.74s-0.7,0.28-0.7,0.74
							v1.62c0,0.47,0.24,0.74,0.7,0.74s0.7-0.27,0.7-0.74v-0.43h-0.45v0.46c0,0.2-0.09,0.27-0.23,0.27c-0.15,0-0.24-0.08-0.24-0.27
							v-1.68c0-0.2,0.09-0.28,0.24-0.28c0.14,0,0.23,0.08,0.23,0.28v0.35H26.73z M24.53,32.39v3.01h0.47v-3.01H24.53z M23.57,32.39
							h-0.7v3.01h0.47v-1.23h0.23c0.47,0,0.7-0.26,0.7-0.74v-0.3C24.27,32.65,24.04,32.39,23.57,32.39z M23.8,33.46
							c0,0.22-0.08,0.29-0.23,0.29h-0.23v-0.93h0.23c0.15,0,0.23,0.07,0.23,0.29V33.46z M22.07,33.72c-0.3-0.27-0.4-0.43-0.4-0.65
							c0-0.2,0.08-0.29,0.23-0.29c0.15,0,0.23,0.08,0.23,0.3v0.15h0.45V33.1c0-0.48-0.23-0.76-0.69-0.76c-0.46,0-0.7,0.28-0.7,0.75
							c0,0.34,0.12,0.59,0.52,0.94c0.32,0.27,0.41,0.43,0.41,0.68c0,0.22-0.09,0.3-0.25,0.3c-0.15,0-0.25-0.08-0.25-0.29v-0.2h-0.45
							v0.17c0,0.49,0.23,0.76,0.7,0.76c0.47,0,0.72-0.27,0.72-0.77C22.6,34.31,22.47,34.06,22.07,33.72z M28.3,32.82v-0.43h-1.29
							v3.01h1.29v-0.43h-0.82v-0.92h0.65v-0.43h-0.65v-0.8H28.3z M26.73,33.41v-0.32c0-0.46-0.25-0.74-0.7-0.74s-0.7,0.28-0.7,0.74
							v1.62c0,0.47,0.24,0.74,0.7,0.74s0.7-0.27,0.7-0.74v-0.43h-0.45v0.46c0,0.2-0.09,0.27-0.23,0.27c-0.15,0-0.24-0.08-0.24-0.27
							v-1.68c0-0.2,0.09-0.28,0.24-0.28c0.14,0,0.23,0.08,0.23,0.28v0.35H26.73z M24.53,32.39v3.01h0.47v-3.01H24.53z M23.57,32.39
							h-0.7v3.01h0.47v-1.23h0.23c0.47,0,0.7-0.26,0.7-0.74v-0.3C24.27,32.65,24.04,32.39,23.57,32.39z M23.8,33.46
							c0,0.22-0.08,0.29-0.23,0.29h-0.23v-0.93h0.23c0.15,0,0.23,0.07,0.23,0.29V33.46z M22.07,33.72c-0.3-0.27-0.4-0.43-0.4-0.65
							c0-0.2,0.08-0.29,0.23-0.29c0.15,0,0.23,0.08,0.23,0.3v0.15h0.45V33.1c0-0.48-0.23-0.76-0.69-0.76c-0.46,0-0.7,0.28-0.7,0.75
							c0,0.34,0.12,0.59,0.52,0.94c0.32,0.27,0.41,0.43,0.41,0.68c0,0.22-0.09,0.3-0.25,0.3c-0.15,0-0.25-0.08-0.25-0.29v-0.2h-0.45
							v0.17c0,0.49,0.23,0.76,0.7,0.76c0.47,0,0.72-0.27,0.72-0.77C22.6,34.31,22.47,34.06,22.07,33.72z M28.3,32.82v-0.43h-1.29
							v3.01h1.29v-0.43h-0.82v-0.92h0.65v-0.43h-0.65v-0.8H28.3z M26.73,33.41v-0.32c0-0.46-0.25-0.74-0.7-0.74s-0.7,0.28-0.7,0.74
							v1.62c0,0.47,0.24,0.74,0.7,0.74s0.7-0.27,0.7-0.74v-0.43h-0.45v0.46c0,0.2-0.09,0.27-0.23,0.27c-0.15,0-0.24-0.08-0.24-0.27
							v-1.68c0-0.2,0.09-0.28,0.24-0.28c0.14,0,0.23,0.08,0.23,0.28v0.35H26.73z M24.53,32.39v3.01h0.47v-3.01H24.53z M23.57,32.39
							h-0.7v3.01h0.47v-1.23h0.23c0.47,0,0.7-0.26,0.7-0.74v-0.3C24.27,32.65,24.04,32.39,23.57,32.39z M23.8,33.46
							c0,0.22-0.08,0.29-0.23,0.29h-0.23v-0.93h0.23c0.15,0,0.23,0.07,0.23,0.29V33.46z M22.07,33.72c-0.3-0.27-0.4-0.43-0.4-0.65
							c0-0.2,0.08-0.29,0.23-0.29c0.15,0,0.23,0.08,0.23,0.3v0.15h0.45V33.1c0-0.48-0.23-0.76-0.69-0.76c-0.46,0-0.7,0.28-0.7,0.75
							c0,0.34,0.12,0.59,0.52,0.94c0.32,0.27,0.41,0.43,0.41,0.68c0,0.22-0.09,0.3-0.25,0.3c-0.15,0-0.25-0.08-0.25-0.29v-0.2h-0.45
							v0.17c0,0.49,0.23,0.76,0.7,0.76c0.47,0,0.72-0.27,0.72-0.77C22.6,34.31,22.47,34.06,22.07,33.72z M28.3,32.82v-0.43h-1.29
							v3.01h1.29v-0.43h-0.82v-0.92h0.65v-0.43h-0.65v-0.8H28.3z M26.73,33.41v-0.32c0-0.46-0.25-0.74-0.7-0.74s-0.7,0.28-0.7,0.74
							v1.62c0,0.47,0.24,0.74,0.7,0.74s0.7-0.27,0.7-0.74v-0.43h-0.45v0.46c0,0.2-0.09,0.27-0.23,0.27c-0.15,0-0.24-0.08-0.24-0.27
							v-1.68c0-0.2,0.09-0.28,0.24-0.28c0.14,0,0.23,0.08,0.23,0.28v0.35H26.73z M24.53,32.39v3.01h0.47v-3.01H24.53z M23.57,32.39
							h-0.7v3.01h0.47v-1.23h0.23c0.47,0,0.7-0.26,0.7-0.74v-0.3C24.27,32.65,24.04,32.39,23.57,32.39z M23.8,33.46
							c0,0.22-0.08,0.29-0.23,0.29h-0.23v-0.93h0.23c0.15,0,0.23,0.07,0.23,0.29V33.46z M22.07,33.72c-0.3-0.27-0.4-0.43-0.4-0.65
							c0-0.2,0.08-0.29,0.23-0.29c0.15,0,0.23,0.08,0.23,0.3v0.15h0.45V33.1c0-0.48-0.23-0.76-0.69-0.76c-0.46,0-0.7,0.28-0.7,0.75
							c0,0.34,0.12,0.59,0.52,0.94c0.32,0.27,0.41,0.43,0.41,0.68c0,0.22-0.09,0.3-0.25,0.3c-0.15,0-0.25-0.08-0.25-0.29v-0.2h-0.45
							v0.17c0,0.49,0.23,0.76,0.7,0.76c0.47,0,0.72-0.27,0.72-0.77C22.6,34.31,22.47,34.06,22.07,33.72z M28.3,32.82v-0.43h-1.29
							v3.01h1.29v-0.43h-0.82v-0.92h0.65v-0.43h-0.65v-0.8H28.3z M26.73,33.41v-0.32c0-0.46-0.25-0.74-0.7-0.74s-0.7,0.28-0.7,0.74
							v1.62c0,0.47,0.24,0.74,0.7,0.74s0.7-0.27,0.7-0.74v-0.43h-0.45v0.46c0,0.2-0.09,0.27-0.23,0.27c-0.15,0-0.24-0.08-0.24-0.27
							v-1.68c0-0.2,0.09-0.28,0.24-0.28c0.14,0,0.23,0.08,0.23,0.28v0.35H26.73z M24.53,32.39v3.01h0.47v-3.01H24.53z M23.57,32.39
							h-0.7v3.01h0.47v-1.23h0.23c0.47,0,0.7-0.26,0.7-0.74v-0.3C24.27,32.65,24.04,32.39,23.57,32.39z M23.8,33.46
							c0,0.22-0.08,0.29-0.23,0.29h-0.23v-0.93h0.23c0.15,0,0.23,0.07,0.23,0.29V33.46z M22.07,33.72c-0.3-0.27-0.4-0.43-0.4-0.65
							c0-0.2,0.08-0.29,0.23-0.29c0.15,0,0.23,0.08,0.23,0.3v0.15h0.45V33.1c0-0.48-0.23-0.76-0.69-0.76c-0.46,0-0.7,0.28-0.7,0.75
							c0,0.34,0.12,0.59,0.52,0.94c0.32,0.27,0.41,0.43,0.41,0.68c0,0.22-0.09,0.3-0.25,0.3c-0.15,0-0.25-0.08-0.25-0.29v-0.2h-0.45
							v0.17c0,0.49,0.23,0.76,0.7,0.76c0.47,0,0.72-0.27,0.72-0.77C22.6,34.31,22.47,34.06,22.07,33.72z M28.3,32.82v-0.43h-1.29
							v3.01h1.29v-0.43h-0.82v-0.92h0.65v-0.43h-0.65v-0.8H28.3z M26.73,33.41v-0.32c0-0.46-0.25-0.74-0.7-0.74s-0.7,0.28-0.7,0.74
							v1.62c0,0.47,0.24,0.74,0.7,0.74s0.7-0.27,0.7-0.74v-0.43h-0.45v0.46c0,0.2-0.09,0.27-0.23,0.27c-0.15,0-0.24-0.08-0.24-0.27
							v-1.68c0-0.2,0.09-0.28,0.24-0.28c0.14,0,0.23,0.08,0.23,0.28v0.35H26.73z M24.53,32.39v3.01h0.47v-3.01H24.53z M23.57,32.39
							h-0.7v3.01h0.47v-1.23h0.23c0.47,0,0.7-0.26,0.7-0.74v-0.3C24.27,32.65,24.04,32.39,23.57,32.39z M23.8,33.46
							c0,0.22-0.08,0.29-0.23,0.29h-0.23v-0.93h0.23c0.15,0,0.23,0.07,0.23,0.29V33.46z M22.07,33.72c-0.3-0.27-0.4-0.43-0.4-0.65
							c0-0.2,0.08-0.29,0.23-0.29c0.15,0,0.23,0.08,0.23,0.3v0.15h0.45V33.1c0-0.48-0.23-0.76-0.69-0.76c-0.46,0-0.7,0.28-0.7,0.75
							c0,0.34,0.12,0.59,0.52,0.94c0.32,0.27,0.41,0.43,0.41,0.68c0,0.22-0.09,0.3-0.25,0.3c-0.15,0-0.25-0.08-0.25-0.29v-0.2h-0.45
							v0.17c0,0.49,0.23,0.76,0.7,0.76c0.47,0,0.72-0.27,0.72-0.77C22.6,34.31,22.47,34.06,22.07,33.72z M28.3,32.82v-0.43h-1.29
							v3.01h1.29v-0.43h-0.82v-0.92h0.65v-0.43h-0.65v-0.8H28.3z M26.73,33.41v-0.32c0-0.46-0.25-0.74-0.7-0.74s-0.7,0.28-0.7,0.74
							v1.62c0,0.47,0.24,0.74,0.7,0.74s0.7-0.27,0.7-0.74v-0.43h-0.45v0.46c0,0.2-0.09,0.27-0.23,0.27c-0.15,0-0.24-0.08-0.24-0.27
							v-1.68c0-0.2,0.09-0.28,0.24-0.28c0.14,0,0.23,0.08,0.23,0.28v0.35H26.73z M24.53,32.39v3.01h0.47v-3.01H24.53z M23.57,32.39
							h-0.7v3.01h0.47v-1.23h0.23c0.47,0,0.7-0.26,0.7-0.74v-0.3C24.27,32.65,24.04,32.39,23.57,32.39z M23.8,33.46
							c0,0.22-0.08,0.29-0.23,0.29h-0.23v-0.93h0.23c0.15,0,0.23,0.07,0.23,0.29V33.46z M22.07,33.72c-0.3-0.27-0.4-0.43-0.4-0.65
							c0-0.2,0.08-0.29,0.23-0.29c0.15,0,0.23,0.08,0.23,0.3v0.15h0.45V33.1c0-0.48-0.23-0.76-0.69-0.76c-0.46,0-0.7,0.28-0.7,0.75
							c0,0.34,0.12,0.59,0.52,0.94c0.32,0.27,0.41,0.43,0.41,0.68c0,0.22-0.09,0.3-0.25,0.3c-0.15,0-0.25-0.08-0.25-0.29v-0.2h-0.45
							v0.17c0,0.49,0.23,0.76,0.7,0.76c0.47,0,0.72-0.27,0.72-0.77C22.6,34.31,22.47,34.06,22.07,33.72z M28.3,32.82v-0.43h-1.29
							v3.01h1.29v-0.43h-0.82v-0.92h0.65v-0.43h-0.65v-0.8H28.3z M26.73,33.41v-0.32c0-0.46-0.25-0.74-0.7-0.74s-0.7,0.28-0.7,0.74
							v1.62c0,0.47,0.24,0.74,0.7,0.74s0.7-0.27,0.7-0.74v-0.43h-0.45v0.46c0,0.2-0.09,0.27-0.23,0.27c-0.15,0-0.24-0.08-0.24-0.27
							v-1.68c0-0.2,0.09-0.28,0.24-0.28c0.14,0,0.23,0.08,0.23,0.28v0.35H26.73z M24.53,32.39v3.01h0.47v-3.01H24.53z M23.57,32.39
							h-0.7v3.01h0.47v-1.23h0.23c0.47,0,0.7-0.26,0.7-0.74v-0.3C24.27,32.65,24.04,32.39,23.57,32.39z M23.8,33.46
							c0,0.22-0.08,0.29-0.23,0.29h-0.23v-0.93h0.23c0.15,0,0.23,0.07,0.23,0.29V33.46z M22.07,33.72c-0.3-0.27-0.4-0.43-0.4-0.65
							c0-0.2,0.08-0.29,0.23-0.29c0.15,0,0.23,0.08,0.23,0.3v0.15h0.45V33.1c0-0.48-0.23-0.76-0.69-0.76c-0.46,0-0.7,0.28-0.7,0.75
							c0,0.34,0.12,0.59,0.52,0.94c0.32,0.27,0.41,0.43,0.41,0.68c0,0.22-0.09,0.3-0.25,0.3c-0.15,0-0.25-0.08-0.25-0.29v-0.2h-0.45
							v0.17c0,0.49,0.23,0.76,0.7,0.76c0.47,0,0.72-0.27,0.72-0.77C22.6,34.31,22.47,34.06,22.07,33.72z M28.3,32.82v-0.43h-1.29
							v3.01h1.29v-0.43h-0.82v-0.92h0.65v-0.43h-0.65v-0.8H28.3z M26.73,33.41v-0.32c0-0.46-0.25-0.74-0.7-0.74s-0.7,0.28-0.7,0.74
							v1.62c0,0.47,0.24,0.74,0.7,0.74s0.7-0.27,0.7-0.74v-0.43h-0.45v0.46c0,0.2-0.09,0.27-0.23,0.27c-0.15,0-0.24-0.08-0.24-0.27
							v-1.68c0-0.2,0.09-0.28,0.24-0.28c0.14,0,0.23,0.08,0.23,0.28v0.35H26.73z M24.53,32.39v3.01h0.47v-3.01H24.53z M23.57,32.39
							h-0.7v3.01h0.47v-1.23h0.23c0.47,0,0.7-0.26,0.7-0.74v-0.3C24.27,32.65,24.04,32.39,23.57,32.39z M23.8,33.46
							c0,0.22-0.08,0.29-0.23,0.29h-0.23v-0.93h0.23c0.15,0,0.23,0.07,0.23,0.29V33.46z M22.07,33.72c-0.3-0.27-0.4-0.43-0.4-0.65
							c0-0.2,0.08-0.29,0.23-0.29c0.15,0,0.23,0.08,0.23,0.3v0.15h0.45V33.1c0-0.48-0.23-0.76-0.69-0.76c-0.46,0-0.7,0.28-0.7,0.75
							c0,0.34,0.12,0.59,0.52,0.94c0.32,0.27,0.41,0.43,0.41,0.68c0,0.22-0.09,0.3-0.25,0.3c-0.15,0-0.25-0.08-0.25-0.29v-0.2h-0.45
							v0.17c0,0.49,0.23,0.76,0.7,0.76c0.47,0,0.72-0.27,0.72-0.77C22.6,34.31,22.47,34.06,22.07,33.72z M28.3,32.82v-0.43h-1.29
							v3.01h1.29v-0.43h-0.82v-0.92h0.65v-0.43h-0.65v-0.8H28.3z M26.73,33.41v-0.32c0-0.46-0.25-0.74-0.7-0.74s-0.7,0.28-0.7,0.74
							v1.62c0,0.47,0.24,0.74,0.7,0.74s0.7-0.27,0.7-0.74v-0.43h-0.45v0.46c0,0.2-0.09,0.27-0.23,0.27c-0.15,0-0.24-0.08-0.24-0.27
							v-1.68c0-0.2,0.09-0.28,0.24-0.28c0.14,0,0.23,0.08,0.23,0.28v0.35H26.73z M24.53,32.39v3.01h0.47v-3.01H24.53z M23.57,32.39
							h-0.7v3.01h0.47v-1.23h0.23c0.47,0,0.7-0.26,0.7-0.74v-0.3C24.27,32.65,24.04,32.39,23.57,32.39z M23.8,33.46
							c0,0.22-0.08,0.29-0.23,0.29h-0.23v-0.93h0.23c0.15,0,0.23,0.07,0.23,0.29V33.46z M22.07,33.72c-0.3-0.27-0.4-0.43-0.4-0.65
							c0-0.2,0.08-0.29,0.23-0.29c0.15,0,0.23,0.08,0.23,0.3v0.15h0.45V33.1c0-0.48-0.23-0.76-0.69-0.76c-0.46,0-0.7,0.28-0.7,0.75
							c0,0.34,0.12,0.59,0.52,0.94c0.32,0.27,0.41,0.43,0.41,0.68c0,0.22-0.09,0.3-0.25,0.3c-0.15,0-0.25-0.08-0.25-0.29v-0.2h-0.45
							v0.17c0,0.49,0.23,0.76,0.7,0.76c0.47,0,0.72-0.27,0.72-0.77C22.6,34.31,22.47,34.06,22.07,33.72z M28.3,32.82v-0.43h-1.29
							v3.01h1.29v-0.43h-0.82v-0.92h0.65v-0.43h-0.65v-0.8H28.3z M26.73,33.41v-0.32c0-0.46-0.25-0.74-0.7-0.74s-0.7,0.28-0.7,0.74
							v1.62c0,0.47,0.24,0.74,0.7,0.74s0.7-0.27,0.7-0.74v-0.43h-0.45v0.46c0,0.2-0.09,0.27-0.23,0.27c-0.15,0-0.24-0.08-0.24-0.27
							v-1.68c0-0.2,0.09-0.28,0.24-0.28c0.14,0,0.23,0.08,0.23,0.28v0.35H26.73z M24.53,32.39v3.01h0.47v-3.01H24.53z M23.57,32.39
							h-0.7v3.01h0.47v-1.23h0.23c0.47,0,0.7-0.26,0.7-0.74v-0.3C24.27,32.65,24.04,32.39,23.57,32.39z M23.8,33.46
							c0,0.22-0.08,0.29-0.23,0.29h-0.23v-0.93h0.23c0.15,0,0.23,0.07,0.23,0.29V33.46z M22.07,33.72c-0.3-0.27-0.4-0.43-0.4-0.65
							c0-0.2,0.08-0.29,0.23-0.29c0.15,0,0.23,0.08,0.23,0.3v0.15h0.45V33.1c0-0.48-0.23-0.76-0.69-0.76c-0.46,0-0.7,0.28-0.7,0.75
							c0,0.34,0.12,0.59,0.52,0.94c0.32,0.27,0.41,0.43,0.41,0.68c0,0.22-0.09,0.3-0.25,0.3c-0.15,0-0.25-0.08-0.25-0.29v-0.2h-0.45
							v0.17c0,0.49,0.23,0.76,0.7,0.76c0.47,0,0.72-0.27,0.72-0.77C22.6,34.31,22.47,34.06,22.07,33.72z M28.3,32.82v-0.43h-1.29
							v3.01h1.29v-0.43h-0.82v-0.92h0.65v-0.43h-0.65v-0.8H28.3z M26.73,33.41v-0.32c0-0.46-0.25-0.74-0.7-0.74s-0.7,0.28-0.7,0.74
							v1.62c0,0.47,0.24,0.74,0.7,0.74s0.7-0.27,0.7-0.74v-0.43h-0.45v0.46c0,0.2-0.09,0.27-0.23,0.27c-0.15,0-0.24-0.08-0.24-0.27
							v-1.68c0-0.2,0.09-0.28,0.24-0.28c0.14,0,0.23,0.08,0.23,0.28v0.35H26.73z M24.53,32.39v3.01h0.47v-3.01H24.53z M23.57,32.39
							h-0.7v3.01h0.47v-1.23h0.23c0.47,0,0.7-0.26,0.7-0.74v-0.3C24.27,32.65,24.04,32.39,23.57,32.39z M23.8,33.46
							c0,0.22-0.08,0.29-0.23,0.29h-0.23v-0.93h0.23c0.15,0,0.23,0.07,0.23,0.29V33.46z M22.07,33.72c-0.3-0.27-0.4-0.43-0.4-0.65
							c0-0.2,0.08-0.29,0.23-0.29c0.15,0,0.23,0.08,0.23,0.3v0.15h0.45V33.1c0-0.48-0.23-0.76-0.69-0.76c-0.46,0-0.7,0.28-0.7,0.75
							c0,0.34,0.12,0.59,0.52,0.94c0.32,0.27,0.41,0.43,0.41,0.68c0,0.22-0.09,0.3-0.25,0.3c-0.15,0-0.25-0.08-0.25-0.29v-0.2h-0.45
							v0.17c0,0.49,0.23,0.76,0.7,0.76c0.47,0,0.72-0.27,0.72-0.77C22.6,34.31,22.47,34.06,22.07,33.72z M28.3,32.82v-0.43h-1.29
							v3.01h1.29v-0.43h-0.82v-0.92h0.65v-0.43h-0.65v-0.8H28.3z M26.73,33.41v-0.32c0-0.46-0.25-0.74-0.7-0.74s-0.7,0.28-0.7,0.74
							v1.62c0,0.47,0.24,0.74,0.7,0.74s0.7-0.27,0.7-0.74v-0.43h-0.45v0.46c0,0.2-0.09,0.27-0.23,0.27c-0.15,0-0.24-0.08-0.24-0.27
							v-1.68c0-0.2,0.09-0.28,0.24-0.28c0.14,0,0.23,0.08,0.23,0.28v0.35H26.73z M24.53,32.39v3.01h0.47v-3.01H24.53z M23.57,32.39
							h-0.7v3.01h0.47v-1.23h0.23c0.47,0,0.7-0.26,0.7-0.74v-0.3C24.27,32.65,24.04,32.39,23.57,32.39z M23.8,33.46
							c0,0.22-0.08,0.29-0.23,0.29h-0.23v-0.93h0.23c0.15,0,0.23,0.07,0.23,0.29V33.46z M22.07,33.72c-0.3-0.27-0.4-0.43-0.4-0.65
							c0-0.2,0.08-0.29,0.23-0.29c0.15,0,0.23,0.08,0.23,0.3v0.15h0.45V33.1c0-0.48-0.23-0.76-0.69-0.76c-0.46,0-0.7,0.28-0.7,0.75
							c0,0.34,0.12,0.59,0.52,0.94c0.32,0.27,0.41,0.43,0.41,0.68c0,0.22-0.09,0.3-0.25,0.3c-0.15,0-0.25-0.08-0.25-0.29v-0.2h-0.45
							v0.17c0,0.49,0.23,0.76,0.7,0.76c0.47,0,0.72-0.27,0.72-0.77C22.6,34.31,22.47,34.06,22.07,33.72z M28.3,32.82v-0.43h-1.29
							v3.01h1.29v-0.43h-0.82v-0.92h0.65v-0.43h-0.65v-0.8H28.3z M26.73,33.41v-0.32c0-0.46-0.25-0.74-0.7-0.74s-0.7,0.28-0.7,0.74
							v1.62c0,0.47,0.24,0.74,0.7,0.74s0.7-0.27,0.7-0.74v-0.43h-0.45v0.46c0,0.2-0.09,0.27-0.23,0.27c-0.15,0-0.24-0.08-0.24-0.27
							v-1.68c0-0.2,0.09-0.28,0.24-0.28c0.14,0,0.23,0.08,0.23,0.28v0.35H26.73z M24.53,32.39v3.01h0.47v-3.01H24.53z M23.57,32.39
							h-0.7v3.01h0.47v-1.23h0.23c0.47,0,0.7-0.26,0.7-0.74v-0.3C24.27,32.65,24.04,32.39,23.57,32.39z M23.8,33.46
							c0,0.22-0.08,0.29-0.23,0.29h-0.23v-0.93h0.23c0.15,0,0.23,0.07,0.23,0.29V33.46z M22.07,33.72c-0.3-0.27-0.4-0.43-0.4-0.65
							c0-0.2,0.08-0.29,0.23-0.29c0.15,0,0.23,0.08,0.23,0.3v0.15h0.45V33.1c0-0.48-0.23-0.76-0.69-0.76c-0.46,0-0.7,0.28-0.7,0.75
							c0,0.34,0.12,0.59,0.52,0.94c0.32,0.27,0.41,0.43,0.41,0.68c0,0.22-0.09,0.3-0.25,0.3c-0.15,0-0.25-0.08-0.25-0.29v-0.2h-0.45
							v0.17c0,0.49,0.23,0.76,0.7,0.76c0.47,0,0.72-0.27,0.72-0.77C22.6,34.31,22.47,34.06,22.07,33.72z"/>
					</g>
				</g>
			</g>
		</g>
	</g>
	<g>
		<g>
			<g>
				<g>
					<g>
						<path class="st0" d="M11.63,11.81c-0.09-0.08-0.16-0.17-0.2-0.27c-0.08,0.13-0.2,0.32-0.4,0.4c0.06,0.03,0.11,0.07,0.17,0.11
							c0.11,0.09,0.19,0.19,0.25,0.29c0.03-0.05,0.06-0.1,0.1-0.15c0.08-0.11,0.18-0.19,0.27-0.25
							C11.75,11.91,11.69,11.87,11.63,11.81z M11.63,11.81c-0.09-0.08-0.16-0.17-0.2-0.27c-0.08,0.13-0.2,0.32-0.4,0.4
							c0.06,0.03,0.11,0.07,0.17,0.11c0.11,0.09,0.19,0.19,0.25,0.29c0.03-0.05,0.06-0.1,0.1-0.15c0.08-0.11,0.18-0.19,0.27-0.25
							C11.75,11.91,11.69,11.87,11.63,11.81z M11.63,11.81c-0.09-0.08-0.16-0.17-0.2-0.27c-0.08,0.13-0.2,0.32-0.4,0.4
							c0.06,0.03,0.11,0.07,0.17,0.11c0.11,0.09,0.19,0.19,0.25,0.29c0.03-0.05,0.06-0.1,0.1-0.15c0.08-0.11,0.18-0.19,0.27-0.25
							C11.75,11.91,11.69,11.87,11.63,11.81z M11.45,42.63c-0.09,0.19-0.23,0.34-0.42,0.44c0.18,0.09,0.29,0.25,0.4,0.4
							c0,0,0.01,0,0.01,0.01c0.03-0.06,0.06-0.12,0.11-0.17c0.09-0.12,0.19-0.2,0.3-0.27C11.7,42.95,11.53,42.82,11.45,42.63z
							 M44.67,11.8c-0.07-0.07-0.13-0.15-0.18-0.23c-0.05,0.09-0.12,0.18-0.2,0.25c-0.06,0.05-0.12,0.1-0.19,0.13
							c0.06,0.04,0.12,0.08,0.17,0.12c0.09,0.08,0.17,0.17,0.22,0.26c0.04-0.08,0.09-0.15,0.15-0.2c0.07-0.08,0.15-0.13,0.23-0.18
							C44.81,11.91,44.74,11.86,44.67,11.8z M11.63,11.81c-0.09-0.08-0.16-0.17-0.2-0.27c-0.08,0.13-0.2,0.32-0.4,0.4
							c0.06,0.03,0.11,0.07,0.17,0.11c0.11,0.09,0.19,0.19,0.25,0.29c0.03-0.05,0.06-0.1,0.1-0.15c0.08-0.11,0.18-0.19,0.27-0.25
							C11.75,11.91,11.69,11.87,11.63,11.81z M11.63,11.81c-0.09-0.08-0.16-0.17-0.2-0.27c-0.08,0.13-0.2,0.32-0.4,0.4
							c0.06,0.03,0.11,0.07,0.17,0.11c0.11,0.09,0.19,0.19,0.25,0.29c0.03-0.05,0.06-0.1,0.1-0.15c0.08-0.11,0.18-0.19,0.27-0.25
							C11.75,11.91,11.69,11.87,11.63,11.81z"/>
						<path class="st0" d="M28,0C12.54,0,0,12.54,0,28c0,15.47,12.54,28,28,28s28-12.53,28-28C56,12.54,43.46,0,28,0z M13.73,44.73
							c-0.02,0.02-0.04,0.06-0.06,0.1c-0.08,0.14-0.19,0.34-0.4,0.43c-0.12,0.05-0.28,0.09-0.44,0.09c-0.18,0-0.35-0.04-0.49-0.13
							c-0.34-0.23-0.61-0.54-0.83-0.82c-0.03-0.04-0.05-0.07-0.08-0.11c-0.03,0.06-0.06,0.12-0.11,0.18v0.01
							c-0.2,0.23-0.43,0.46-0.69,0.69c-0.18,0.16-0.39,0.24-0.61,0.24c-0.23,0-0.45-0.09-0.63-0.26c-0.37-0.34-0.4-0.9-0.07-1.28
							l0.06-0.07c0.2-0.23,0.4-0.46,0.67-0.63c0.05-0.04,0.11-0.06,0.17-0.08c-0.03-0.02-0.06-0.04-0.09-0.05
							c-0.36-0.26-0.67-0.57-0.88-0.89c-0.18-0.29-0.09-0.73,0.01-0.96c0.11-0.22,0.3-0.38,0.54-0.44c0.21-0.05,0.42-0.01,0.58,0.11
							c0.3,0.23,0.57,0.51,0.81,0.79c0.08,0.08,0.15,0.16,0.23,0.25l0.02,0.02c0.02-0.07,0.05-0.13,0.09-0.19V41.7
							c0.19-0.3,0.46-0.53,0.74-0.76c0.34-0.29,0.78-0.29,1.15,0.01c0.38,0.3,0.47,0.77,0.23,1.13c-0.22,0.29-0.48,0.53-0.74,0.77
							l-0.21,0.19c-0.02,0.02-0.03,0.04-0.05,0.05c0.29,0.22,0.54,0.49,0.79,0.75l0.2,0.2c0.1,0.1,0.11,0.22,0.12,0.32
							c0,0.04,0.01,0.08,0.02,0.14l0.02,0.13L13.73,44.73z M13.42,12.69c0.08,0.08,0.15,0.16,0.23,0.24c0.1,0.1,0.12,0.23,0.12,0.34
							c0.01,0.04,0.01,0.08,0.02,0.13l0.02,0.13l-0.08,0.1c-0.02,0.02-0.03,0.06-0.06,0.09c-0.08,0.14-0.2,0.33-0.4,0.43h-0.01
							c-0.25,0.11-0.65,0.12-0.92-0.05c-0.33-0.22-0.59-0.51-0.81-0.78c-0.04-0.05-0.07-0.09-0.09-0.15
							c-0.01,0.01-0.02,0.02-0.02,0.04c-0.21,0.28-0.46,0.51-0.7,0.73l-0.2,0.18c-0.1,0.09-0.21,0.12-0.32,0.14
							c-0.05,0.01-0.1,0.02-0.16,0.05l-0.15,0.05l-0.12-0.11c-0.03-0.02-0.08-0.05-0.12-0.08c-0.15-0.11-0.34-0.23-0.43-0.44
							c-0.11-0.26-0.07-0.66,0.09-0.91v-0.01c0.19-0.3,0.49-0.54,0.74-0.75c0.05-0.05,0.11-0.09,0.16-0.12
							c-0.04-0.02-0.07-0.04-0.11-0.06c-0.35-0.23-0.64-0.52-0.82-0.84c-0.16-0.28-0.13-0.7-0.01-0.98C9.36,9.86,9.55,9.7,9.77,9.63
							c0.22-0.06,0.46-0.02,0.64,0.11c0.3,0.22,0.56,0.5,0.8,0.76c0.07,0.08,0.14,0.16,0.21,0.23c0.01,0,0.01,0.01,0.01,0.01
							c0.04-0.08,0.08-0.15,0.14-0.22l0.05-0.06c0.19-0.22,0.4-0.48,0.68-0.64c0.27-0.15,0.65-0.18,0.94-0.08
							c0.22,0.08,0.33,0.26,0.43,0.43c0.03,0.05,0.07,0.11,0.11,0.15l0.11,0.15l-0.08,0.16c-0.03,0.06-0.05,0.12-0.07,0.17
							c-0.06,0.13-0.11,0.26-0.2,0.37l-0.01,0.01c-0.17,0.19-0.36,0.39-0.63,0.63c-0.08,0.07-0.16,0.12-0.25,0.16
							C12.93,12.19,13.18,12.45,13.42,12.69z M15.35,47.03c-0.93,0-1.23-0.3-1.23-1.24V21.7c0.01-0.67,0.01-1.33-0.01-2
							c-0.03-1.4,0.35-2.67,1.17-3.89c0.86-1.28,1.74-2.6,2.59-3.92c0.08-0.12,0.13-0.3,0.13-0.46c0.02-0.41,0.01-0.81,0.01-1.21
							v-0.7c0.01-0.68,0.37-1.05,1.05-1.05c6.16-0.01,12.31-0.01,18.47-0.01c0.68,0.01,1.04,0.37,1.05,1.05c0,0.09,0.01,0.14,0,0.19
							c-0.17,1.32,0.15,2.55,0.97,3.77c0.38,0.55,0.7,1.15,1.01,1.72c0.18,0.33,0.35,0.66,0.54,0.98c0.49,0.82,0.71,1.71,0.71,2.71
							c-0.01,3.26-0.01,6.53-0.01,9.79v3.79l-0.49-0.42c-0.35-0.3-0.76-0.56-1.2-0.76l-0.17-0.08v-0.19c0-4.11,0-8.22,0.01-12.32
							c0-0.53-0.13-1.02-0.4-1.49c-0.63-1.12-1.26-2.23-1.88-3.35c-0.19,0.35-0.38,0.7-0.57,1.04c-0.44,0.81-0.88,1.6-1.3,2.4
							c-0.28,0.54-0.43,1.19-0.43,1.92c-0.01,4.09-0.01,8.18-0.01,12.27v0.15l-0.12,0.09c-0.48,0.33-0.89,0.73-1.23,1.19l-0.53,0.73
							V22.71H16.01v22.43h15.75v1.26c0,0.09,0.01,0.19,0.02,0.29l0.06,0.34H15.35z M31.47,30.02v7.74c0,1.72-1.12,2.83-2.84,2.83
							h-7.74c-1.71,0-2.81-1.1-2.81-2.82c-0.01-2.59-0.01-5.18,0-7.77c0-1.73,1.08-2.8,2.81-2.8c0.87-0.01,1.73,0,2.6,0h2.59
							c0.87,0,1.73-0.01,2.6,0C30.37,27.21,31.47,28.32,31.47,30.02z M44.13,46.4c0,0.63-0.51,1.13-1.13,1.13h-9.84
							c-0.46,0-0.87-0.27-1.05-0.68c-0.06-0.15-0.09-0.3-0.09-0.45v-7.63c0-0.62,0.51-1.13,1.13-1.13h0.18v-1.78
							c0-0.43,0.06-0.85,0.17-1.25c0.23-0.86,0.71-1.64,1.37-2.25c0.88-0.8,2.01-1.25,3.2-1.25c0.82,0,1.61,0.21,2.31,0.61
							c0.53,0.29,0.98,0.68,1.36,1.14c0.7,0.86,1.08,1.89,1.08,3v1.78h0.18c0.63,0,1.13,0.51,1.13,1.13V46.4z M46.78,44.76
							c-0.02,0.03-0.04,0.06-0.06,0.1c-0.08,0.13-0.2,0.31-0.4,0.4c-0.12,0.06-0.27,0.09-0.44,0.09c-0.17,0-0.34-0.04-0.47-0.13
							c-0.29-0.2-0.56-0.47-0.85-0.85c-0.08-0.09-0.13-0.2-0.15-0.28c-0.05-0.16-0.04-0.31-0.01-0.45c0.05-0.16,0.14-0.29,0.26-0.39
							c0.07-0.06,0.19-0.13,0.33-0.19c-0.04-0.01-0.08-0.03-0.11-0.05c-0.27-0.15-0.43-0.51-0.46-0.78
							c-0.03-0.29,0.18-0.58,0.36-0.79c0.31-0.35,0.82-0.71,1.24-0.71h0.09l0.08,0.05c0.01,0.01,0.04,0.02,0.06,0.04
							c0.13,0.07,0.35,0.19,0.45,0.4c0.12,0.26,0.14,0.67-0.04,0.94l-0.01,0.01c-0.22,0.33-0.52,0.62-0.84,0.84
							c-0.04,0.02-0.09,0.05-0.14,0.06c0.32,0.23,0.59,0.51,0.85,0.78l0.19,0.2c0.1,0.11,0.11,0.23,0.12,0.33
							c0,0.04,0.01,0.09,0.01,0.15l0.02,0.13L46.78,44.76z M46.86,10.63c-0.04,0.07-0.06,0.13-0.08,0.19
							c-0.06,0.13-0.11,0.25-0.2,0.36c-0.17,0.2-0.37,0.42-0.63,0.64c-0.06,0.06-0.13,0.11-0.2,0.14c0.06,0.04,0.12,0.08,0.18,0.12
							l0.09,0.08c0.22,0.19,0.46,0.4,0.61,0.67c0.15,0.24,0.19,0.64,0.08,0.93c-0.08,0.21-0.26,0.33-0.43,0.44
							c-0.05,0.04-0.1,0.06-0.15,0.1l-0.15,0.12l-0.16-0.08c-0.06-0.03-0.12-0.06-0.18-0.08c-0.13-0.05-0.25-0.11-0.36-0.2
							c-0.2-0.17-0.41-0.37-0.64-0.64c-0.07-0.07-0.12-0.15-0.16-0.23c0,0.01,0,0.01-0.01,0.01c-0.22,0.29-0.49,0.54-0.75,0.78
							l-0.22,0.19c-0.1,0.09-0.21,0.11-0.31,0.12c-0.04,0.01-0.08,0.01-0.14,0.02l-0.12,0.02l-0.11-0.07
							c-0.02-0.02-0.06-0.04-0.09-0.06c-0.15-0.09-0.36-0.2-0.44-0.42c-0.11-0.25-0.13-0.67,0.04-0.93c0.21-0.32,0.5-0.57,0.81-0.82
							c0.03-0.03,0.06-0.05,0.1-0.07c-0.08-0.04-0.15-0.09-0.22-0.15l-0.09-0.08c-0.21-0.19-0.43-0.38-0.58-0.63
							c-0.15-0.26-0.19-0.64-0.09-0.91c0.08-0.21,0.26-0.33,0.42-0.44c0.05-0.04,0.11-0.07,0.15-0.11l0.15-0.12l0.18,0.08
							c0.07,0.04,0.14,0.06,0.2,0.09c0.13,0.05,0.25,0.1,0.35,0.19c0.22,0.19,0.42,0.39,0.64,0.64c0.06,0.06,0.11,0.14,0.15,0.22
							c0.04-0.08,0.08-0.14,0.14-0.2l0.09-0.11c0.18-0.2,0.38-0.43,0.64-0.59c0.26-0.16,0.64-0.19,0.91-0.09
							c0.21,0.09,0.33,0.27,0.44,0.44c0.03,0.05,0.07,0.11,0.11,0.15l0.12,0.14L46.86,10.63z"/>
					</g>
				</g>
			</g>
		</g>
	</g>
</g>
</svg>
