<?xml version="1.0" encoding="utf-8"?>
<!-- Generator: Adobe Illustrator 25.2.1, SVG Export Plug-In . SVG Version: 6.00 Build 0)  -->
<svg version="1.1" id="Layer_1" xmlns="http://www.w3.org/2000/svg" xmlns:xlink="http://www.w3.org/1999/xlink" x="0px" y="0px"
	 viewBox="0 0 56 56" style="enable-background:new 0 0 56 56;" xml:space="preserve">
<style type="text/css">
	.st0{fill:#034225;}
</style>
<g>
	<path class="st0" d="M12.51,33.88c-0.55,0.06-0.67-0.2-0.67-0.7c0.02-3.46,0.02-6.91,0-10.36c-0.01-0.56,0.19-0.72,0.73-0.72
		c1.83,0,1.83-0.02,1.83,1.8v9.11c0,0.86,0,0.86-0.9,0.87C13.18,33.88,12.85,33.85,12.51,33.88z"/>
	<path class="st0" d="M25.55,31.72c0.65-0.56,0.59-1.68-0.19-2.11c-0.55-0.31-1.18-0.46-1.79-0.67c-0.83-0.29-1.7-0.51-2.5-0.87
		c-1.11-0.5-1.69-1.41-1.69-2.64c0.01-1.24,0.48-2.29,1.62-2.85c1.86-0.92,3.76-0.9,5.61,0.09c0.77,0.41,1.24,1.11,1.5,1.95
		c0.15,0.48,0.08,0.79-0.53,0.73c-0.31-0.02-0.63-0.02-0.94,0c-0.56,0.05-0.94-0.04-1.23-0.67c-0.42-0.94-2.38-1.14-3.11-0.41
		c-0.53,0.53-0.42,1.47,0.27,1.81c0.55,0.27,1.17,0.4,1.75,0.6c0.87,0.31,1.8,0.53,2.6,0.97c2.22,1.22,2.23,4.45-0.01,5.66
		c-0.92,0.49-2.03,0.64-3.06,0.94c-0.02-0.06-0.04-0.12-0.05-0.19c-1.17-0.02-2.3-0.2-3.28-0.9c-0.73-0.53-1.19-1.24-1.43-2.1
		c-0.12-0.4,0-0.65,0.47-0.63c0.29,0.02,0.58,0.02,0.87,0c0.66-0.05,1.11,0.05,1.46,0.77C22.43,32.23,24.66,32.48,25.55,31.72z"/>
	<path class="st0" d="M41.4,22.66c-2.04-1.1-4.17-1.04-6.13,0.2c-2.07,1.31-2.64,3.39-2.5,5.71c0.28,4.55,3.97,6.25,7.57,5.17
		c2.39-0.7,3.8-2.91,3.81-6C44.1,25.75,43.48,23.78,41.4,22.66z M41.17,30.11c-0.44,1.17-1.31,1.82-2.57,1.86
		c-1.28,0.05-2.26-0.48-2.74-1.67c-0.31-0.74-0.42-1.56-0.57-2.16c0.1-0.72,0.14-1.23,0.26-1.72c0.38-1.6,1.37-2.41,2.88-2.41
		c1.5,0,2.51,0.82,2.91,2.39C41.65,27.66,41.62,28.91,41.17,30.11z"/>
	<path class="st0" d="M28-0.04C12.52-0.04-0.04,12.51-0.04,28c0,15.49,12.56,28.04,28.04,28.04S56.04,43.49,56.04,28
		C56.04,12.51,43.49-0.04,28-0.04z M32.16,53.37C18.39,55.67,5.16,46.3,2.72,32.53C0.36,19.23,8.6,6.32,21.68,3.12
		c9.07-2.22,17.14-0.03,24.05,6.28c0.06,0.05,0.17,0.11,0.19,0.18c0.05,0.25,0.06,0.5,0.09,0.76c-0.24-0.02-0.53,0.03-0.7-0.09
		c-0.41-0.29-0.76-0.68-1.14-1.01C30.18-2.73,8.6,4.07,4,21.88C0.47,35.52,9.29,49.54,23.13,52.29c13.4,2.67,26.57-6.08,29.15-19.45
		c1.38-7.2-0.12-13.8-4.48-19.73c-0.23-0.31-0.72-0.68-0.24-1.07c0.5-0.4,0.72,0.18,0.95,0.49c3.45,4.57,5.16,9.73,5.18,13.91
		C53.68,40.57,44.59,51.3,32.16,53.37z M51.03,28.02C51.01,40.74,40.7,51.04,27.98,51.03c-12.72-0.02-23.03-10.34-23-23.05
		c0.02-12.73,10.32-23.02,23.04-23C40.74,4.99,51.05,15.3,51.03,28.02z"/>
	<path class="st0" d="M7.63,36.41h40.73c-1.82,5.23-7.71,11.66-15.93,13.23c0.44-0.37,0.83-0.67,1.19-1.01
		c2.37-2.2,3.8-4.97,4.89-7.95c0.18-0.5,0.39-1,0.48-1.51c0.05-0.24-0.15-0.52-0.23-0.78c-0.21,0.17-0.56,0.3-0.63,0.52
		c-0.66,2.11-1.5,4.16-2.68,6.05c-0.95,1.52-2.08,2.86-3.56,3.89c-1,0.68-2.09,1.14-3.42,1.25V39.44c0-0.2,0.05-0.43-0.02-0.6
		c-0.08-0.19-0.29-0.32-0.43-0.48c-0.15,0.15-0.36,0.28-0.45,0.46c-0.08,0.16-0.02,0.39-0.02,0.59v10.67
		c-1.83-0.17-3.25-0.97-4.5-2.11c-2.13-1.95-3.45-4.41-4.47-7.06c-0.26-0.63-0.45-1.29-0.66-1.94c-0.11-0.32-0.2-0.7-0.65-0.59
		c-0.46,0.12-0.36,0.5-0.26,0.82c1.26,3.98,2.98,7.68,6.43,10.3c0.03,0.02,0.05,0.08,0.07,0.12C15.74,48.2,9.65,42.03,7.63,36.41z"
		/>
	<path class="st0" d="M48.39,19.58H7.62c2.04-5.49,7.8-11.62,15.91-13.21c-0.07,0.09-0.1,0.15-0.15,0.19
		C19.93,9.2,18.23,12.9,17,16.9c-0.06,0.2,0.07,0.63,0.23,0.7c0.42,0.19,0.56-0.18,0.66-0.51c0.75-2.47,1.75-4.83,3.27-6.93
		c1.23-1.69,2.68-3.14,4.7-3.86c0.5-0.19,1.04-0.27,1.68-0.43v10.81c0,0.22-0.02,0.46,0.06,0.65c0.06,0.15,0.28,0.29,0.43,0.3
		c0.12,0.01,0.32-0.16,0.37-0.29c0.07-0.22,0.06-0.48,0.06-0.72V5.93c1.48,0.1,2.67,0.67,3.76,1.5c2.27,1.73,3.69,4.09,4.79,6.66
		c0.39,0.91,0.69,1.86,1.03,2.8c0.13,0.36,0.15,0.91,0.73,0.72c0.52-0.17,0.27-0.62,0.16-0.97c-1.24-3.97-3.03-7.61-6.48-10.23
		C39.6,7.61,46.06,13.33,48.39,19.58z"/>
	<g>
		<g>
			<path class="st0" d="M41.4,22.66c-2.04-1.1-4.17-1.04-6.13,0.2c-2.07,1.31-2.64,3.39-2.5,5.71c0.28,4.55,3.97,6.25,7.57,5.17
				c2.39-0.7,3.8-2.91,3.81-6C44.1,25.75,43.48,23.78,41.4,22.66z M41.17,30.11c-0.44,1.17-1.31,1.82-2.57,1.86
				c-1.28,0.05-2.26-0.48-2.74-1.67c-0.31-0.74-0.42-1.56-0.57-2.16c0.1-0.72,0.14-1.23,0.26-1.72c0.38-1.6,1.37-2.41,2.88-2.41
				c1.5,0,2.51,0.82,2.91,2.39C41.65,27.66,41.62,28.91,41.17,30.11z"/>
			<path class="st0" d="M26.94,33.3c-0.92,0.49-2.03,0.64-3.06,0.94c-0.02-0.06-0.04-0.12-0.05-0.19c-1.17-0.02-2.3-0.2-3.28-0.9
				c-0.73-0.53-1.19-1.24-1.43-2.1c-0.12-0.4,0-0.65,0.47-0.63c0.29,0.02,0.58,0.02,0.87,0c0.66-0.05,1.11,0.05,1.46,0.77
				c0.52,1.04,2.75,1.29,3.63,0.53c0.65-0.56,0.59-1.68-0.19-2.11c-0.55-0.31-1.18-0.46-1.79-0.67c-0.83-0.29-1.7-0.51-2.5-0.87
				c-1.11-0.5-1.69-1.41-1.69-2.64c0.01-1.24,0.48-2.29,1.62-2.85c1.86-0.92,3.76-0.9,5.61,0.09c0.77,0.41,1.24,1.11,1.5,1.95
				c0.15,0.48,0.08,0.79-0.53,0.73c-0.31-0.02-0.63-0.02-0.94,0c-0.56,0.05-0.94-0.04-1.23-0.67c-0.42-0.94-2.38-1.14-3.11-0.41
				c-0.53,0.53-0.42,1.47,0.27,1.81c0.55,0.27,1.17,0.4,1.75,0.6c0.87,0.31,1.8,0.53,2.6,0.97C29.16,28.86,29.17,32.09,26.94,33.3z"
				/>
			<path class="st0" d="M14.41,23.91v9.11c0,0.86,0,0.86-0.9,0.87c-0.33,0-0.66-0.03-1,0c-0.55,0.06-0.67-0.2-0.67-0.7
				c0.02-3.46,0.02-6.91,0-10.36c-0.01-0.56,0.19-0.72,0.73-0.72C14.41,22.11,14.41,22.09,14.41,23.91z"/>
		</g>
	</g>
</g>
</svg>
