<?xml version="1.0" encoding="utf-8"?>
<!-- Generator: Adobe Illustrator 25.2.1, SVG Export Plug-In . SVG Version: 6.00 Build 0)  -->
<svg version="1.1" id="Layer_1" xmlns="http://www.w3.org/2000/svg" xmlns:xlink="http://www.w3.org/1999/xlink" x="0px" y="0px"
	 viewBox="0 0 56 56" style="enable-background:new 0 0 56 56;" xml:space="preserve">
<style type="text/css">
	.st0{fill:#034225;}
</style>
<g>
	<g>
		<path class="st0" d="M56.04,28c0,6.82-2.45,13.08-6.51,17.95L31.56,27.99c1.89-1.89,3.77-3.78,5.66-5.66
			c0.12-0.12,0.18-0.28,0.28-0.43c0.26,0.25,0.41,0.39,0.56,0.53c0.45,0.41,0.71,0.41,1.15-0.02c0.6-0.6,1.21-1.19,1.81-1.79
			c0.47-0.46,0.46-0.75-0.01-1.23c-0.07-0.07-0.14-0.15-0.21-0.24c2.28-1.21,3.29-2.86,2.99-4.87c-0.28-1.92-1.69-3.43-3.56-3.81
			c-1.11-0.22-2.16-0.04-3.15,0.52c-0.98,0.55-1.62,1.39-2.06,2.56c-0.15-0.2-0.23-0.33-0.33-0.44c-0.34-0.32-0.67-0.33-1-0.02
			c-0.69,0.67-1.37,1.35-2.04,2.04c-0.3,0.31-0.3,0.64,0.01,0.96c0.17,0.18,0.39,0.31,0.7,0.56c-0.25,0.18-0.41,0.26-0.52,0.37
			c-1.88,1.87-3.77,3.75-5.65,5.62L10.05,6.48C14.92,2.41,21.17-0.04,28-0.04C43.46-0.04,56.04,12.54,56.04,28z"/>
		<path class="st0" d="M42.35,45.93L27.98,31.57c-1.19,1.19-2.37,2.37-3.55,3.56c-0.94,0.94-1.99,1.22-3.24,0.7
			c-0.1-0.04-0.29,0.01-0.37,0.1c-0.3,0.27-0.58,0.57-0.87,0.85c-0.75,0.71-1.82,0.72-2.52,0.04c-0.7-0.68-0.73-1.81-0.03-2.57
			c0.34-0.36,0.73-0.69,1.09-1.03c-0.64-1.39-0.46-2.43,0.55-3.44c1.2-1.19,2.39-2.39,3.59-3.58L10.07,13.65l-3.6-3.6
			C2.41,14.92-0.04,21.18-0.04,28c0,15.46,12.58,28.04,28.04,28.04c6.82,0,13.08-2.45,17.94-6.51L42.35,45.93z M14.72,43.81
			c0.14-0.62,0.34-1.23,0.59-1.81c0.55-1.28,1.32-2.43,2.15-3.55c0.28-0.37,0.63-0.39,0.9-0.03c1.05,1.4,1.99,2.87,2.56,4.54
			c0.24,0.7,0.39,1.41,0.21,2.13c-0.32,1.27-1.26,1.86-2.45,2.15c-0.12,0.03-0.25,0.05-0.38,0.06s-0.26,0-0.38,0
			c-0.76,0.01-1.45-0.2-2.09-0.61C14.9,46.09,14.46,44.99,14.72,43.81z"/>
	</g>
	<g>
		<g>
			<path class="st0" d="M30.65,27.08c-1.21,1.21-2.41,2.4-3.59,3.57c-0.25,0.25-0.49,0.49-0.74,0.74c-0.96,0.96-1.91,1.91-2.87,2.87
				c-0.65,0.65-1.31,0.69-2.05,0.14c-0.36-0.27-0.64-0.25-0.97,0.06c-0.43,0.42-0.85,0.85-1.27,1.27c-0.33,0.32-0.6,0.36-0.84,0.13
				c-0.23-0.22-0.19-0.57,0.12-0.88c0.4-0.41,0.81-0.8,1.21-1.21c0.38-0.38,0.39-0.64,0.07-1.06c-0.51-0.67-0.48-1.34,0.12-1.95
				c1.22-1.22,2.44-2.44,3.67-3.65l0,0c0.11-0.1,0.28-0.2,0.42-0.2c2.18-0.01,4.35-0.01,6.52-0.01L30.65,27.08z"/>
		</g>
	</g>
	<g>
		<path class="st0" d="M34.67,19.18c-0.09,0.12-0.19,0.26-0.3,0.38c-0.76,0.77-1.52,1.55-2.29,2.31c-0.31,0.31-0.66,0.31-0.92,0.05
			c-0.26-0.26-0.25-0.61,0.03-0.93c0.05-0.06,0.11-0.12,0.17-0.18c0.86-0.81,1.72-1.62,2.59-2.43c-0.35-0.34-0.59-0.58-0.74-0.73
			c-2.01,1.99-4.01,3.99-6.01,5.98c-0.67,0.66-1.33,1.32-1.99,1.98c0.01,0,0.05,0.01,0.09,0.01c1.3,0,2.59,0,3.89,0
			c0.88,0,1.76,0,2.63,0c0.17,0,0.39-0.12,0.53-0.25c1.18-1.17,2.34-2.35,3.51-3.52c0.25-0.25,0.51-0.49,0.76-0.73
			C35.97,20.47,35.36,19.86,34.67,19.18z M30.78,23.08c-0.3,0.42-0.7,0.77-1.07,1.14c-0.05,0.05-0.16,0.04-0.21,0.05
			c-0.52,0-0.85-0.56-0.56-0.95c0.26-0.35,0.58-0.69,0.94-0.94c0.16-0.11,0.55-0.08,0.71,0.04C30.73,22.53,30.86,22.95,30.78,23.08z
			"/>
	</g>
</g>
</svg>
