<?xml version="1.0" encoding="utf-8"?>
<!-- Generator: Adobe Illustrator 25.2.1, SVG Export Plug-In . SVG Version: 6.00 Build 0)  -->
<svg version="1.1" id="Layer_1" xmlns="http://www.w3.org/2000/svg" xmlns:xlink="http://www.w3.org/1999/xlink" x="0px" y="0px"
	 viewBox="0 0 56 56" style="enable-background:new 0 0 56 56;" xml:space="preserve">
<style type="text/css">
	.st0{fill:#034225;}
</style>
<g>
	<path class="st0" d="M28,10.59c-9.6,0-17.41,7.81-17.41,17.41c0,9.6,7.81,17.41,17.41,17.41c9.6,0,17.41-7.81,17.41-17.41
		C45.41,18.4,37.6,10.59,28,10.59z M36.32,32.41c-3.91,3.91-8.27,2.75-9.57,2.28c0.48-1.09,1.04-2.15,1.68-3.16
		c1.18-1.86,2.64-3.55,4.31-5c1.67-1.46,3.56-2.66,5.58-3.62c-2.06,0.86-4.02,1.98-5.79,3.37c-1.76,1.39-3.34,3.04-4.64,4.9
		c-0.65,0.92-1.24,1.89-1.76,2.9c-0.01-0.01-0.01-0.01-0.01-0.02c-0.45-0.6-0.94-1.18-1.47-1.71c-1.07-1.08-2.29-2-3.61-2.72
		c-1.32-0.72-2.74-1.24-4.2-1.58c1.44,0.41,2.82,0.99,4.09,1.77c1.27,0.77,2.42,1.73,3.41,2.82c0.54,0.6,1.02,1.23,1.46,1.9
		C25,35,22.25,36.24,19.24,34.1c-3.6-2.55-4.59-6.93-4.59-6.93s5.71-2.27,9.31,0.29c0.56,0.39,0.99,0.84,1.33,1.3
		c0.19-1.61,0.85-3.36,2.43-4.95c4.65-4.66,13.63-2.74,13.63-2.74S40.97,27.75,36.32,32.41z"/>
	<path class="st0" d="M28-0.04C12.51-0.04-0.04,12.52-0.04,28S12.51,56.04,28,56.04S56.04,43.49,56.04,28S43.49-0.04,28-0.04z
		 M28,52.7C14.38,52.7,3.3,41.62,3.3,28C3.3,14.38,14.38,3.3,28,3.3c13.62,0,24.7,11.08,24.7,24.7C52.7,41.62,41.62,52.7,28,52.7z"
		/>
	<g>
		<g>
			<path class="st0" d="M17.47,12.13l-2.73-0.85c0.01,0.01,0.03,0.03,0.04,0.04c0.08,0.09,0.15,0.16,0.21,0.23
				c0.06,0.07,0.11,0.13,0.16,0.19c0.05,0.06,0.09,0.12,0.13,0.17c0.04,0.06,0.09,0.12,0.14,0.19l0.73,0.99l-0.7,0.51l-2.16-2.96
				l0.64-0.47l2.77,0.88c-0.02-0.02-0.04-0.04-0.05-0.05c-0.07-0.08-0.14-0.16-0.21-0.23c-0.07-0.08-0.13-0.16-0.2-0.24
				c-0.07-0.08-0.14-0.17-0.21-0.27c-0.07-0.1-0.15-0.2-0.24-0.32L15.26,9.2l0.7-0.51l2.16,2.96L17.47,12.13z"/>
			<path class="st0" d="M21.28,8.14c-0.11-0.25-0.26-0.47-0.43-0.64c-0.18-0.17-0.38-0.31-0.61-0.39c-0.23-0.09-0.46-0.13-0.71-0.12
				c-0.25,0.01-0.5,0.07-0.75,0.18c-0.25,0.11-0.46,0.26-0.63,0.44c-0.17,0.18-0.3,0.38-0.39,0.61c-0.09,0.23-0.13,0.46-0.12,0.71
				c0.01,0.25,0.07,0.5,0.18,0.75c0.11,0.25,0.26,0.46,0.44,0.64c0.18,0.17,0.38,0.3,0.61,0.39c0.23,0.08,0.46,0.12,0.71,0.12
				c0.25-0.01,0.5-0.07,0.76-0.18c0.25-0.11,0.46-0.26,0.63-0.44c0.17-0.18,0.3-0.38,0.39-0.61c0.09-0.23,0.12-0.46,0.12-0.71
				C21.45,8.64,21.39,8.38,21.28,8.14z M20.5,9.31c-0.04,0.12-0.11,0.24-0.2,0.33c-0.09,0.1-0.2,0.17-0.33,0.23
				c-0.13,0.06-0.26,0.09-0.39,0.09c-0.13,0-0.26-0.02-0.38-0.07c-0.12-0.05-0.23-0.12-0.32-0.23c-0.1-0.1-0.17-0.22-0.24-0.36
				c-0.07-0.14-0.1-0.28-0.11-0.42c-0.01-0.14,0.01-0.27,0.05-0.39c0.04-0.12,0.11-0.24,0.2-0.33c0.09-0.1,0.2-0.17,0.33-0.23
				c0.13-0.06,0.26-0.09,0.39-0.09c0.13,0,0.26,0.02,0.38,0.08c0.12,0.05,0.23,0.12,0.33,0.22c0.1,0.1,0.18,0.22,0.24,0.36
				c0.06,0.14,0.09,0.28,0.11,0.42C20.56,9.06,20.54,9.19,20.5,9.31z"/>
			<path class="st0" d="M25.34,5.45l-0.75,0.1l-0.95,3.83l0.87-0.12l0.17-0.73l1.33-0.18l0.35,0.66l0.89-0.12L25.34,5.45z
				 M24.84,7.84l0.11-0.5c0.01-0.09,0.03-0.18,0.05-0.26c0.02-0.09,0.04-0.17,0.05-0.26c0.01-0.08,0.03-0.15,0.04-0.23
				c0.03,0.07,0.06,0.14,0.09,0.21c0.04,0.09,0.08,0.17,0.12,0.25c0.04,0.08,0.08,0.15,0.11,0.22l0.24,0.46L24.84,7.84z"/>
			<path class="st0" d="M30.93,6.53c-0.08-0.23-0.19-0.43-0.34-0.6c-0.15-0.17-0.34-0.31-0.55-0.41c-0.22-0.1-0.46-0.16-0.73-0.18
				l-1.53-0.09l-0.21,3.66L29.09,9c0.27,0.01,0.52-0.01,0.75-0.09c0.23-0.08,0.43-0.19,0.6-0.34c0.17-0.15,0.31-0.34,0.41-0.56
				c0.1-0.22,0.16-0.46,0.17-0.73C31.03,7.01,31,6.76,30.93,6.53z M30.02,7.65c-0.05,0.13-0.12,0.23-0.21,0.32
				c-0.09,0.08-0.19,0.15-0.31,0.19c-0.12,0.04-0.25,0.06-0.4,0.05l-0.62-0.04l0.12-2.1l0.62,0.04c0.15,0.01,0.28,0.04,0.39,0.1
				c0.11,0.06,0.21,0.13,0.28,0.23c0.08,0.09,0.13,0.21,0.17,0.34c0.04,0.13,0.05,0.28,0.04,0.43C30.11,7.38,30.08,7.52,30.02,7.65z
				"/>
			<path class="st0" d="M35.21,7.56C35.18,7.32,35.11,7.1,35,6.9c-0.11-0.2-0.27-0.38-0.46-0.52c-0.19-0.15-0.42-0.25-0.68-0.32
				l-1.48-0.4l-0.95,3.55l1.49,0.4c0.26,0.07,0.51,0.09,0.75,0.06c0.24-0.03,0.46-0.1,0.66-0.21c0.2-0.12,0.37-0.27,0.51-0.47
				c0.14-0.2,0.25-0.42,0.32-0.68C35.21,8.05,35.23,7.8,35.21,7.56z M34.27,8.08c-0.04,0.15-0.1,0.28-0.18,0.4
				c-0.08,0.11-0.17,0.2-0.27,0.27c-0.1,0.07-0.22,0.11-0.34,0.13c-0.12,0.02-0.26,0.01-0.4-0.03l-0.6-0.16l0.54-2.02l0.6,0.16
				c0.14,0.04,0.26,0.1,0.36,0.17c0.1,0.08,0.17,0.17,0.23,0.28c0.05,0.11,0.09,0.23,0.1,0.37C34.33,7.78,34.31,7.92,34.27,8.08z"/>
			<polygon class="st0" points="37.19,8.07 36.89,8.69 38.21,9.32 37.89,9.97 36.58,9.34 36.26,10.01 37.83,10.77 37.5,11.45 
				35.15,10.32 36.74,7.01 39.05,8.12 38.72,8.81 			"/>
			<path class="st0" d="M42.21,10.91c-0.03-0.23-0.11-0.44-0.24-0.65c-0.13-0.21-0.3-0.39-0.51-0.55L40.22,8.8l-2.18,2.95l1.24,0.91
				c0.22,0.16,0.44,0.27,0.67,0.33c0.23,0.06,0.46,0.07,0.69,0.04c0.23-0.03,0.44-0.12,0.64-0.25c0.2-0.13,0.39-0.3,0.55-0.52
				c0.16-0.21,0.27-0.44,0.34-0.67C42.23,11.37,42.24,11.14,42.21,10.91z M41.3,11.35c-0.04,0.13-0.11,0.26-0.2,0.39
				c-0.09,0.13-0.2,0.23-0.31,0.31c-0.11,0.08-0.23,0.13-0.35,0.15c-0.12,0.02-0.24,0.02-0.36-0.01c-0.12-0.03-0.24-0.08-0.36-0.17
				l-0.5-0.37l1.25-1.68l0.5,0.37c0.12,0.09,0.21,0.19,0.27,0.3c0.06,0.11,0.1,0.22,0.11,0.35C41.36,11.09,41.34,11.22,41.3,11.35z"
				/>
		</g>
		<g>
			<path class="st0" d="M11.33,36.62l-0.85-1.73l-4.02,1.98l0.48,0.98l1.34-0.66l0.38,0.76c0.12,0.25,0.3,0.45,0.51,0.59
				c0.21,0.14,0.46,0.21,0.72,0.23c0.26,0.01,0.52-0.04,0.78-0.17c0.25-0.12,0.44-0.29,0.59-0.51c0.14-0.21,0.22-0.45,0.24-0.7
				C11.51,37.13,11.46,36.87,11.33,36.62z M10.38,37.41c-0.05,0.08-0.12,0.14-0.22,0.19c-0.09,0.05-0.19,0.07-0.28,0.06
				c-0.09-0.01-0.18-0.03-0.25-0.08c-0.08-0.05-0.14-0.12-0.18-0.2l-0.31-0.64l0.96-0.47l0.31,0.63c0.04,0.09,0.06,0.17,0.06,0.26
				C10.45,37.25,10.43,37.34,10.38,37.41z"/>
			<path class="st0" d="M13.85,40.64c-0.05-0.26-0.16-0.5-0.34-0.73l-1.25-1.58l-3.51,2.79l0.64,0.81l1.23-0.98l0.35,0.44
				l-0.68,1.67l0.77,0.97l0.73-1.86c0.03,0.01,0.05,0.03,0.08,0.04c0.24,0.1,0.5,0.13,0.75,0.1c0.26-0.04,0.5-0.14,0.72-0.32
				c0.22-0.17,0.36-0.37,0.45-0.61C13.88,41.15,13.89,40.9,13.85,40.64z M12.82,40.95c-0.04,0.09-0.1,0.17-0.19,0.25
				c-0.09,0.07-0.18,0.12-0.28,0.14c-0.1,0.02-0.19,0.01-0.28-0.02c-0.09-0.03-0.17-0.09-0.24-0.18l-0.55-0.69l0.91-0.72l0.49,0.62
				c0.08,0.11,0.14,0.21,0.16,0.32C12.86,40.75,12.86,40.85,12.82,40.95z"/>
			<polygon class="st0" points="15.13,42.91 14.61,43.55 15.98,44.68 15.41,45.36 14.04,44.23 13.46,44.93 15.11,46.29 14.52,47.01 
				12.06,44.98 14.91,41.52 17.32,43.51 16.73,44.22 			"/>
			<path class="st0" d="M18.11,45.36c-0.04,0.06-0.04,0.13-0.03,0.19c0.01,0.07,0.04,0.13,0.09,0.2c0.05,0.07,0.11,0.14,0.17,0.21
				c0.07,0.07,0.15,0.13,0.23,0.2c0.19,0.15,0.34,0.31,0.48,0.46c0.13,0.16,0.23,0.32,0.3,0.48c0.07,0.16,0.1,0.33,0.09,0.5
				c0,0.17-0.05,0.34-0.15,0.52c-0.15,0.28-0.34,0.47-0.57,0.59c-0.24,0.12-0.5,0.17-0.78,0.14c-0.28-0.02-0.58-0.11-0.88-0.28
				c-0.26-0.14-0.48-0.29-0.66-0.47c-0.17-0.17-0.31-0.36-0.41-0.57c-0.1-0.2-0.17-0.42-0.21-0.65l0.94-0.35
				c0.05,0.35,0.15,0.62,0.3,0.81c0.15,0.19,0.32,0.34,0.52,0.44c0.1,0.05,0.2,0.09,0.3,0.11c0.1,0.02,0.18,0.01,0.26-0.01
				c0.07-0.03,0.13-0.08,0.17-0.15c0.03-0.05,0.04-0.11,0.04-0.17c0-0.06-0.02-0.12-0.05-0.18c-0.03-0.06-0.07-0.12-0.12-0.19
				c-0.05-0.07-0.11-0.13-0.17-0.19c-0.07-0.06-0.13-0.12-0.2-0.18c-0.19-0.16-0.35-0.32-0.47-0.48c-0.12-0.16-0.21-0.32-0.26-0.48
				c-0.05-0.16-0.07-0.32-0.05-0.48c0.02-0.16,0.07-0.32,0.16-0.49c0.09-0.17,0.22-0.32,0.38-0.42c0.16-0.11,0.34-0.17,0.53-0.21
				c0.19-0.04,0.4-0.03,0.61,0c0.21,0.04,0.42,0.11,0.61,0.21c0.26,0.14,0.47,0.28,0.63,0.44c0.16,0.16,0.27,0.32,0.35,0.49
				c0.08,0.17,0.13,0.36,0.15,0.55l-0.9,0.26c-0.03-0.14-0.07-0.27-0.13-0.38c-0.06-0.11-0.13-0.21-0.22-0.3
				c-0.09-0.09-0.18-0.16-0.29-0.22c-0.11-0.06-0.22-0.1-0.31-0.11c-0.1-0.01-0.18-0.01-0.26,0.02
				C18.21,45.24,18.15,45.29,18.11,45.36z"/>
			<polygon class="st0" points="21.96,46.75 21.73,47.55 23.43,48.05 23.18,48.9 21.47,48.39 21.22,49.27 23.26,49.87 23,50.76 
				19.94,49.86 21.22,45.56 24.21,46.45 23.94,47.34 			"/>
			<path class="st0" d="M28.02,49.01c0.15-0.21,0.23-0.46,0.26-0.74c0.02-0.27-0.03-0.52-0.14-0.75c-0.11-0.23-0.28-0.41-0.51-0.55
				c-0.22-0.14-0.47-0.22-0.76-0.24l-2.01-0.16l-0.34,4.47l1.03,0.08l0.12-1.57l0.56,0.04l0.76,1.64l1.24,0.09l-0.87-1.8
				c0.03-0.01,0.05-0.02,0.08-0.03C27.68,49.38,27.87,49.22,28.02,49.01z M27.12,48.55c-0.05,0.08-0.12,0.15-0.21,0.19
				c-0.09,0.04-0.19,0.06-0.3,0.05l-0.88-0.07l0.09-1.16l0.79,0.06c0.13,0.01,0.25,0.04,0.34,0.09c0.09,0.05,0.16,0.13,0.2,0.22
				c0.04,0.09,0.06,0.19,0.05,0.31C27.2,48.36,27.17,48.46,27.12,48.55z"/>
			<path class="st0" d="M32.74,46.29l-1.2,4.68l-0.9,0.12l-2.37-4.21l1.12-0.15l1.16,2.15c0.07,0.12,0.13,0.23,0.17,0.32
				c0.05,0.09,0.09,0.18,0.13,0.26c0.03,0.06,0.05,0.12,0.08,0.17c0,0,0-0.01,0-0.01c0.02-0.12,0.04-0.24,0.07-0.36
				c0.03-0.13,0.06-0.28,0.1-0.46l0.52-2.38L32.74,46.29z"/>
			<path class="st0" d="M34.53,45.6l-0.87,0.3l-0.23,4.82l1.02-0.35l0.03-0.91l1.55-0.53l0.58,0.71l1.04-0.36L34.53,45.6z
				 M34.49,48.57l0.02-0.63c0-0.11,0-0.22,0-0.33c0-0.11,0-0.21,0-0.32c0-0.09,0-0.19-0.01-0.28c0.05,0.07,0.11,0.15,0.17,0.23
				c0.07,0.09,0.13,0.18,0.2,0.27c0.07,0.09,0.13,0.17,0.19,0.24l0.4,0.49L34.49,48.57z"/>
			<polygon class="st0" points="40.13,47.83 39.19,48.38 37.42,45.34 36.26,46.01 35.78,45.18 39.05,43.27 39.54,44.1 38.36,44.79 
							"/>
			<polygon class="st0" points="44.22,44.69 42.26,46.4 41.66,45.71 42.23,45.21 40.49,43.21 39.92,43.71 39.32,43.02 41.28,41.31 
				41.88,42 41.31,42.5 43.05,44.5 43.62,44 			"/>
			<path class="st0" d="M46.67,41.84l-0.56,0.72l-4.64-1.32l0.69-0.9l2.34,0.71c0.13,0.04,0.25,0.08,0.35,0.11
				c0.1,0.03,0.19,0.06,0.28,0.09c0.06,0.02,0.12,0.04,0.18,0.07c0,0-0.01-0.01-0.01-0.01c-0.07-0.1-0.14-0.2-0.21-0.31
				c-0.07-0.11-0.15-0.24-0.25-0.4l-1.3-2.06l0.68-0.88L46.67,41.84z"/>
			<polygon class="st0" points="49.71,36.48 48.33,39.36 44.29,37.43 45.64,34.61 46.47,35.01 45.58,36.87 46.33,37.23 47.1,35.62 
				47.9,36.01 47.13,37.61 47.95,38 48.87,36.08 			"/>
		</g>
	</g>
</g>
</svg>
