<?xml version="1.0" encoding="utf-8"?>
<!-- Generator: Adobe Illustrator 25.2.1, SVG Export Plug-In . SVG Version: 6.00 Build 0)  -->
<svg version="1.1" id="Layer_1" xmlns="http://www.w3.org/2000/svg" xmlns:xlink="http://www.w3.org/1999/xlink" x="0px" y="0px"
	 viewBox="0 0 56 56" style="enable-background:new 0 0 56 56;" xml:space="preserve">
<style type="text/css">
	.st0{fill:#034225;}
</style>
<g>
	<path class="st0" d="M45.94,49.53c-4.86,4.07-11.13,6.51-17.94,6.51C12.54,56.04-0.04,43.46-0.04,28c0-6.82,2.45-13.08,6.51-17.94
		l3.6,3.6l6.84,6.84h-0.3l-4.4,7.07l-4.34-7.07H4.58v15.15h3.57v-4.72c0-1.4-0.03-2.61-0.1-3.62C8.04,27.06,8.02,26.81,8,26.58
		l3.42,5.39h1.43l3.52-5.47c-0.03,0.3-0.05,0.61-0.07,0.92c-0.06,1.04-0.1,2.21-0.1,3.51v4.72h3.57V23.35l3.69,3.69
		c0.17,0.3,0.39,0.57,0.65,0.81c0.22,0.21,0.46,0.4,0.74,0.57l4.31,4.31c-0.12,0.01-0.25,0.02-0.38,0.02c-0.78,0-1.53-0.16-2.26-0.5
		c-0.73-0.33-1.46-0.98-2.18-1.95l-2.23,2.53c0.49,0.62,1.05,1.16,1.67,1.61c0.62,0.45,1.33,0.8,2.13,1.04
		c0.8,0.24,1.7,0.36,2.7,0.36c1.16,0,2.18-0.19,3.06-0.58c0.01,0,0.01,0,0.02-0.01l10.66,10.66L45.94,49.53z"/>
	<path class="st0" d="M28-0.04c-6.82,0-13.08,2.45-17.94,6.51l14.79,14.79c0.47-0.33,1.01-0.6,1.6-0.78
		c0.69-0.23,1.41-0.34,2.16-0.34c1,0,1.85,0.11,2.57,0.31c0.71,0.21,1.33,0.51,1.84,0.9c0.51,0.39,0.95,0.86,1.31,1.4l-2.27,2.19
		c-0.3-0.37-0.63-0.68-0.99-0.93c-0.35-0.25-0.73-0.44-1.12-0.56c-0.4-0.13-0.81-0.2-1.22-0.2c-0.44,0-0.81,0.06-1.12,0.16
		c-0.15,0.05-0.29,0.12-0.41,0.19L30,26.42c0.5,0.13,0.97,0.28,1.41,0.45c0.64,0.26,1.2,0.58,1.66,0.95
		c0.47,0.38,0.83,0.82,1.08,1.33c0.25,0.51,0.38,1.11,0.38,1.79v0.01l14.99,14.99c4.06-4.86,6.51-11.12,6.51-17.94
		C56.04,12.54,43.46-0.04,28-0.04z M50.5,32.63c-0.3,0.5-0.66,0.95-1.09,1.35c-0.63,0.59-1.38,1.05-2.25,1.38
		c-0.87,0.33-1.81,0.5-2.82,0.5c-1.21,0-2.31-0.19-3.29-0.59c-0.98-0.39-1.83-0.94-2.54-1.65c-0.71-0.71-1.25-1.54-1.62-2.5
		c-0.38-0.96-0.57-2-0.57-3.13s0.2-2.16,0.6-3.11c0.4-0.94,0.96-1.77,1.69-2.48c0.74-0.71,1.61-1.26,2.61-1.65
		c1-0.39,2.1-0.59,3.28-0.59c0.84,0,1.63,0.11,2.37,0.32c0.75,0.22,1.42,0.51,2.02,0.89c0.55,0.34,1.02,0.72,1.41,1.16
		c0.05,0.05,0.09,0.09,0.13,0.14l-0.08,0.08l-2.15,2.28c-0.36-0.35-0.73-0.64-1.11-0.87c-0.38-0.23-0.79-0.42-1.22-0.56
		c-0.44-0.14-0.9-0.2-1.38-0.2c-0.64,0-1.22,0.12-1.74,0.35c-0.53,0.23-0.99,0.55-1.39,0.96c-0.4,0.41-0.7,0.9-0.92,1.45
		c-0.22,0.56-0.32,1.16-0.32,1.81c0,0.65,0.12,1.26,0.35,1.82c0.23,0.56,0.55,1.05,0.95,1.46c0.4,0.41,0.88,0.74,1.44,0.97
		c0.56,0.24,1.15,0.36,1.79,0.36c0.45,0,0.87-0.07,1.27-0.22c0.4-0.15,0.74-0.34,1.03-0.59c0.29-0.24,0.52-0.54,0.7-0.88
		c0.15-0.29,0.23-0.6,0.25-0.92h-3.7v-2.88h7.12c0.03,0.16,0.05,0.38,0.06,0.65c0.01,0.28,0.02,0.54,0.03,0.8
		c0.01,0.26,0.01,0.45,0.01,0.59c0,0.98-0.17,1.88-0.53,2.69C50.78,32.13,50.65,32.38,50.5,32.63z"/>
</g>
</svg>
