<?xml version="1.0" encoding="utf-8"?>
<!-- Generator: Adobe Illustrator 25.2.1, SVG Export Plug-In . SVG Version: 6.00 Build 0)  -->
<svg version="1.1" id="Layer_1" xmlns="http://www.w3.org/2000/svg" xmlns:xlink="http://www.w3.org/1999/xlink" x="0px" y="0px"
	 viewBox="0 0 56 56" style="enable-background:new 0 0 56 56;" xml:space="preserve">
<g>
	<path d="M28,33.4V19.7l11.9,6.8c0.7,0.4,0.7,1,0,1.5l-10.6,6.1C28.6,34.5,28,34.3,28,33.4z"/>
	<path d="M46.9,0H9.1C4.1,0,0,4.1,0,9.1v37.8c0,5,4.1,9.1,9.1,9.1h37.8c5,0,9.1-4.1,9.1-9.1V9.1C56,4.1,51.9,0,46.9,0z M41.9,43.2
		c0,0.6-0.2,0.9-0.7,1.3l-12.5,7.2c-0.5,0.3-0.9,0.3-1.5,0l-12.5-7.2c-0.5-0.3-0.7-0.7-0.7-1.3V28.6c0-0.6,0.2-0.9,0.7-1.3L28,19.7
		V5.1c0-0.8,0.6-1.1,1.3-0.7l11.9,6.9c0.5,0.3,0.7,0.7,0.7,1.3V43.2z"/>
</g>
</svg>
