<?xml version="1.0" encoding="utf-8"?>
<!-- Generator: Adobe Illustrator 25.2.1, SVG Export Plug-In . SVG Version: 6.00 Build 0)  -->
<svg version="1.1" id="Layer_1" xmlns="http://www.w3.org/2000/svg" xmlns:xlink="http://www.w3.org/1999/xlink" x="0px" y="0px"
	 viewBox="0 0 56 56" style="enable-background:new 0 0 56 56;" xml:space="preserve">
<g>
	<path d="M23.7,45.9c0.2,1.3-1.3,2.8-2.9,2.9c-1.9,0.1-3.5-1.2-3.6-2.9H23.7z"/>
	<path d="M28.4,21.4c2,1.5,4.2,2.4,6.7,2.7v16.5h-2.9c0.1-1.2,0.2-2.4,0.4-3.5c0.3-2.8,0.6-5.6,0.9-8.4c0.1-1.5-0.4-2.2-1.8-2.7
		c-1.1-0.4-2.1-0.8-3.2-1.2c-0.6-0.2-0.7-0.5-0.6-1C28.1,22.9,28.2,22.2,28.4,21.4z"/>
	<path d="M48.9,45c0.3,1.3,0,2.5-1.1,3.4c-1,0.9-2.3,1.1-3.5,0.5c-1.3-0.6-1.9-1.6-2-3c0-0.4,0.2-0.7,0.5-0.9
		c1.2-0.7,2.7-1.1,4.1-1.1c0.2,0,0.4,0,0.6,0C48.6,44,48.7,44.1,48.9,45z"/>
	<path d="M46.9,0H9.1C4.1,0,0,4.1,0,9.1v37.8c0,5,4.1,9.1,9.1,9.1h37.8c5,0,9.1-4.1,9.1-9.1V9.1C56,4.1,51.9,0,46.9,0z M29.2,5.3
		c2.1,0,3.8,1.7,3.7,3.8c0,2.1-1.7,3.8-3.8,3.7c-2.1,0-3.7-1.7-3.7-3.8C25.4,7,27.1,5.3,29.2,5.3z M7.4,28.7c-1.4,0-2.4-1-2.4-2.4
		c0-2.7,0-5.4,0-8.1c0-1.4,1-2.4,2.4-2.4c3.5,0,6.9,0,10.4,0c1.4,0,2.3,1,2.3,2.3c0,2.7,0,5.4,0,8.2c0,1.4-1,2.3-2.3,2.3
		c-1.7,0-3.5,0-5.2,0H7.4z M26,30.1c0.5,0,0.8,0.2,0.8,0.7c0,1,0,2.1,0,3.2h-0.5c-3.8,0-7.5,0-11.3,0c-0.4,0-0.6-0.1-0.8-0.4
		c-0.6-0.8-0.9-1.6-0.9-2.6c0-0.6,0.3-0.9,0.8-0.9C18.1,30.1,22.1,30.1,26,30.1z M50.4,44.5c0.7,3.1-1.3,5.4-3.4,5.9
		c-1.4,0.4-2.7,0.2-3.9-0.6c-1.2-0.8-1.9-1.9-2.2-3.2c-1,0.9-1.4,0.8-1.9-0.5C39,46,39,45.8,38.9,45.7c-0.4,0.1-0.8,0.2-1.2,0.2
		c-4,0-7.9,0-11.9,0c-0.4,0-0.6,0-0.7,0.5c-0.4,2.3-2.4,4-4.8,4c-2.4,0-4.4-1.8-4.7-4.1c0-0.1,0-0.2-0.1-0.3
		c-0.4-0.1-0.7-0.1-1.1-0.2c-1.4-0.5-2.3-1.9-2.1-3.5c0.1-1,0.4-2.1,0.7-3c0.4-1.2,1.1-2.2,1.6-3.3c0.1-0.1,0.3-0.3,0.4-0.3
		c3.7,0,7.4,0,11.2,0c-0.5,1.6-0.2,3.1,1.1,4.4c0-0.7,0.1-1.2,0.1-1.8c0.2-2.6,0.3-5.2,0.5-7.9c0-0.7-0.2-1-0.9-1
		c-1.2-0.1-2.3-0.2-3.5-0.4c-1.4-0.2-2.3-1.4-2-2.7c0.7-3.4,1.4-6.8,2.1-10.2c0.3-1.5,1.6-2.4,3.1-2.3c1.4,0.1,2.4,1.3,2.4,2.8
		c0,0.2,0.1,0.4,0.2,0.6c1.3,1.5,3.1,2.3,4.9,2.9c0.9,0.3,1.7,0.5,2.6,0.4c1.2,0,2.5,0,3.7,0c1.5,0,2.4,0.9,2.4,2.5
		c0,0.4,0,0.8,0,1.3c0,1.3-1,2.2-2.3,2.3c-0.5,0-0.9,0-1.4,0c0,1.1,0.3,2.1,0.6,3.1c0.5,1.5,1.3,2.8,2.7,3.8c1.4,1,1.9,2.5,1.6,4.3
		c0,0.2,0,0.3-0.1,0.4c0.7,0.1,1.3,0.1,1.9,0.3c2.4,0.6,4.3,2.8,4.5,5.3C51.1,44.1,50.8,44.4,50.4,44.5z"/>
</g>
</svg>
