<?xml version="1.0" encoding="utf-8"?>
<!-- Generator: Adobe Illustrator 25.2.1, SVG Export Plug-In . SVG Version: 6.00 Build 0)  -->
<svg version="1.1" id="Layer_1" xmlns="http://www.w3.org/2000/svg" xmlns:xlink="http://www.w3.org/1999/xlink" x="0px" y="0px"
	 viewBox="0 0 56 56" style="enable-background:new 0 0 56 56;" xml:space="preserve">
<style type="text/css">
	.st0{fill:#034225;}
</style>
<g>
	<path class="st0" d="M25.52,33.61c-0.08-0.33-0.13-0.65-0.2-0.98c-0.01-0.05-0.03-0.1-0.05-0.15c-0.04,0.06-0.11,0.11-0.12,0.17
		c-0.05,0.2-0.04,0.42-0.11,0.62c-0.05,0.14-0.08,0.27-0.08,0.41c0,0.09,0.02,0.14,0.12,0.13h0.31
		C25.57,33.81,25.56,33.81,25.52,33.61z M25.52,33.61c-0.08-0.33-0.13-0.65-0.2-0.98c-0.01-0.05-0.03-0.1-0.05-0.15
		c-0.04,0.06-0.11,0.11-0.12,0.17c-0.05,0.2-0.04,0.42-0.11,0.62c-0.05,0.14-0.08,0.27-0.08,0.41c0,0.09,0.02,0.14,0.12,0.13h0.31
		C25.57,33.81,25.56,33.81,25.52,33.61z M25.52,33.61c-0.08-0.33-0.13-0.65-0.2-0.98c-0.01-0.05-0.03-0.1-0.05-0.15
		c-0.04,0.06-0.11,0.11-0.12,0.17c-0.05,0.2-0.04,0.42-0.11,0.62c-0.05,0.14-0.08,0.27-0.08,0.41c0,0.09,0.02,0.14,0.12,0.13h0.31
		C25.57,33.81,25.56,33.81,25.52,33.61z M31.82,33.63c-0.13-0.41-0.19-0.83-0.32-1.28c-0.05,0.24-0.03,0.48-0.14,0.64
		c-0.12,0.19-0.03,0.39-0.12,0.57c-0.11,0.2-0.06,0.25,0.16,0.25c0.09,0.01,0.18,0.01,0.27,0C31.8,33.8,31.86,33.74,31.82,33.63z
		 M31.82,33.63c-0.13-0.41-0.19-0.83-0.32-1.28c-0.05,0.24-0.03,0.48-0.14,0.64c-0.12,0.19-0.03,0.39-0.12,0.57
		c-0.11,0.2-0.06,0.25,0.16,0.25c0.09,0.01,0.18,0.01,0.27,0C31.8,33.8,31.86,33.74,31.82,33.63z M25.52,33.61
		c-0.08-0.33-0.13-0.65-0.2-0.98c-0.01-0.05-0.03-0.1-0.05-0.15c-0.04,0.06-0.11,0.11-0.12,0.17c-0.05,0.2-0.04,0.42-0.11,0.62
		c-0.05,0.14-0.08,0.27-0.08,0.41c0,0.09,0.02,0.14,0.12,0.13h0.31C25.57,33.81,25.56,33.81,25.52,33.61z M47.43,27.89
		c-0.08-0.07-0.15-0.14-0.22-0.22c-1.64-1.64-3.28-3.28-4.92-4.92c-0.33-0.33-0.49-0.72-0.49-1.18v-7c0-0.38,0-0.38-0.4-0.38
		c-2.3,0-4.6-0.01-6.9,0c-0.51,0-0.94-0.17-1.3-0.54c-1.63-1.64-3.27-3.28-4.92-4.92c-0.07-0.07-0.14-0.15-0.22-0.21
		c-0.04-0.03-0.12-0.03-0.15,0c-0.08,0.06-0.15,0.14-0.23,0.21c-1.65,1.65-3.3,3.3-4.95,4.95c-0.34,0.34-0.74,0.51-1.22,0.51
		c-2.3-0.01-4.6,0-6.91,0c-0.1,0-0.2,0-0.31-0.01c-0.08,0-0.14,0.01-0.14,0.12c0.01,0.1,0,0.2,0,0.31c0,2.3,0,4.6,0,6.91
		c0,0.49-0.17,0.91-0.52,1.25c-1.63,1.63-3.26,3.26-4.88,4.88c-0.08,0.07-0.14,0.15-0.23,0.22c-0.1,0.09-0.1,0.16,0,0.25
		c0.08,0.07,0.15,0.14,0.23,0.22c1.62,1.62,3.23,3.24,4.85,4.85c0.37,0.37,0.55,0.8,0.55,1.33c0,2.29,0,4.57,0,6.86
		c0,0.13-0.04,0.33,0.03,0.38c0.1,0.07,0.28,0.05,0.42,0.05c2.29,0,4.58,0.01,6.86,0c0.51-0.01,0.94,0.17,1.29,0.54
		c1.64,1.64,3.28,3.28,4.92,4.92c0.08,0.08,0.14,0.15,0.23,0.22c0.03,0.02,0.11,0.02,0.15,0c0.09-0.08,0.17-0.16,0.25-0.25
		c1.64-1.64,3.28-3.28,4.92-4.92c0.34-0.34,0.74-0.51,1.22-0.51h6.9c0.11,0,0.21-0.01,0.31,0c0.09,0.01,0.14-0.01,0.14-0.11
		c-0.01-0.1,0-0.21,0-0.31V34.5c0-0.49,0.17-0.91,0.52-1.25l4.88-4.88c0.07-0.08,0.14-0.15,0.22-0.22
		C47.54,28.05,47.54,27.97,47.43,27.89z M22.99,35.5c-0.2-0.03-0.4-0.03-0.61-0.04c0-0.19-0.01-0.38-0.01-0.58
		c0-0.31,0.01-0.62,0-0.93c-0.01-0.16-0.08-0.24-0.24-0.24c-0.32,0-0.65,0.01-0.97,0.01c-0.01,0.31-0.03,0.61-0.04,0.92v0.58
		c0,0.27,0,0.27-0.29,0.27c-0.19,0-0.38-0.01-0.57-0.02c-0.01-0.19-0.03-0.37-0.03-0.56c0-1.15,0-2.29-0.01-3.43
		c0-0.12,0.02-0.19,0.16-0.18c0.24,0.02,0.47,0.02,0.71,0.02c0.01,0.24,0.02,0.47,0.03,0.7v0.09c0.02,0.29,0.03,0.59,0.04,0.88
		c0.34,0,0.68,0.01,1.02,0.01c0.14-0.01,0.19-0.1,0.19-0.24v-0.94c0-0.13,0.01-0.27,0-0.4c-0.01-0.11,0.05-0.12,0.14-0.12
		c0.21,0.02,0.43,0.02,0.65,0.03c0,0.21,0.01,0.41,0.01,0.62v1.47c0,0.62,0,1.24,0.01,1.87C23.18,35.44,23.17,35.53,22.99,35.5z
		 M22.99,28.77c-0.46,0.53-1.04,0.86-1.68,1.1c-0.44,0.16-0.91,0.26-1.37,0.36c-0.21,0.04-0.44,0.01-0.74,0.01
		c-0.38,0.04-0.82-0.03-1.24-0.18c-0.5-0.18-0.81-0.56-1.02-1.02c-0.06-0.14,0-0.32-0.02-0.49c-0.06-0.51,0.09-1,0.28-1.44
		c0.28-0.65,0.59-1.3,1.13-1.81c0.04-0.03,0.06-0.08,0.1-0.09c0.08-0.03,0.16-0.04,0.24-0.05c0,0.08,0.03,0.17,0,0.24
		c-0.08,0.22-0.19,0.42-0.28,0.64c-0.06,0.18-0.09,0.38-0.13,0.57c0.18,0.25,0.05,0.57,0.25,0.84c0.18,0.25,0.41,0.4,0.67,0.55
		c0.46,0.27,0.96,0.2,1.44,0.16c0.32-0.02,0.66-0.15,0.91-0.37c0.37-0.32,0.69-0.66,0.76-1.2c0.03-0.21,0.02-0.43,0.09-0.63
		c0.08-0.21,0.06-0.42,0.08-0.63c0.02-0.2,0.06-0.39,0.09-0.59c0.03-0.18-0.08-0.38,0.09-0.54c0.02-0.02,0.01-0.06,0.01-0.09
		c-0.01-0.91,0.16-1.82,0.08-2.73c-0.06-0.6-0.16-1.19-0.39-1.75c-0.05-0.12-0.08-0.2,0.02-0.31c0.38-0.41,0.83-0.73,1.33-0.98
		c0.1-0.06,0.13-0.02,0.16,0.04c0.13,0.27,0.27,0.54,0.38,0.82c0.14,0.37,0.28,0.75,0.41,1.13c0.03,0.09,0.06,0.19,0.05,0.29
		c-0.01,0.1-0.11,0.13-0.2,0.18c-0.24,0.13-0.36,0.39-0.39,0.62c-0.05,0.3-0.21,0.55-0.2,0.86c0.01,0.3-0.06,0.6-0.1,0.9
		c-0.06,0.37-0.01,0.76-0.09,1.12c-0.12,0.51-0.06,1.02-0.07,1.52c-0.01,0.6-0.15,1.19-0.09,1.79
		C23.4,28.03,23.28,28.44,22.99,28.77z M26.85,35.5c-0.19,0.01-0.39,0.01-0.58,0c-0.1,0-0.23,0.03-0.3-0.03
		c-0.09-0.06,0.01-0.23-0.12-0.3c-0.02-0.01,0-0.09-0.01-0.13c-0.07-0.43-0.08-0.43-0.49-0.43h-0.18c-0.16,0.01-0.37-0.04-0.46,0.05
		c-0.1,0.1-0.08,0.31-0.12,0.48c-0.01,0.03,0,0.06,0,0.09c-0.02,0.22-0.07,0.27-0.29,0.28c-0.16,0.01-0.32,0.01-0.49,0
		c-0.2,0-0.27-0.06-0.2-0.27c0.12-0.37,0.18-0.76,0.29-1.13c0.12-0.42,0.21-0.85,0.33-1.28c0.12-0.47,0.24-0.94,0.36-1.41
		c0.01-0.04,0.07-0.09,0.1-0.09c0.18-0.01,0.36-0.01,0.54-0.01h0.4c0.14,0.01,0.28,0.1,0.29,0.23c0.03,0.41,0.18,0.79,0.27,1.18
		c0.13,0.55,0.26,1.1,0.42,1.65c0.1,0.34,0.17,0.7,0.25,1.05C26.89,35.45,26.86,35.5,26.85,35.5z M29.69,35.34
		c0.01,0.1-0.01,0.16-0.14,0.16c-0.71-0.01-1.43-0.01-2.14,0c-0.14,0-0.13-0.07-0.13-0.16v-3.83c0-0.13-0.02-0.24,0.18-0.21
		c0.23,0.03,0.47,0.03,0.7,0.04c0.01,0.22,0.02,0.44,0.02,0.66v2.58c0,0.2,0.01,0.2,0.23,0.2h0.93c0.36,0,0.36,0,0.36,0.38
		C29.69,35.23,29.68,35.28,29.69,35.34z M32.78,35.5c-0.04,0.01-0.09,0-0.13,0v0.02c-0.16-0.02-0.31-0.04-0.47-0.06
		c0.01-0.14-0.02-0.28-0.09-0.41c-0.06-0.11,0.05-0.26-0.07-0.37c-0.14-0.13-0.31-0.04-0.47-0.06c-0.12-0.02-0.24-0.01-0.35-0.01
		c-0.2,0.01-0.26,0.07-0.28,0.25c-0.02,0.11,0.03,0.22-0.08,0.33c-0.05,0.06,0.01,0.25-0.05,0.28c-0.09,0.05-0.22,0.03-0.34,0.03
		c-0.15,0.01-0.3,0.01-0.45,0c-0.17,0-0.16,0-0.11-0.19c0.07-0.27,0.12-0.54,0.21-0.8c0.05-0.14,0.06-0.3,0.09-0.46
		c0.04-0.16,0.03-0.36,0.12-0.48c0.11-0.14-0.04-0.34,0.14-0.43c0.05-0.55,0.27-1.05,0.36-1.59c0.04-0.19,0.08-0.24,0.28-0.24
		c0.27,0,0.54,0.01,0.8,0c0.16,0,0.25,0.07,0.26,0.23c0.01,0.3,0.12,0.58,0.19,0.85c0.08,0.28,0.15,0.56,0.23,0.84
		c0.11,0.38,0.19,0.78,0.29,1.17c0.06,0.25,0.12,0.49,0.18,0.73c0.03,0.11,0.04,0.24,0.06,0.35C33.02,35.49,32.9,35.49,32.78,35.5z
		 M36.01,35.28c0,0.22,0,0.22-0.2,0.22c-0.7,0.01-1.4,0.01-2.09,0c-0.19,0-0.2,0-0.2-0.23v-1.91c0-0.62,0.01-1.25,0-1.87
		c-0.01-0.12,0.01-0.19,0.16-0.18c0.24,0.02,0.47,0.01,0.71,0.02c0.01,0.24,0.03,0.47,0.03,0.7c0.01,0.77,0,1.54,0.01,2.31
		c0,0.15-0.04,0.35,0.04,0.42c0.08,0.08,0.28,0.03,0.42,0.03h0.89c0.25,0,0.25,0.01,0.25,0.27V35.28z M40.03,26.9
		c-0.36,0.59-0.92,0.9-1.54,1.11c-0.35,0.12-0.71,0.21-1.06,0.33c-0.17,0.06-0.36,0.03-0.54,0.1c-0.26,0.1-0.57,0.05-0.84,0.11
		c-0.37,0.1-0.76,0.02-1.12,0.1c-0.59,0.13-1.17,0.05-1.75,0.07c-0.76,0.02-1.38-0.32-1.87-0.85c-0.25-0.27-0.41-0.62-0.46-1.01
		c-0.01-0.11-0.09-0.19-0.09-0.32c0.01-0.46-0.03-0.93,0.02-1.38c0.02-0.14,0.06-0.3,0.08-0.46c0.02-0.14,0.06-0.27,0.08-0.41
		c0.01-0.07-0.01-0.14-0.01-0.28c-0.3,0.6-0.54,1.14-0.82,1.65c-0.29,0.53-0.62,1.03-0.97,1.51c-0.26,0.35-0.5,0.71-0.82,0.99
		c-0.33,0.29-0.66,0.59-1.05,0.79c-0.66,0.32-1.31,0.29-1.93-0.11c-0.19-0.12-0.36-0.28-0.53-0.44c-0.14-0.14-0.15-0.23-0.01-0.36
		c0.19-0.17,0.38-0.34,0.6-0.49c0.24-0.16,0.5-0.29,0.76-0.43c0.35-0.19,0.72-0.36,1.06-0.56c0.23-0.14,0.4-0.36,0.66-0.45
		c0.01-0.01,0.02-0.04,0.02-0.06c0-0.02-0.03-0.02-0.03-0.04c-0.03-0.44-0.19-0.87-0.32-1.29c-0.1-0.33-0.27-0.63-0.43-0.94
		c-0.18-0.34-0.4-0.67-0.6-1c-0.04-0.06-0.09-0.09-0.1,0.02c-0.02,0.18-0.18,0.12-0.23,0.09c-0.32-0.26-0.7-0.46-0.84-0.89
		c-0.17-0.51-0.23-0.73-0.11-1.27c0.09-0.42,0.18-0.85,0.29-1.27c0.03-0.1,0.07-0.21,0.09-0.32c0.02-0.06-0.03-0.16,0.09-0.16
		c0.07,0.01,0.15,0.02,0.19,0.07c0.52,0.51,1.07,1,1.45,1.63c0.47,0.77,0.86,1.57,1.11,2.43c0.11,0.39,0.23,0.77,0.29,1.18
		c0.03,0.19,0.07,0.39,0.08,0.59c0,0.03,0.05,0.06,0.08,0.08c0.02,0.01,0.06-0.01,0.07-0.03c0.26-0.47,0.6-0.89,0.75-1.43
		c0.06-0.22,0.18-0.43,0.28-0.64c0.31-0.66,0.52-1.36,0.86-2c0.38-0.71,0.9-1.28,1.54-1.75c0.03-0.03,0.08-0.02,0.12-0.04
		c0.08-0.04,0.2-0.01,0.21,0.07c0.01,0.13,0.05,0.3-0.01,0.4c-0.11,0.19-0.05,0.39-0.08,0.59c-0.02,0.14-0.06,0.28-0.09,0.41
		c-0.02,0.13-0.01,0.25-0.07,0.38c-0.08,0.18-0.04,0.41-0.1,0.62c-0.08,0.3-0.07,0.62-0.1,0.94c-0.02,0.12-0.06,0.24-0.09,0.36
		c-0.03,0.12,0.06,0.27-0.07,0.37c-0.02,0.01-0.02,0.05-0.02,0.08c-0.03,0.79-0.14,1.58-0.09,2.37c0.02,0.37,0.26,0.72,0.62,0.81
		c0.34,0.09,0.68,0.17,1.04,0.2c0.3,0.03,0.6,0.06,0.9,0.07c0.54,0.02,1.07-0.15,1.62-0.1c0.03,0.01,0.07-0.03,0.1-0.06
		c0.01-0.02,0-0.07-0.01-0.08c-0.5-0.35-0.9-0.83-1.46-1.1c-0.3-0.14-0.56-0.07-0.82,0.19c-0.11,0.1-0.24,0.19-0.31,0.32
		c-0.1,0.19-0.21,0.04-0.28,0.01c-0.12-0.07-0.19-0.19-0.28-0.32c-0.1-0.16,0.02-0.26,0.03-0.39c0.02-0.28,0.16-0.49,0.32-0.72
		c0.27-0.4,0.6-0.72,1.03-0.95c0.2-0.11,0.44-0.08,0.63-0.21c0.24,0.11,0.5,0.18,0.71,0.33c0.34,0.24,0.66,0.51,0.97,0.78
		c0.43,0.39,0.85,0.8,1.29,1.19c0.41,0.36,0.9,0.61,1.41,0.79c0.11,0.03,0.23,0.02,0.34,0.03C40.13,26.55,40.17,26.67,40.03,26.9z
		 M31.5,32.34c-0.05,0.24-0.03,0.48-0.14,0.64c-0.12,0.19-0.03,0.39-0.12,0.57c-0.11,0.2-0.06,0.25,0.16,0.25
		c0.09,0.01,0.18,0.01,0.27,0c0.13-0.01,0.19-0.06,0.15-0.18C31.69,33.22,31.63,32.79,31.5,32.34z M25.31,32.62
		c-0.01-0.05-0.03-0.1-0.05-0.15c-0.04,0.06-0.11,0.11-0.12,0.17c-0.05,0.2-0.04,0.42-0.11,0.62c-0.05,0.14-0.08,0.27-0.08,0.41
		c0,0.09,0.02,0.14,0.12,0.13h0.31c0.18,0,0.17,0,0.13-0.2C25.44,33.28,25.38,32.95,25.31,32.62z M25.52,33.61
		c-0.08-0.33-0.13-0.65-0.2-0.98c-0.01-0.05-0.03-0.1-0.05-0.15c-0.04,0.06-0.11,0.11-0.12,0.17c-0.05,0.2-0.04,0.42-0.11,0.62
		c-0.05,0.14-0.08,0.27-0.08,0.41c0,0.09,0.02,0.14,0.12,0.13h0.31C25.57,33.81,25.56,33.81,25.52,33.61z M25.52,33.61
		c-0.08-0.33-0.13-0.65-0.2-0.98c-0.01-0.05-0.03-0.1-0.05-0.15c-0.04,0.06-0.11,0.11-0.12,0.17c-0.05,0.2-0.04,0.42-0.11,0.62
		c-0.05,0.14-0.08,0.27-0.08,0.41c0,0.09,0.02,0.14,0.12,0.13h0.31C25.57,33.81,25.56,33.81,25.52,33.61z M25.52,33.61
		c-0.08-0.33-0.13-0.65-0.2-0.98c-0.01-0.05-0.03-0.1-0.05-0.15c-0.04,0.06-0.11,0.11-0.12,0.17c-0.05,0.2-0.04,0.42-0.11,0.62
		c-0.05,0.14-0.08,0.27-0.08,0.41c0,0.09,0.02,0.14,0.12,0.13h0.31C25.57,33.81,25.56,33.81,25.52,33.61z M25.52,33.61
		c-0.08-0.33-0.13-0.65-0.2-0.98c-0.01-0.05-0.03-0.1-0.05-0.15c-0.04,0.06-0.11,0.11-0.12,0.17c-0.05,0.2-0.04,0.42-0.11,0.62
		c-0.05,0.14-0.08,0.27-0.08,0.41c0,0.09,0.02,0.14,0.12,0.13h0.31C25.57,33.81,25.56,33.81,25.52,33.61z"/>
	<path class="st0" d="M28,0C12.54,0,0,12.54,0,28s12.54,28,28,28c15.46,0,28-12.54,28-28S43.46,0,28,0z M50.23,29.18
		c-1.83,1.83-3.66,3.66-5.49,5.48c-0.19,0.19-0.26,0.38-0.26,0.65c0.01,2.66-0.01,5.32,0.02,7.98c0.01,0.52-0.39,0.99-0.84,1.19
		c-0.1,0.05-0.23,0.03-0.35,0.03c-2.67,0-5.34,0.01-8.02-0.01c-0.27,0-0.46,0.07-0.65,0.27c-1.81,1.83-3.63,3.64-5.44,5.46
		c-0.23,0.23-0.47,0.41-0.77,0.53c-0.03,0.01-0.05,0.06-0.07,0.08h-0.71c-0.03-0.03-0.04-0.07-0.07-0.08
		c-0.3-0.11-0.54-0.3-0.77-0.52c-1.81-1.82-3.63-3.63-5.44-5.46c-0.19-0.19-0.37-0.28-0.65-0.28c-2.67,0.02-5.34,0.01-8.01,0.01
		c-0.12,0-0.26,0.04-0.35-0.01c-0.41-0.19-0.86-0.66-0.85-1.15c0.02-2.69,0.01-5.37,0.02-8.06c0-0.28-0.08-0.46-0.28-0.65
		c-1.7-1.69-3.4-3.4-5.1-5.09C6,29.42,5.87,29.3,5.75,29.17c-0.11-0.13-0.23-0.26-0.33-0.39c-0.11-0.13-0.1-0.32-0.25-0.41v-0.71
		c0.15-0.09,0.14-0.29,0.25-0.41c0.11-0.13,0.22-0.26,0.33-0.39C5.87,26.72,6,26.6,6.13,26.48c1.71-1.71,3.42-3.43,5.14-5.14
		c0.17-0.17,0.24-0.34,0.24-0.57c-0.01-2.67,0.01-5.35-0.02-8.02c-0.01-0.53,0.4-1,0.84-1.2c0.1-0.05,0.23-0.03,0.34-0.03
		c2.67,0,5.35-0.01,8.02,0.01c0.27,0,0.46-0.07,0.65-0.26c1.85-1.87,3.72-3.72,5.56-5.59c0.22-0.22,0.49-0.35,0.75-0.45
		c0.23-0.09,0.5-0.08,0.76,0.05c0.27,0.13,0.52,0.28,0.73,0.5c1.84,1.84,3.68,3.67,5.51,5.52c0.17,0.17,0.34,0.24,0.58,0.24
		c2.67-0.01,5.34,0.01,8.02-0.02c0.53-0.01,0.99,0.4,1.2,0.84c0.05,0.1,0.03,0.23,0.03,0.35c0,2.67,0.01,5.34-0.01,8.02
		c0,0.27,0.07,0.46,0.27,0.65c1.87,1.85,3.72,3.72,5.59,5.57c0.22,0.22,0.35,0.49,0.45,0.75c0.09,0.22,0.08,0.5-0.05,0.76
		C50.59,28.72,50.45,28.96,50.23,29.18z"/>
</g>
</svg>
